<svg width="345" height="341" viewBox="0 0 345 341" fill="none" xmlns="http://www.w3.org/2000/svg">
<path d="M82.4011 255.583C77.8063 264.31 69.9252 272.117 59.3357 272.04C55.5607 272.009 51.7447 270.78 48.785 268.51C47.6063 267.614 46.5748 266.544 45.7271 265.338C42.0572 260.083 42.4066 253.074 43.7494 246.831C44.8456 241.74 47.9994 235.872 50.9225 231.544C55.5744 224.656 62.9691 218.905 71.6106 219.022C74.2005 219.056 76.7547 219.623 79.1103 220.686C81.3671 221.692 83.3434 223.223 84.8698 225.148C91.6638 233.872 86.9982 246.847 82.4011 255.583Z" fill="#D10000"/>
<path d="M79.229 253.684C74.6342 262.411 66.7531 270.221 56.1636 270.142C53.6147 270.12 51.0996 269.564 48.785 268.51C47.6063 267.614 46.5748 266.544 45.7271 265.338C42.0572 260.083 42.4066 253.074 43.7494 246.831C44.8456 241.74 47.9994 235.872 50.9225 231.544C55.5744 224.656 62.9691 218.905 71.6106 219.022C74.2005 219.056 76.7547 219.623 79.1103 220.686C80.0827 221.427 80.9539 222.29 81.7023 223.252C88.5009 231.974 83.8261 244.948 79.229 253.684Z" fill="#FF010A"/>
<path d="M69.0576 241.017C67.2771 245.573 64.6342 249.752 61.2702 253.333C59.2149 255.508 55.9834 257.539 52.8661 257.488C51.4307 257.477 50.044 256.972 48.945 256.061C47.0016 254.482 46.0493 251.906 45.9625 249.394C45.8757 246.883 46.5609 244.41 47.4058 242.047C47.584 241.544 47.7735 241.044 47.9699 240.545C49.9978 235.408 52.9598 230.533 57.1047 226.861C59.2263 224.983 61.1971 223.267 64.1385 223.959C64.7915 224.112 65.4212 224.349 66.0112 224.665C67.7447 225.6 69.097 227.098 69.8386 228.906C71.4235 232.736 70.5672 237.155 69.0576 241.017Z" fill="#D10000"/>
<path d="M68.3564 241.808C66.7526 245.833 64.382 249.517 61.3728 252.661C59.5459 254.577 56.6364 256.367 53.8366 256.325C52.5526 256.315 51.3109 255.87 50.3197 255.064C48.5795 253.673 47.7254 251.403 47.6478 249.203C47.5701 247.002 48.1822 244.809 48.9404 242.726C49.1002 242.275 49.2692 241.842 49.445 241.405C51.272 236.878 53.9211 232.581 57.6344 229.346C59.5345 227.689 61.302 226.189 63.9397 226.787C64.5238 226.923 65.0879 227.132 65.6183 227.409C67.1637 228.226 68.3742 229.547 69.0438 231.147C70.4757 234.511 69.7084 238.404 68.3564 241.808Z" fill="#A80000"/>
<path d="M68.3569 241.809C66.7531 245.834 64.3824 249.518 61.3733 252.661C59.5463 254.578 56.6369 256.368 53.8371 256.325C53.582 256.176 53.3385 256.009 53.1086 255.824C51.3661 254.431 50.512 252.163 50.4344 249.963C50.3567 247.763 50.971 245.569 51.7269 243.486C51.8891 243.035 52.0581 242.602 52.2339 242.165C54.0609 237.636 56.7077 233.341 60.421 230.103C62.0447 228.692 63.568 227.385 65.6187 227.398C67.1641 228.215 68.3747 229.536 69.0443 231.136C70.4762 234.511 69.7088 238.404 68.3569 241.809Z" fill="#BC0904"/>
<g opacity="0.49">
<path d="M62.4667 257.418C62.3456 257.508 62.1933 257.547 62.0434 257.525C61.8935 257.504 61.7583 257.425 61.6674 257.306C61.5766 257.186 61.5375 257.036 61.559 256.888C61.5804 256.74 61.6605 256.606 61.7816 256.517C64.4636 254.131 66.7209 251.319 68.4591 248.195C70.2039 245.019 71.2932 241.678 72.2021 238.256C72.2386 238.12 72.325 238.003 72.4444 237.926C72.5639 237.85 72.7078 237.821 72.848 237.844C72.9882 237.867 73.1147 237.941 73.2026 238.051C73.2905 238.162 73.3336 238.3 73.3234 238.44C72.7434 245.909 68.8816 253.502 62.4667 257.418Z" fill="white"/>
</g>
<path d="M311.51 260.065C306.915 268.794 299.034 276.601 288.444 276.511C284.669 276.48 280.853 275.253 277.893 272.983C276.715 272.087 275.683 271.016 274.836 269.809C271.166 264.554 271.515 257.544 272.86 251.302C273.954 246.214 277.108 240.345 280.031 236.017C284.683 229.129 292.077 223.376 300.719 223.495C303.309 223.528 305.864 224.095 308.219 225.159C310.478 226.163 312.456 227.694 313.983 229.621C320.772 238.355 316.107 251.329 311.51 260.065Z" fill="#D10000"/>
<path d="M308.337 258.168C303.743 266.895 295.862 274.703 285.272 274.626C282.723 274.602 280.209 274.046 277.893 272.994C276.715 272.097 275.683 271.027 274.835 269.819C271.166 264.564 271.515 257.555 272.86 251.313C273.954 246.224 277.108 240.356 280.031 236.027C284.683 229.14 292.077 223.387 300.719 223.506C303.309 223.539 305.864 224.106 308.219 225.17C309.191 225.911 310.062 226.773 310.811 227.733C317.6 236.456 312.935 249.432 308.337 258.168Z" fill="#FF010A"/>
<path d="M298.166 245.498C296.386 250.055 293.743 254.235 290.378 257.814C288.323 259.99 285.094 262.021 281.974 261.971C280.537 261.96 279.149 261.454 278.049 260.542C276.105 258.964 275.155 256.385 275.068 253.876C274.982 251.367 275.665 248.891 276.51 246.526C276.688 246.026 276.877 245.523 277.074 245.027C279.102 239.889 282.066 235.015 286.208 231.342C288.33 229.462 290.301 227.735 293.242 228.439C293.895 228.594 294.525 228.831 295.117 229.144C296.85 230.08 298.201 231.578 298.942 233.385C300.532 237.218 299.675 241.636 298.166 245.498Z" fill="#D10000"/>
<path d="M297.46 246.29C295.857 250.316 293.486 254 290.476 257.143C288.649 259.062 285.74 260.852 282.94 260.806C281.656 260.798 280.415 260.354 279.423 259.548C277.683 258.155 276.829 255.887 276.751 253.673C276.674 251.459 277.286 249.282 278.044 247.199C278.196 246.757 278.364 246.316 278.549 245.875C280.375 241.348 283.025 237.054 286.738 233.816C288.638 232.161 290.406 230.66 293.043 231.257C293.627 231.394 294.191 231.604 294.722 231.882C296.267 232.699 297.477 234.019 298.147 235.617C299.584 238.992 298.816 242.886 297.46 246.29Z" fill="#A80000"/>
<path d="M297.46 246.29C295.857 250.315 293.486 254 290.476 257.143C288.649 259.061 285.74 260.851 282.94 260.806C282.684 260.659 282.441 260.492 282.211 260.308C280.469 258.915 279.617 256.644 279.537 254.433C279.457 252.221 280.074 250.041 280.832 247.956C280.984 247.514 281.153 247.074 281.337 246.635C283.164 242.108 285.811 237.811 289.524 234.576C291.148 233.162 292.671 231.854 294.722 231.87C296.267 232.687 297.477 234.007 298.147 235.606C299.584 238.992 298.816 242.886 297.46 246.29Z" fill="#BC0904"/>
<g opacity="0.49">
<path d="M291.579 261.895C291.458 261.985 291.306 262.023 291.156 262.002C291.006 261.981 290.871 261.902 290.78 261.782C290.689 261.663 290.65 261.513 290.672 261.365C290.693 261.217 290.773 261.083 290.894 260.993C293.577 258.609 295.834 255.796 297.572 252.672C299.317 249.496 300.408 246.157 301.315 242.735C301.351 242.599 301.438 242.482 301.557 242.405C301.677 242.329 301.821 242.3 301.961 242.323C302.101 242.346 302.227 242.42 302.315 242.53C302.403 242.641 302.446 242.779 302.436 242.919C301.861 250.397 297.99 257.986 291.579 261.895Z" fill="white"/>
</g>
<path d="M94.1668 128.562C84.1185 140.944 69.1693 150.852 52.4389 147.427C46.4785 146.208 40.8308 143.081 36.8709 138.572C35.2916 136.789 33.9999 134.776 33.0411 132.604C28.9099 123.154 31.6914 112.174 35.8044 102.715C39.1569 95.0023 46.0103 86.7082 52.0187 80.7542C61.5714 71.3012 75.1001 64.495 88.7315 67.3627C92.8181 68.2192 96.6784 69.9085 100.066 72.3225C103.297 74.6446 106.003 77.6295 107.766 81.1667C115.725 97.0944 104.217 116.167 94.1668 128.562Z" fill="#D10000"/>
<path d="M89.7523 124.576C79.704 136.958 64.7549 146.866 48.0245 143.442C43.9995 142.616 40.1979 140.956 36.8709 138.572C35.2916 136.789 33.9999 134.776 33.0411 132.604C28.9099 123.154 31.6914 112.174 35.8044 102.715C39.1569 95.0023 46.0103 86.7082 52.0187 80.7542C61.5714 71.3012 75.1001 64.495 88.7315 67.3627C92.8181 68.2192 96.6784 69.9085 100.066 72.3225C101.364 73.7963 102.466 75.4283 103.345 77.1786C111.311 93.1018 99.8029 112.181 89.7523 124.576Z" fill="#FF010A"/>
<path d="M77.692 101.378C73.4263 108.034 67.9149 113.827 61.4526 118.447C57.5201 121.253 51.7537 123.463 46.8369 122.417C44.57 121.954 42.5373 120.725 41.0888 118.943C38.5173 115.838 37.8299 111.471 38.4922 107.474C39.1545 103.477 41.0226 99.773 43.1122 96.2944C43.5552 95.5549 44.0119 94.8222 44.4824 94.0963C49.3261 86.598 55.5652 79.8053 63.2841 75.2806C67.2372 72.9653 70.9003 70.8619 75.3353 72.8683C76.3197 73.3139 77.241 73.8846 78.0757 74.566C80.5192 76.5818 82.182 79.3693 82.7824 82.4565C84.0658 89.017 81.3071 95.742 77.692 101.378Z" fill="#D10000"/>
<path d="M76.3319 102.417C72.5148 108.287 67.5929 113.381 61.8326 117.421C58.318 119.885 53.1546 121.817 48.7493 120.879C46.7225 120.466 44.9005 119.379 43.5881 117.799C41.277 115.056 40.6467 111.201 41.2291 107.677C41.8114 104.153 43.4739 100.896 45.3397 97.834C45.7325 97.1825 46.1413 96.5377 46.5592 95.8997C50.8777 89.3009 56.4454 83.3288 63.3491 79.361C66.8842 77.332 70.1591 75.4878 74.1373 77.2689C75.0192 77.6645 75.8459 78.1707 76.5968 78.7748C78.7836 80.5467 80.2813 83.0114 80.8353 85.7501C82.0046 91.5305 79.5542 97.4507 76.3319 102.417Z" fill="#A80000"/>
<path d="M76.3312 102.417C72.5141 108.288 67.5921 113.381 61.8319 117.421C58.3173 119.885 53.1539 121.817 48.7486 120.879C48.3914 120.567 48.0593 120.228 47.7552 119.865C45.444 117.121 44.816 113.266 45.3961 109.742C45.9762 106.218 47.641 102.961 49.5068 99.8993C49.9011 99.247 50.3076 98.6022 50.7263 97.9649C55.0448 91.3661 60.6125 85.3941 67.5161 81.4263C70.5329 79.6926 73.3601 78.0964 76.5961 78.775C78.7829 80.5468 80.2806 83.0116 80.8346 85.7503C82.0039 91.5307 79.5535 97.4509 76.3312 102.417Z" fill="#BC0904"/>
<g opacity="0.49">
<path d="M62.0558 125.287C61.0122 125.672 60.2974 124.236 61.2474 123.663C66.1916 120.688 70.6403 117.114 74.4586 112.569C78.2267 108.085 81.0151 103.141 83.5409 98.0078C84.0319 97.0113 85.5574 97.5795 85.256 98.6481C81.9789 110.268 73.4401 121.08 62.0558 125.287Z" fill="white"/>
</g>
<path d="M213.329 295.284C213.329 303.797 210.384 312.054 204.981 318.688C199.578 325.323 192.041 329.936 183.619 331.763C175.197 333.591 166.395 332.523 158.672 328.737C150.948 324.951 144.767 318.674 141.151 310.946C137.536 303.218 136.703 294.502 138.791 286.243C140.879 277.984 145.763 270.677 152.633 265.532C159.503 260.387 167.947 257.714 176.567 257.954C185.186 258.195 193.464 261.336 200.028 266.855C204.198 270.361 207.546 274.719 209.843 279.627C212.139 284.535 213.329 289.877 213.329 295.284Z" fill="#D10000"/>
<path d="M210.613 292.763C210.612 299.783 208.608 306.661 204.829 312.607C201.05 318.554 195.649 323.328 189.247 326.384C182.845 329.439 175.7 330.651 168.632 329.88C161.564 329.11 154.859 326.389 149.286 322.028C148.936 321.755 148.593 321.476 148.256 321.192C141.527 314.287 137.743 305.093 137.689 295.511C137.634 285.93 141.312 276.694 147.962 269.715C154.613 262.736 163.726 258.547 173.417 258.016C183.108 257.484 192.636 260.65 200.028 266.86C200.165 266.999 200.302 267.139 200.434 267.283C206.987 274.19 210.626 283.301 210.613 292.763Z" fill="#FF4133"/>
<path d="M210.613 292.764C210.612 299.784 208.608 306.661 204.829 312.608C201.05 318.554 195.649 323.329 189.247 326.384C182.845 329.439 175.7 330.651 168.632 329.881C161.564 329.11 154.859 326.389 149.286 322.029C142.761 315.144 139.116 306.077 139.083 296.649C139.049 287.221 142.629 278.129 149.105 271.199C155.58 264.268 164.471 260.013 173.993 259.286C183.515 258.559 192.963 261.414 200.441 267.279C206.992 274.188 210.629 283.301 210.613 292.764Z" fill="#FF010A"/>
<path d="M199.121 295.284C199.121 301.01 196.987 306.536 193.126 310.809C189.265 315.082 183.947 317.803 178.184 318.455C177.293 318.554 176.396 318.603 175.499 318.604C172.396 318.604 169.325 318.001 166.459 316.829C163.593 315.657 160.988 313.939 158.795 311.774C156.601 309.608 154.861 307.037 153.674 304.208C152.487 301.379 151.876 298.346 151.876 295.284C151.876 292.221 152.487 289.189 153.674 286.36C154.861 283.53 156.601 280.96 158.795 278.794C160.988 276.629 163.593 274.911 166.459 273.739C169.325 272.567 172.396 271.964 175.499 271.964C176.396 271.964 177.293 272.014 178.184 272.113C183.947 272.764 189.265 275.486 193.127 279.759C196.988 284.032 199.121 289.558 199.121 295.284Z" fill="#D10000"/>
<path d="M196.569 295.283C196.568 300.391 194.664 305.319 191.22 309.131C187.776 312.942 183.032 315.369 177.892 315.95C177.098 316.038 176.299 316.082 175.499 316.083C171.332 316.083 167.258 314.863 163.794 312.578C160.329 310.292 157.628 307.044 156.034 303.243C154.439 299.443 154.022 295.26 154.835 291.226C155.648 287.191 157.654 283.485 160.601 280.576C163.547 277.667 167.302 275.686 171.389 274.884C175.476 274.081 179.712 274.493 183.562 276.067C187.412 277.641 190.703 280.307 193.018 283.728C195.333 287.148 196.569 291.17 196.569 295.283Z" fill="#A80000"/>
<path d="M177.894 315.95C188.207 315.95 196.568 306.698 196.568 295.284C196.568 283.87 188.207 274.617 177.894 274.617C167.581 274.617 159.22 283.87 159.22 295.284C159.22 306.698 167.581 315.95 177.894 315.95Z" fill="#BC0904"/>
<g opacity="0.5">
<path d="M143.278 297.741C141.303 285.08 146.734 271.278 159.02 266.855C160.029 266.492 160.703 267.877 159.796 268.447C153.859 272.178 149.109 277.223 146.932 284.289C145.592 288.645 145.158 293.117 145.064 297.617C145.044 298.706 143.445 298.817 143.278 297.741Z" fill="white"/>
</g>
<path d="M215.304 71.6511C212.628 74.3359 209.458 76.4922 205.963 78.0042C196.829 82.0892 186.219 83.5772 176.622 80.6644C169.639 78.5452 163.338 73.8718 159.607 67.7509C158.197 65.4572 157.18 62.9497 156.597 60.3292C155.455 55.0944 156.101 49.589 157.738 44.4894C159.764 38.2266 163.934 31.8397 169.299 26.4876C176.442 19.3613 185.702 14.0701 194.824 13.3622C201.969 12.8076 209.332 14.0521 215.649 17.4811C219.297 19.4682 222.5 22.1629 225.067 25.4032C228.435 29.6461 230.627 34.7547 231.004 40.1248C231.888 52.628 223.737 63.2488 215.304 71.6511Z" fill="#D10000"/>
<path d="M213.299 68.7069C210.623 71.3917 207.453 73.5479 203.959 75.0599C194.812 79.1427 184.214 80.6307 174.618 77.7179C168.707 75.9205 163.477 72.4149 159.604 67.654C156.257 63.481 154.786 56.8552 154.795 51.6226C154.822 35.731 167.017 21.4896 181.361 15.3372C190.971 11.216 199.649 10.7494 209.517 13.8425C215.256 15.6461 221 19.4335 224.489 24.4226C224.688 24.7097 224.88 25.0013 225.065 25.2974C227.321 28.8864 228.671 32.9579 229.002 37.1693C229.883 49.6838 221.733 60.3023 213.299 68.7069Z" fill="#FF010A"/>
<path d="M209.328 34.4211C209.442 36.4231 209.086 38.4205 208.643 40.3774C207.729 44.4354 205.407 47.79 202.849 50.9598C200.259 54.1679 197.03 57.0896 193.349 59.0172C188.423 61.594 182.159 62.6965 176.639 62.2253C172.183 61.842 168.874 59.6981 166.739 56.5892C164.604 53.4803 163.654 49.4718 163.884 45.2876C164.177 40.0099 166.396 34.9013 169.779 30.6494C177 21.5978 189.565 16.4328 200.348 21.8097C204.861 24.0642 208.474 28.3702 209.207 33.2849C209.266 33.6636 209.31 34.0424 209.328 34.4211Z" fill="#D10000"/>
<path d="M207.4 36.3888C207.496 38.0977 207.192 39.8043 206.815 41.4748C206.039 44.9354 204.038 47.8076 201.846 50.5152C199.654 53.2228 196.856 55.75 193.698 57.398C189.473 59.6006 184.106 60.5543 179.37 60.1395C175.549 59.8148 172.711 57.9819 170.881 55.333C169.052 52.684 168.237 49.2459 168.435 45.6794C168.687 41.1705 170.584 36.8081 173.492 33.1762C179.685 25.4457 190.459 21.0314 199.706 25.6215C203.575 27.5446 206.671 31.2238 207.3 35.4216C207.347 35.7417 207.382 36.0641 207.4 36.3888Z" fill="#A80000"/>
<path d="M207.4 36.3886C207.496 38.0975 207.192 39.8041 206.816 41.4747C206.039 44.9353 204.039 47.8075 201.846 50.5151C199.654 53.2227 196.856 55.7499 193.698 57.3979C189.473 59.6005 184.106 60.5541 179.37 60.1393C175.549 59.8147 172.711 57.9818 170.881 55.3328C170.585 53.8489 170.481 52.3338 170.571 50.8239C170.822 46.315 172.72 41.9526 175.627 38.3207C181.818 30.5902 192.595 26.176 201.839 30.766C204.017 31.8495 205.892 33.4442 207.3 35.4102C207.348 35.7416 207.382 36.064 207.4 36.3886Z" fill="#BC0904"/>
<g opacity="0.5">
<path d="M212.205 41.6848C210.675 53.6109 202.157 64.6802 189.925 65.5279C188.92 65.5978 188.673 64.1752 189.642 63.8957C195.979 62.0448 201.579 58.7104 205.399 52.8849C207.749 49.2981 209.309 45.3753 210.572 41.3399C210.864 40.3727 212.335 40.6816 212.205 41.6848Z" fill="white"/>
</g>
<path d="M172.498 340.896C126.422 340.896 83.1048 323.18 50.5232 291.016C17.9416 258.852 -0.00146484 216.089 -0.00146484 170.603C-0.00146484 125.118 17.9347 82.3529 50.5232 50.1886C83.1117 18.0243 126.422 0.311035 172.498 0.311035C218.574 0.311035 261.894 18.0243 294.475 50.1886C327.057 82.3529 345 125.115 345 170.603C345 216.092 327.057 258.854 294.475 291.016C261.894 323.178 218.576 340.896 172.498 340.896ZM172.498 2.10107C78.3821 2.10107 1.81181 77.6907 1.81181 170.603C1.81181 263.516 78.3821 339.104 172.498 339.104C266.614 339.104 343.187 263.514 343.187 170.603C343.187 77.6929 266.616 2.10107 172.498 2.10107Z" fill="#303030"/>
<path d="M310.395 151.984C303.731 164.55 293.553 175.315 281.732 173.836C277.519 173.311 273.47 170.978 270.56 167.181C269.358 165.604 268.395 163.863 267.701 162.012C264.522 153.63 266.144 143.113 268.74 133.876C270.857 126.348 275.411 117.906 279.437 111.755C285.843 101.967 295.117 94.2383 304.75 95.5233C307.713 95.9335 310.508 97.1286 312.839 98.9817C315.325 100.961 317.27 103.523 318.498 106.435C324.554 120.446 317.063 139.404 310.395 151.984Z" fill="#D10000"/>
<path d="M307.184 148.722C300.518 161.288 290.342 172.053 278.519 170.574C275.602 170.189 272.849 169.019 270.56 167.192C269.358 165.615 268.395 163.874 267.701 162.023C264.522 153.641 266.144 143.124 268.74 133.887C270.857 126.36 275.411 117.917 279.437 111.767C285.843 101.978 295.117 94.2495 304.75 95.5346C307.713 95.9447 310.508 97.1398 312.839 98.9929C313.825 100.286 314.646 101.693 315.285 103.184C321.343 117.184 313.853 136.142 307.184 148.722Z" fill="#FF010A"/>
<path d="M298.042 128.346C295.254 134.983 291.543 140.971 287.177 145.913C284.507 148.932 280.533 151.583 277.057 151.11C275.534 150.904 274.107 150.1 272.929 148.461C271.033 145.834 270.416 141.832 270.766 138.04C271.115 134.248 272.307 130.601 273.666 127.149C273.954 126.417 274.252 125.688 274.559 124.962C277.729 117.478 281.894 110.509 287.167 105.502C289.867 102.941 292.37 100.605 295.535 102.021C296.258 102.348 296.923 102.788 297.506 103.322C299.257 104.9 300.516 107.38 301.036 110.196C302.137 116.168 300.406 122.717 298.042 128.346Z" fill="#D10000"/>
<path d="M297.118 129.448C294.631 135.294 291.315 140.576 287.412 144.914C285.023 147.57 281.474 149.898 278.35 149.477C276.98 149.294 275.703 148.575 274.644 147.137C272.942 144.817 272.387 141.289 272.686 137.948C272.986 134.607 274.057 131.396 275.269 128.353C275.525 127.706 275.791 127.064 276.066 126.425C278.894 119.833 282.614 113.699 287.332 109.291C289.746 107.037 291.986 104.985 294.827 106.236C295.473 106.528 296.069 106.916 296.595 107.388C298.168 108.789 299.301 110.96 299.771 113.453C300.767 118.722 299.228 124.491 297.118 129.448Z" fill="#A80000"/>
<path d="M297.118 129.449C294.631 135.294 291.315 140.577 287.412 144.914C285.023 147.57 281.474 149.899 278.35 149.477C278.086 149.216 277.844 148.934 277.626 148.634C275.925 146.314 275.368 142.786 275.669 139.445C275.971 136.104 277.039 132.893 278.25 129.85C278.508 129.205 278.775 128.56 279.047 127.922C281.874 121.333 285.596 115.196 290.312 110.788C292.368 108.865 294.306 107.089 296.595 107.389C298.168 108.789 299.301 110.96 299.771 113.453C300.767 118.722 299.228 124.491 297.118 129.449Z" fill="#BC0904"/>
<g opacity="0.49">
<path d="M287.805 152.221C287.086 152.687 286.542 151.423 287.191 150.791C290.742 147.359 293.75 143.417 296.111 139.1C298.623 134.537 300.422 129.631 302.037 124.601C302.352 123.621 303.437 123.995 303.259 125.021C301.311 136.185 295.652 147.144 287.805 152.221Z" fill="white"/>
</g>
<path d="M82.8994 41.0283C70.8734 62.2022 76.7768 81.7505 102.768 84.2259C109.39 84.8549 111.644 81.5364 116.835 78.6935C121.818 75.9656 127.751 75.4133 132.47 72.0992C142.061 65.3652 147.807 47.8639 140.657 37.96C133.847 28.5319 119.304 24.032 108.029 24.8842C94.7884 25.9077 87.8893 32.245 82.8994 41.0283Z" fill="#9FB5E6"/>
<path d="M85.094 42.1083C74.0272 61.5913 79.4601 79.5796 103.364 81.8566C109.45 82.4337 111.532 79.3767 116.308 76.766C120.893 74.2568 126.356 73.7473 130.695 70.6993C139.519 64.5018 144.808 48.396 138.231 39.2857C131.967 30.6083 118.591 26.4669 108.21 27.2605C96.0376 28.1938 89.6866 34.0261 85.094 42.1083Z" fill="#B5CCEE"/>
<path d="M127.729 37.7773C130.355 39.9055 133.246 44.6354 129.578 47.3542C128.083 48.4612 126.123 48.7069 124.264 48.8918L112.505 50.1317C106.527 50.763 103.521 53.7186 100.989 59.0233C99.2645 62.6304 96.3368 72.0473 90.8467 71.0102C82.6437 69.4614 89.3075 48.3642 91.1048 43.6119C92.0434 41.132 93.2126 38.6521 95.2154 36.8936C97.2868 35.09 100.036 34.2694 102.738 33.7125C110.63 32.0871 117.792 32.1975 124.945 35.967C125.93 36.4793 126.863 37.0856 127.729 37.7773Z" fill="#783898"/>
<g opacity="0.51">
<path d="M91.5315 57.1907C91.5246 57.2317 91.5096 57.271 91.4873 57.3063C91.465 57.3415 91.4359 57.3721 91.4017 57.3963C91.3674 57.4205 91.3287 57.4378 91.2877 57.4472C91.2467 57.4566 91.2042 57.4579 91.1626 57.4511C91.1211 57.4443 91.0814 57.4295 91.0456 57.4075C91.0099 57.3855 90.9788 57.3568 90.9543 57.323C90.9299 57.2892 90.9124 57.2509 90.9028 57.2104C90.8933 57.17 90.892 57.128 90.8989 57.087C91.6205 51.6357 92.4381 46.1281 96.2519 41.9168C100.276 37.471 105.284 36.5782 110.639 36.603C110.72 36.6059 110.798 36.6389 110.855 36.6955C110.913 36.7521 110.946 36.8281 110.95 36.9083C110.953 36.9884 110.925 37.0668 110.872 37.1277C110.819 37.1885 110.745 37.2274 110.664 37.2365C105.391 37.6581 100.509 38.6118 96.704 43.186C93.3949 47.1742 92.5591 52.2309 91.5315 57.1907Z" fill="white"/>
</g>
<path d="M196.876 125.812C184.85 146.986 190.754 166.537 216.745 169.01C223.367 169.639 225.619 166.32 230.81 163.477C235.795 160.749 241.726 160.197 246.444 156.883C256.036 150.149 261.784 132.648 254.631 122.744C247.824 113.316 233.281 108.816 222.006 109.679C208.765 110.691 201.866 117.029 196.876 125.812Z" fill="#9FB5E6"/>
<path d="M199.072 126.892C188.005 146.375 193.438 164.363 217.341 166.64C223.43 167.217 225.51 164.16 230.285 161.55C234.871 159.041 240.334 158.531 244.673 155.483C253.497 149.285 258.786 133.182 252.209 124.069C245.945 115.392 232.569 111.251 222.19 112.044C210.011 112.978 203.664 118.81 199.072 126.892Z" fill="#B5CCEE"/>
<path d="M241.708 122.57C244.332 124.701 247.226 129.431 243.556 132.15C242.06 133.257 240.1 133.491 238.242 133.687L226.483 134.927C220.504 135.558 217.501 138.514 214.968 143.819C213.244 147.426 210.316 156.843 204.824 155.806C196.623 154.257 203.285 133.16 205.084 128.407C206.021 125.927 207.19 123.436 209.195 121.689C211.266 119.885 214.018 119.065 216.718 118.508C224.61 116.882 231.772 116.993 238.924 120.762C239.909 121.275 240.841 121.881 241.708 122.57Z" fill="#783898"/>
<g opacity="0.51">
<path d="M205.511 141.983C205.504 142.024 205.489 142.063 205.467 142.098C205.444 142.134 205.415 142.164 205.381 142.188C205.347 142.212 205.308 142.23 205.267 142.239C205.226 142.249 205.184 142.25 205.142 142.243C205.101 142.236 205.061 142.221 205.025 142.199C204.989 142.177 204.958 142.149 204.934 142.115C204.909 142.081 204.892 142.043 204.882 142.002C204.873 141.962 204.871 141.92 204.878 141.879C205.598 136.428 206.418 130.92 210.229 126.709C214.253 122.263 219.263 121.37 224.616 121.395C224.698 121.398 224.775 121.431 224.832 121.488C224.89 121.544 224.924 121.62 224.927 121.7C224.93 121.78 224.902 121.859 224.849 121.92C224.797 121.981 224.722 122.019 224.641 122.029C219.368 122.45 214.486 123.404 210.681 127.978C207.374 131.957 206.536 137.023 205.511 141.983Z" fill="white"/>
</g>
<path d="M260.572 199.76C262.3 223.975 278.11 237.112 301.199 225.091C307.077 222.03 307.12 218.032 309.877 212.843C312.524 207.86 317.185 204.181 319.274 198.854C323.542 188.032 318.607 170.285 307.123 165.887C296.188 161.7 281.529 165.822 272.588 172.65C262.093 180.678 259.854 189.714 260.572 199.76Z" fill="#9FB5E6"/>
<path d="M263.004 199.472C264.603 221.755 279.143 233.841 300.391 222.783C305.798 219.965 305.839 216.286 308.383 211.511C310.818 206.928 315.098 203.541 317.03 198.64C320.958 188.676 316.418 172.351 305.839 168.304C295.777 164.451 282.29 168.243 274.062 174.533C264.406 181.914 262.346 190.229 263.004 199.472Z" fill="#B5CCEE"/>
<path d="M296.225 172.736C299.603 173.092 304.652 175.478 303.099 179.738C302.464 181.474 300.957 182.732 299.514 183.905L290.379 191.317C285.734 195.087 284.868 199.185 285.702 204.991C286.27 208.945 289.059 218.396 283.893 220.506C276.179 223.662 270.008 202.416 268.869 197.47C268.273 194.891 267.864 192.174 268.569 189.624C269.3 186.996 271.139 184.816 273.087 182.886C278.778 177.25 284.825 173.458 292.898 172.727C294.004 172.623 295.119 172.626 296.225 172.736Z" fill="#783898"/>
<g opacity="0.51">
<path d="M276.782 208.593C276.809 208.669 276.806 208.751 276.774 208.825C276.742 208.898 276.683 208.957 276.609 208.99C276.534 209.022 276.451 209.026 276.374 209C276.297 208.974 276.233 208.92 276.195 208.85C273.765 203.904 271.385 198.856 272.228 193.27C273.118 187.374 276.795 183.911 281.296 181.03C281.365 180.981 281.451 180.962 281.535 180.975C281.619 180.989 281.694 181.035 281.743 181.103C281.792 181.172 281.812 181.256 281.798 181.339C281.784 181.422 281.738 181.495 281.669 181.544C277.496 184.754 273.945 188.199 273.313 194.086C272.762 199.203 274.879 203.89 276.782 208.593Z" fill="white"/>
</g>
<path d="M78.0694 285.445C79.7982 309.66 95.6083 322.797 118.697 310.776C124.575 307.715 124.618 303.718 127.375 298.528C130.021 293.546 134.682 289.866 136.772 284.55C141.04 273.729 136.107 255.98 124.62 251.581C113.686 247.395 99.0292 251.516 90.0863 258.345C79.5949 266.364 77.3523 275.4 78.0694 285.445Z" fill="#9FB5E6"/>
<path d="M80.5085 285.157C82.1071 307.44 96.6474 319.526 117.893 308.468C123.301 305.65 123.342 301.971 125.886 297.196C128.32 292.613 132.6 289.226 134.532 284.325C138.46 274.361 133.92 258.036 123.342 253.989C113.28 250.137 99.792 253.929 91.5639 260.218C81.9038 267.6 79.8439 275.914 80.5085 285.157Z" fill="#B5CCEE"/>
<path d="M113.723 258.421C117.103 258.777 122.15 261.163 120.597 265.424C119.962 267.159 118.455 268.417 117.011 269.59L107.877 277.002C103.232 280.772 102.366 284.87 103.2 290.676C103.768 294.63 106.557 304.081 101.391 306.193C93.6765 309.349 87.5082 288.101 86.3664 283.155C85.7726 280.576 85.3616 277.859 86.0695 275.309C86.7981 272.681 88.6387 270.501 90.5867 268.571C96.2754 262.935 102.323 259.143 110.396 258.412C111.502 258.308 112.617 258.311 113.723 258.421Z" fill="#783898"/>
<g opacity="0.51">
<path d="M94.2791 294.28C94.296 294.318 94.3052 294.359 94.3061 294.401C94.3071 294.443 94.2997 294.484 94.2844 294.523C94.2691 294.561 94.2463 294.597 94.2172 294.627C94.188 294.657 94.1532 294.681 94.1147 294.697C94.0761 294.714 94.0346 294.723 93.9925 294.724C93.9504 294.725 93.9086 294.718 93.8694 294.703C93.8301 294.688 93.7943 294.665 93.7639 294.636C93.7335 294.608 93.7091 294.573 93.6922 294.535C91.2623 289.589 88.8827 284.541 89.7254 278.955C90.6161 273.059 94.2928 269.596 98.794 266.715C98.863 266.666 98.9488 266.647 99.0326 266.661C99.1163 266.674 99.1911 266.72 99.2404 266.788C99.2898 266.857 99.3097 266.941 99.2958 267.024C99.2819 267.107 99.2353 267.18 99.1662 267.229C94.9939 270.442 91.4428 273.884 90.8102 279.771C90.2598 284.891 92.3836 289.578 94.2791 294.28Z" fill="white"/>
</g>
<path d="M201.545 229.612C195.002 218.024 197.553 204.136 204.959 193.383C213.582 180.857 228.785 172.565 243.878 177.054C253.784 180 258.895 190.725 260.279 200.11C261.969 211.58 258.891 222.451 251.243 231.476C245.677 238.043 237.709 242.78 229.091 243.718C219.081 244.804 206.457 238.314 201.545 229.612Z" fill="#9FB5E6"/>
<path d="M204.691 227.377C198.865 217.065 201.138 204.709 207.729 195.139C215.402 183.99 228.933 176.612 242.363 180.606C251.183 183.228 255.732 192.781 256.961 201.122C258.466 211.332 255.725 221.009 248.92 229.039C243.966 234.882 236.875 239.101 229.205 239.935C220.3 240.9 209.064 235.124 204.691 227.377Z" fill="#B5CCEE"/>
<path d="M206.756 214.63C207.284 222.787 212.511 230.815 220.34 233.482C228.12 236.133 237.157 233.083 242.823 227.188C248.488 221.292 251.101 213.023 251.473 204.902C251.59 202.33 251.473 199.654 250.331 197.345C249.19 195.037 246.746 193.181 244.147 193.389C242.32 193.538 240.722 194.631 239.084 195.456C236.899 196.539 234.515 197.177 232.075 197.332C229.634 197.487 227.188 197.155 224.88 196.358C221.573 195.195 218.759 193.181 215.359 194.922C209.017 198.157 206.34 208.207 206.756 214.63Z" fill="#783898"/>
<g opacity="0.51">
<path d="M223.85 198.094C223.934 198.129 224.001 198.195 224.038 198.279C224.074 198.362 224.076 198.456 224.044 198.54C224.012 198.625 223.948 198.694 223.865 198.734C223.783 198.773 223.688 198.78 223.601 198.752C222.486 198.403 221.356 198.195 220.175 198.36C214.934 199.102 212.801 205.799 212.237 211.233C212.234 211.325 212.193 211.413 212.124 211.476C212.055 211.539 211.963 211.572 211.869 211.569C211.776 211.565 211.687 211.525 211.623 211.457C211.559 211.389 211.526 211.298 211.529 211.206C211.447 206.665 212.899 201.683 216.263 198.874C218.919 196.669 221.365 197.093 223.85 198.094Z" fill="white"/>
</g>
<path d="M157.597 98.5532C156.684 86.2078 164.364 75.454 174.917 69.225C187.201 61.9747 203.367 60.8587 214.349 70.5145C221.559 76.8541 221.612 87.9122 219.043 96.3889C215.902 106.759 208.969 114.756 198.902 119.423C191.581 122.818 182.951 123.733 175.284 121.179C166.387 118.217 158.291 107.826 157.597 98.5532Z" fill="#9FB5E6"/>
<path d="M161.153 97.8865C160.333 86.9006 167.175 77.3282 176.565 71.7845C187.5 65.3322 201.887 64.3448 211.659 72.932C218.076 78.5681 218.122 88.4156 215.838 95.9612C213.043 105.184 206.872 112.306 197.913 116.459C191.396 119.482 183.718 120.291 176.903 118.023C168.974 115.388 161.769 106.138 161.153 97.8865Z" fill="#B5CCEE"/>
<path d="M167.974 87.9034C165.172 95.0095 166.396 103.831 171.957 109.125C177.517 114.418 186.344 115.315 193.487 112.527C197.991 110.768 203.631 108.112 202.659 102.382C202.417 101.059 201.823 99.8242 200.937 98.8041C200.051 97.784 198.906 97.0158 197.619 96.5786C195.814 95.9902 193.798 96.0826 192.106 95.2259C191.197 94.7523 190.442 94.0362 189.926 93.1592C189.41 92.2823 189.154 91.2798 189.187 90.2661C189.272 88.5572 190.181 87.0062 190.603 85.3469C191.8 80.6374 188.564 74.3316 183.096 74.5638C176.451 74.8434 170.184 82.3079 167.974 87.9034Z" fill="#783898"/>
<g opacity="0.51">
<path d="M189.023 80.5563C189.072 80.62 189.096 80.6991 189.089 80.7787C189.083 80.8582 189.047 80.9327 188.989 80.9882C188.931 81.0436 188.854 81.0762 188.774 81.0797C188.693 81.0832 188.614 81.0574 188.551 81.0072C187.777 80.2556 186.84 79.6888 185.81 79.3502C181.081 77.9434 176.605 82.786 173.965 87.1619C173.921 87.2329 173.852 87.285 173.771 87.3075C173.69 87.33 173.604 87.3214 173.529 87.2832C173.454 87.2451 173.397 87.1803 173.369 87.1021C173.341 87.0239 173.344 86.9381 173.378 86.862C175.118 82.9911 178.338 79.3412 182.284 78.268C185.422 77.4271 187.324 78.7347 189.023 80.5563Z" fill="white"/>
</g>
<path d="M140.782 249.455C134.239 237.868 136.79 223.98 144.208 213.226C152.831 200.701 168.034 192.407 183.127 196.895C193.033 199.842 198.144 210.566 199.528 219.951C201.218 231.424 198.14 242.295 190.492 251.32C184.926 257.885 176.958 262.624 168.34 263.559C158.323 264.648 145.699 258.158 140.782 249.455Z" fill="#9FB5E6"/>
<path d="M143.933 247.221C138.108 236.907 140.38 224.553 146.971 214.983C154.644 203.834 168.175 196.453 181.608 200.448C190.425 203.072 194.974 212.622 196.203 220.964C197.708 231.174 194.967 240.85 188.162 248.881C183.209 254.724 176.118 258.94 168.447 259.774C159.543 260.743 148.307 254.965 143.933 247.221Z" fill="#B5CCEE"/>
<path d="M145.998 234.472C146.526 242.631 151.755 250.657 159.582 253.324C167.362 255.978 176.399 252.927 182.065 247.03C187.731 241.132 190.343 232.865 190.715 224.747C190.832 222.174 190.715 219.498 189.574 217.187C188.432 214.877 185.988 213.026 183.389 213.233C181.562 213.38 179.964 214.475 178.326 215.298C176.141 216.381 173.757 217.019 171.317 217.174C168.877 217.329 166.43 216.997 164.122 216.2C160.815 215.037 158.001 213.024 154.601 214.762C148.259 218.001 145.594 228.049 145.998 234.472Z" fill="#783898"/>
<g opacity="0.51">
<path d="M163.091 217.947C163.179 217.98 163.251 218.045 163.29 218.13C163.329 218.215 163.332 218.311 163.299 218.398C163.266 218.485 163.199 218.555 163.114 218.594C163.028 218.632 162.931 218.636 162.842 218.603C161.728 218.256 160.598 218.046 159.417 218.213C154.178 218.952 152.043 225.653 151.479 231.086C151.477 231.132 151.466 231.177 151.446 231.219C151.426 231.26 151.399 231.298 151.364 231.329C151.33 231.36 151.29 231.384 151.246 231.4C151.203 231.416 151.156 231.423 151.11 231.421C151.063 231.419 151.018 231.408 150.976 231.389C150.933 231.369 150.895 231.342 150.864 231.308C150.832 231.274 150.808 231.235 150.792 231.191C150.776 231.148 150.769 231.103 150.771 231.057C150.691 226.518 152.141 221.536 155.505 218.727C158.154 216.511 160.607 216.937 163.091 217.947Z" fill="white"/>
</g>
<path d="M95.8775 160.88C109.249 159.546 121.147 167.364 128.212 178.343C136.434 191.126 138.121 208.192 127.961 220.087C121.291 227.898 109.292 228.275 100.016 225.806C88.677 222.788 79.7888 215.686 74.4381 205.176C70.5398 197.529 69.2952 188.43 71.8438 180.246C74.7989 170.748 85.8361 161.881 95.8775 160.88Z" fill="#9FB5E6"/>
<path d="M96.7064 164.62C108.604 163.432 119.194 170.39 125.481 180.163C132.803 191.539 134.298 206.727 125.253 217.314C119.315 224.264 108.636 224.6 100.381 222.404C90.2914 219.717 82.3807 213.386 77.6123 204.042C74.1434 197.236 73.0449 189.138 75.3012 181.856C77.9389 173.401 87.7679 165.511 96.7064 164.62Z" fill="#B5CCEE"/>
<path d="M107.739 171.548C99.945 168.791 90.4083 170.344 84.8223 176.379C79.2706 182.379 78.5239 191.777 81.7576 199.251C84.9913 206.724 91.6461 212.37 99.0498 215.934C101.395 217.061 103.926 218.024 106.531 217.895C109.137 217.767 111.825 216.299 112.663 213.86C113.252 212.14 112.864 210.266 112.75 208.449C112.61 206.039 112.962 203.626 113.786 201.353C114.61 199.081 115.888 196.995 117.546 195.22C119.939 192.684 122.926 190.936 122.659 187.16C122.161 180.131 113.878 173.719 107.739 171.548Z" fill="#783898"/>
<g opacity="0.51">
<path d="M95.512 175.212C95.5903 175.243 95.6547 175.301 95.6936 175.376C95.7325 175.45 95.7432 175.536 95.724 175.617C95.7047 175.698 95.6568 175.77 95.5886 175.82C95.5205 175.87 95.4366 175.894 95.3521 175.888C94.1988 175.687 93.0524 175.626 91.9128 175.942C86.8156 177.353 85.587 184.283 85.7468 189.73C85.7455 189.817 85.7117 189.9 85.6518 189.964C85.592 190.028 85.5104 190.067 85.4228 190.075C85.3351 190.083 85.2477 190.059 85.1772 190.007C85.1068 189.954 85.0583 189.879 85.0412 189.793C84.3561 185.305 85.1462 180.176 88.0991 176.956C90.4307 174.422 92.9131 174.531 95.512 175.212Z" fill="white"/>
</g>
<path d="M15.8403 199.17C9.29517 187.582 11.8484 173.694 19.2658 162.941C27.8891 150.415 43.0917 142.123 58.1824 146.612C68.0914 149.558 73.2024 160.283 74.584 169.668C76.274 181.141 73.1978 192.012 65.5474 201.036C59.9843 207.601 52.0164 212.338 43.3955 213.276C33.3814 214.365 20.7548 207.874 15.8403 199.17Z" fill="#9FB5E6"/>
<path d="M18.9921 196.938C13.1664 186.623 15.4364 174.269 22.0295 164.699C29.7027 153.551 43.2337 146.169 56.6641 150.164C65.4838 152.789 70.0307 162.338 71.2616 170.68C72.7665 180.89 70.0261 190.564 63.2207 198.597C58.2673 204.44 51.1764 208.656 43.5054 209.49C34.6058 210.46 23.3654 204.682 18.9921 196.938Z" fill="#B5CCEE"/>
<path d="M21.0564 184.189C21.5839 192.348 26.8113 200.374 34.6376 203.041C42.4204 205.694 51.4548 202.644 57.1206 196.746C62.7865 190.849 65.399 182.582 65.7713 174.463C65.89 171.891 65.7713 169.215 64.6294 166.904C63.4876 164.593 61.0463 162.74 58.4474 162.95C56.6205 163.096 55.0219 164.192 53.3845 165.015C51.199 166.098 48.8152 166.735 46.375 166.89C43.9347 167.045 41.4879 166.714 39.1799 165.917C35.873 164.753 33.0595 162.74 29.6568 164.478C23.3172 167.716 20.6407 177.766 21.0564 184.189Z" fill="#783898"/>
<g opacity="0.51">
<path d="M38.1501 167.659C38.2382 167.692 38.3096 167.758 38.3486 167.842C38.3875 167.927 38.3909 168.023 38.3579 168.11C38.3249 168.197 38.2582 168.268 38.1725 168.306C38.0869 168.345 37.9893 168.348 37.9012 168.316C36.7867 167.968 35.6563 167.759 34.4756 167.925C29.2231 168.665 27.0992 175.365 26.5374 180.798C26.5245 180.884 26.4798 180.963 26.412 181.018C26.3442 181.073 26.258 181.102 26.1701 181.098C26.0822 181.095 25.9987 181.059 25.9358 180.998C25.8729 180.937 25.835 180.856 25.8295 180.769C25.7473 176.231 27.1997 171.249 30.5636 168.439C33.2196 166.228 35.6654 166.654 38.1501 167.659Z" fill="white"/>
</g>
<path d="M221.024 258.908C214.961 264.188 210.976 271.943 210.533 282.268C209.866 298.072 223.657 312.778 239.287 314.904C252.745 316.734 266.847 309.865 274.107 298.53C282.218 285.862 277.902 268.951 267.856 258.335C256.317 246.136 233.258 248.251 221.024 258.908Z" fill="#F0A6B3"/>
<path d="M222.602 260.506C216.948 265.43 213.226 272.662 212.819 282.291C212.196 297.029 225.06 310.745 239.634 312.726C252.183 314.435 265.335 308.028 272.106 297.457C279.67 285.644 275.644 269.874 266.278 259.972C255.515 248.594 234.012 250.569 222.602 260.506Z" fill="#FED1E6"/>
<path d="M243.158 264.048C240.027 263.014 236.078 263.446 234.135 266.077C231.534 269.592 233.402 274.716 232.641 278.671C232.039 281.8 229.901 284.422 227.617 286.672C226.654 287.623 225.594 288.622 225.334 289.943C224.728 292.919 227.681 297.214 230.657 297.809C233.192 298.316 235.615 297.263 237.855 296.215C240.128 295.113 242.67 294.669 245.188 294.934C248.792 295.273 251.847 297.784 254.131 300.388C256.643 303.253 250.669 304.178 248.799 304.773C244.279 306.29 239.116 307.088 234.651 304.958C231.191 303.307 229.22 299.488 226.325 297.031C224.527 295.502 222.474 294.213 220.94 292.405C219.57 290.782 218.492 288.493 217.688 286.528C215.468 281.117 215.989 274.128 220.51 270.361C223.708 267.692 227.818 266.528 231.433 264.571C235.359 262.443 239.244 260.139 243.357 258.324C247.31 256.579 251.793 256.451 255.689 258.572C258.292 259.988 260.681 262.612 261.734 265.363C261.928 265.874 262.549 267.311 262.275 267.831C262.001 268.352 260.473 268.602 259.913 268.774C258.02 269.358 256.031 269.79 254.047 269.545C249.934 269.04 247.029 265.329 243.158 264.048Z" fill="#783898"/>
<path d="M246.221 276.13C246.453 276.131 246.681 276.063 246.874 275.936C247.067 275.809 247.218 275.628 247.307 275.416C247.396 275.204 247.42 274.971 247.375 274.746C247.329 274.521 247.217 274.314 247.053 274.152C246.889 273.99 246.68 273.879 246.452 273.835C246.224 273.79 245.987 273.813 245.773 273.901C245.558 273.989 245.375 274.138 245.246 274.329C245.117 274.52 245.049 274.744 245.049 274.974C245.053 275.279 245.178 275.571 245.397 275.787C245.616 276.003 245.911 276.126 246.221 276.13Z" fill="#F0A6B3"/>
<path d="M237.369 287.49C237.601 287.49 237.828 287.422 238.021 287.295C238.215 287.168 238.365 286.986 238.454 286.775C238.543 286.563 238.566 286.33 238.52 286.105C238.475 285.88 238.363 285.673 238.198 285.511C238.034 285.349 237.825 285.239 237.597 285.195C237.369 285.15 237.133 285.174 236.918 285.262C236.704 285.35 236.521 285.499 236.392 285.689C236.263 285.88 236.195 286.105 236.195 286.334C236.199 286.64 236.325 286.932 236.544 287.148C236.763 287.364 237.059 287.487 237.369 287.49Z" fill="#F0A6B3"/>
<path d="M253.48 289.24C253.713 289.24 253.94 289.172 254.133 289.045C254.326 288.917 254.476 288.736 254.565 288.525C254.654 288.313 254.677 288.08 254.632 287.855C254.586 287.63 254.475 287.424 254.31 287.262C254.146 287.1 253.937 286.989 253.709 286.945C253.482 286.9 253.246 286.923 253.031 287.011C252.817 287.098 252.633 287.247 252.504 287.437C252.375 287.628 252.307 287.852 252.307 288.081C252.31 288.387 252.435 288.68 252.654 288.897C252.874 289.113 253.17 289.236 253.48 289.24Z" fill="#F0A6B3"/>
<path d="M264.102 279.627C264.334 279.627 264.561 279.559 264.754 279.431C264.947 279.304 265.098 279.123 265.187 278.911C265.275 278.7 265.299 278.467 265.253 278.242C265.208 278.017 265.096 277.811 264.932 277.648C264.768 277.486 264.559 277.376 264.331 277.331C264.103 277.287 263.867 277.31 263.653 277.397C263.438 277.485 263.255 277.634 263.126 277.824C262.997 278.015 262.928 278.239 262.928 278.468C262.931 278.774 263.056 279.067 263.275 279.284C263.495 279.501 263.792 279.624 264.102 279.627Z" fill="#F0A6B3"/>
<path d="M267.642 267.568C267.874 267.569 268.101 267.501 268.295 267.374C268.488 267.247 268.639 267.066 268.728 266.854C268.817 266.643 268.841 266.41 268.796 266.185C268.751 265.96 268.639 265.753 268.475 265.591C268.311 265.428 268.102 265.318 267.874 265.273C267.646 265.228 267.41 265.251 267.195 265.338C266.981 265.426 266.797 265.575 266.668 265.765C266.539 265.956 266.47 266.18 266.47 266.409C266.474 266.715 266.598 267.007 266.817 267.224C267.036 267.44 267.332 267.564 267.642 267.568Z" fill="#F0A6B3"/>
<path d="M272.776 285.22C273.008 285.22 273.235 285.153 273.428 285.026C273.622 284.899 273.772 284.718 273.862 284.506C273.951 284.294 273.974 284.061 273.929 283.836C273.884 283.612 273.773 283.405 273.609 283.243C273.445 283.08 273.235 282.97 273.008 282.925C272.78 282.88 272.544 282.903 272.329 282.99C272.115 283.078 271.931 283.227 271.802 283.417C271.673 283.608 271.604 283.832 271.604 284.061C271.608 284.367 271.732 284.659 271.951 284.876C272.17 285.092 272.466 285.216 272.776 285.22Z" fill="#F0A6B3"/>
<path d="M267.112 297.802C267.344 297.802 267.571 297.734 267.764 297.607C267.957 297.479 268.108 297.298 268.196 297.086C268.285 296.874 268.308 296.641 268.263 296.416C268.217 296.191 268.105 295.985 267.941 295.823C267.777 295.661 267.567 295.551 267.339 295.506C267.112 295.462 266.875 295.485 266.661 295.573C266.447 295.661 266.263 295.81 266.135 296.001C266.006 296.192 265.938 296.416 265.938 296.645C265.942 296.951 266.066 297.244 266.286 297.46C266.505 297.676 266.802 297.799 267.112 297.802Z" fill="#F0A6B3"/>
<path d="M255.78 307.938C256.012 307.939 256.24 307.871 256.433 307.744C256.626 307.617 256.777 307.436 256.866 307.224C256.955 307.012 256.979 306.779 256.934 306.554C256.888 306.329 256.777 306.122 256.612 305.96C256.448 305.798 256.239 305.687 256.011 305.643C255.783 305.598 255.547 305.621 255.332 305.709C255.117 305.797 254.934 305.946 254.805 306.137C254.676 306.328 254.608 306.552 254.608 306.782C254.613 307.087 254.737 307.379 254.956 307.595C255.175 307.811 255.47 307.934 255.78 307.938Z" fill="#F0A6B3"/>
<path d="M234.887 309.162C235.119 309.162 235.346 309.094 235.539 308.967C235.732 308.84 235.883 308.659 235.972 308.447C236.061 308.235 236.084 308.002 236.038 307.777C235.993 307.553 235.881 307.346 235.717 307.184C235.553 307.022 235.344 306.912 235.116 306.867C234.888 306.822 234.652 306.845 234.438 306.933C234.223 307.021 234.04 307.169 233.911 307.36C233.782 307.55 233.713 307.774 233.713 308.004C233.716 308.31 233.841 308.603 234.06 308.82C234.28 309.036 234.577 309.159 234.887 309.162Z" fill="#F0A6B3"/>
<path d="M224.445 299.2C224.678 299.2 224.905 299.132 225.098 299.004C225.291 298.877 225.441 298.696 225.53 298.484C225.619 298.272 225.642 298.039 225.596 297.814C225.551 297.589 225.439 297.383 225.275 297.221C225.11 297.059 224.901 296.949 224.673 296.904C224.445 296.86 224.209 296.883 223.995 296.971C223.78 297.059 223.597 297.208 223.468 297.399C223.34 297.59 223.271 297.814 223.271 298.043C223.276 298.349 223.401 298.641 223.62 298.857C223.839 299.074 224.136 299.196 224.445 299.2Z" fill="#F0A6B3"/>
<path d="M226.394 264.071C226.626 264.071 226.853 264.003 227.046 263.876C227.24 263.748 227.39 263.567 227.479 263.355C227.567 263.143 227.591 262.91 227.545 262.685C227.5 262.46 227.388 262.254 227.223 262.092C227.059 261.93 226.85 261.82 226.622 261.775C226.394 261.731 226.158 261.754 225.943 261.842C225.729 261.93 225.546 262.079 225.417 262.27C225.288 262.461 225.22 262.685 225.22 262.914C225.224 263.22 225.349 263.513 225.568 263.729C225.788 263.945 226.084 264.068 226.394 264.071Z" fill="#F0A6B3"/>
<path d="M237.547 257.612C237.779 257.612 238.006 257.544 238.199 257.417C238.392 257.289 238.543 257.108 238.632 256.896C238.72 256.684 238.743 256.451 238.698 256.226C238.652 256.001 238.54 255.795 238.376 255.633C238.212 255.471 238.002 255.361 237.774 255.316C237.547 255.272 237.311 255.295 237.096 255.383C236.882 255.471 236.698 255.62 236.57 255.811C236.441 256.002 236.373 256.226 236.373 256.455C236.377 256.762 236.502 257.054 236.721 257.27C236.94 257.486 237.237 257.609 237.547 257.612Z" fill="#F0A6B3"/>
<path d="M237.901 268.792C238.133 268.792 238.36 268.724 238.553 268.596C238.747 268.469 238.897 268.288 238.986 268.076C239.075 267.865 239.098 267.632 239.053 267.407C239.007 267.182 238.896 266.976 238.731 266.814C238.567 266.651 238.358 266.541 238.13 266.496C237.903 266.452 237.667 266.475 237.452 266.562C237.238 266.65 237.054 266.799 236.925 266.989C236.796 267.18 236.728 267.404 236.728 267.633C236.731 267.939 236.856 268.232 237.075 268.448C237.295 268.665 237.591 268.788 237.901 268.792Z" fill="#F0A6B3"/>
<g opacity="0.51">
<path d="M219.652 282.028C219.134 278.461 221.116 274.428 224.281 272.636C224.354 272.595 224.439 272.581 224.521 272.597C224.603 272.613 224.677 272.657 224.729 272.722C224.781 272.787 224.807 272.868 224.803 272.951C224.799 273.034 224.766 273.112 224.708 273.172C222.342 275.595 220.815 278.695 220.344 282.028C220.332 282.11 220.291 282.185 220.227 282.24C220.164 282.294 220.082 282.324 219.998 282.324C219.914 282.324 219.832 282.294 219.769 282.24C219.705 282.185 219.664 282.11 219.652 282.028Z" fill="white"/>
</g>
<g opacity="0.51">
<path d="M243.889 260.171C245.289 258.719 247.771 258.122 249.687 258.782C249.764 258.804 249.831 258.851 249.878 258.915C249.924 258.979 249.947 259.057 249.942 259.136C249.938 259.214 249.906 259.289 249.853 259.348C249.799 259.407 249.727 259.446 249.649 259.458C247.822 259.828 246.029 260.254 244.232 260.755C244.156 260.779 244.073 260.777 243.998 260.749C243.924 260.721 243.861 260.668 243.821 260.6C243.781 260.531 243.766 260.451 243.778 260.373C243.791 260.295 243.83 260.224 243.889 260.171Z" fill="white"/>
</g>
<g opacity="0.51">
<path d="M234.506 299.279C235.905 297.827 238.388 297.232 240.304 297.892C240.377 297.916 240.44 297.963 240.483 298.025C240.526 298.088 240.548 298.163 240.544 298.239C240.539 298.314 240.51 298.387 240.46 298.444C240.41 298.502 240.342 298.542 240.267 298.557C238.44 298.929 236.648 299.356 234.848 299.854C234.774 299.874 234.695 299.87 234.623 299.842C234.552 299.813 234.492 299.762 234.453 299.697C234.413 299.631 234.397 299.554 234.407 299.479C234.417 299.403 234.451 299.333 234.506 299.279Z" fill="white"/>
</g>
<path d="M112.023 92.586C106.52 97.3789 102.889 104.422 102.498 113.798C101.893 128.148 114.417 141.503 128.608 143.433C140.828 145.094 153.635 138.856 160.226 128.554C167.591 117.056 163.672 101.696 154.551 92.0562C144.064 80.9868 123.127 82.9076 112.023 92.586Z" fill="#F0A6B3"/>
<path d="M113.451 94.0355C108.317 98.5061 104.937 105.082 104.567 113.816C104.003 127.199 115.682 139.652 128.916 141.453C140.312 143.002 152.253 137.186 158.401 127.586C165.27 116.86 161.616 102.539 153.109 93.544C143.335 83.2209 123.812 85.0109 113.451 94.0355Z" fill="#FED1E6"/>
<path d="M113.124 122.106C110.194 114.725 110.647 105.736 115.653 99.5389C118.994 95.4043 123.961 92.8657 129.01 91.0937C130.901 90.4309 132.86 89.8515 134.87 89.8448C136.88 89.838 138.971 90.467 140.342 91.9099C140.866 92.4339 141.232 93.0909 141.401 93.8081C141.63 94.8902 141.23 96.0107 140.684 96.9756C138.743 100.402 134.975 102.445 131.161 103.574C127.347 104.704 123.351 105.103 119.539 106.223C117.18 106.915 114.655 108.14 113.887 110.448C113.232 112.414 114.116 114.635 115.616 116.084C117.116 117.534 119.108 118.355 121.097 119.015C123.086 119.676 125.123 120.257 126.913 121.333C130.339 123.387 132.424 127.039 133.945 130.695C136.711 137.346 128.236 136.722 124.39 134.587C119.185 131.712 115.321 127.643 113.124 122.106Z" fill="#783898"/>
<path d="M134.897 108.223C135.108 108.223 135.315 108.162 135.49 108.047C135.666 107.931 135.803 107.767 135.884 107.574C135.965 107.382 135.987 107.17 135.946 106.966C135.905 106.762 135.804 106.574 135.654 106.426C135.505 106.279 135.315 106.178 135.108 106.138C134.901 106.097 134.687 106.117 134.492 106.197C134.297 106.277 134.13 106.412 134.013 106.585C133.896 106.758 133.833 106.962 133.833 107.17C133.837 107.448 133.95 107.713 134.148 107.91C134.347 108.106 134.616 108.219 134.897 108.223Z" fill="#F0A6B3"/>
<path d="M126.868 118.537C127.078 118.536 127.284 118.474 127.458 118.359C127.633 118.243 127.769 118.079 127.849 117.887C127.929 117.695 127.95 117.483 127.909 117.28C127.868 117.076 127.766 116.889 127.617 116.742C127.468 116.596 127.279 116.496 127.072 116.456C126.866 116.415 126.652 116.436 126.458 116.516C126.263 116.595 126.097 116.73 125.98 116.903C125.864 117.075 125.801 117.278 125.801 117.486C125.804 117.764 125.918 118.03 126.117 118.227C126.316 118.423 126.586 118.534 126.868 118.537Z" fill="#F0A6B3"/>
<path d="M141.483 120.124C141.694 120.124 141.901 120.063 142.077 119.947C142.252 119.832 142.389 119.667 142.47 119.475C142.551 119.282 142.573 119.07 142.532 118.866C142.49 118.662 142.389 118.474 142.24 118.326C142.09 118.179 141.9 118.079 141.693 118.038C141.486 117.998 141.271 118.019 141.076 118.099C140.881 118.179 140.715 118.314 140.598 118.487C140.481 118.661 140.418 118.865 140.419 119.073C140.422 119.351 140.536 119.616 140.735 119.812C140.933 120.008 141.202 120.12 141.483 120.124Z" fill="#F0A6B3"/>
<path d="M151.134 111.397C151.346 111.397 151.552 111.336 151.728 111.22C151.903 111.105 152.04 110.941 152.121 110.748C152.202 110.556 152.224 110.344 152.183 110.14C152.142 109.935 152.041 109.748 151.892 109.6C151.743 109.453 151.553 109.352 151.346 109.311C151.139 109.271 150.924 109.291 150.729 109.371C150.534 109.451 150.367 109.585 150.25 109.759C150.133 109.932 150.07 110.136 150.07 110.344C150.073 110.622 150.185 110.888 150.384 111.085C150.583 111.282 150.853 111.394 151.134 111.397Z" fill="#F0A6B3"/>
<path d="M154.35 100.447C154.561 100.447 154.767 100.386 154.942 100.27C155.118 100.154 155.254 99.9899 155.335 99.7975C155.416 99.6051 155.437 99.3935 155.396 99.1892C155.355 98.985 155.253 98.7974 155.104 98.6502C154.955 98.5029 154.765 98.4027 154.558 98.362C154.351 98.3214 154.136 98.3423 153.942 98.4219C153.747 98.5016 153.58 98.6366 153.463 98.8097C153.346 98.9828 153.283 99.1864 153.283 99.3946C153.286 99.6729 153.4 99.939 153.599 100.136C153.798 100.333 154.068 100.445 154.35 100.447Z" fill="#F0A6B3"/>
<path d="M159.01 116.483C159.222 116.484 159.428 116.422 159.604 116.307C159.78 116.191 159.917 116.027 159.998 115.834C160.079 115.642 160.1 115.43 160.059 115.225C160.018 115.021 159.916 114.833 159.767 114.686C159.618 114.538 159.427 114.438 159.22 114.398C159.013 114.357 158.799 114.378 158.604 114.458C158.409 114.538 158.242 114.673 158.125 114.847C158.008 115.02 157.946 115.224 157.946 115.433C157.949 115.71 158.062 115.976 158.261 116.173C158.46 116.369 158.729 116.481 159.01 116.483Z" fill="#F0A6B3"/>
<path d="M153.867 127.899C154.078 127.899 154.283 127.837 154.458 127.721C154.633 127.606 154.769 127.441 154.849 127.249C154.929 127.057 154.95 126.846 154.908 126.643C154.867 126.439 154.766 126.252 154.617 126.105C154.468 125.959 154.278 125.859 154.072 125.818C153.865 125.778 153.652 125.799 153.457 125.879C153.263 125.958 153.097 126.093 152.98 126.265C152.863 126.438 152.801 126.641 152.801 126.849C152.804 127.127 152.918 127.392 153.117 127.589C153.316 127.785 153.586 127.897 153.867 127.899Z" fill="#F0A6B3"/>
<path d="M143.577 137.104C143.788 137.105 143.995 137.043 144.171 136.928C144.347 136.812 144.484 136.648 144.565 136.455C144.646 136.263 144.667 136.051 144.626 135.847C144.585 135.642 144.483 135.454 144.334 135.307C144.185 135.16 143.994 135.059 143.787 135.019C143.58 134.978 143.365 134.999 143.17 135.079C142.976 135.159 142.809 135.294 142.692 135.468C142.575 135.641 142.513 135.845 142.513 136.054C142.517 136.331 142.63 136.596 142.829 136.793C143.028 136.989 143.296 137.101 143.577 137.104Z" fill="#F0A6B3"/>
<path d="M124.609 138.216C124.82 138.216 125.027 138.155 125.203 138.04C125.378 137.924 125.515 137.76 125.596 137.567C125.677 137.375 125.699 137.163 125.658 136.958C125.616 136.754 125.515 136.566 125.366 136.419C125.216 136.271 125.026 136.171 124.819 136.13C124.612 136.09 124.397 136.111 124.202 136.191C124.007 136.271 123.841 136.406 123.724 136.58C123.607 136.753 123.544 136.957 123.545 137.165C123.548 137.443 123.661 137.709 123.86 137.905C124.059 138.101 124.328 138.213 124.609 138.216Z" fill="#F0A6B3"/>
<path d="M115.125 129.171C115.336 129.172 115.542 129.11 115.718 128.995C115.894 128.879 116.031 128.715 116.112 128.523C116.193 128.33 116.214 128.119 116.173 127.914C116.132 127.71 116.031 127.522 115.882 127.375C115.733 127.227 115.543 127.127 115.336 127.086C115.129 127.045 114.914 127.066 114.719 127.145C114.524 127.225 114.358 127.36 114.24 127.533C114.123 127.706 114.061 127.91 114.061 128.118C114.063 128.396 114.176 128.662 114.375 128.859C114.574 129.056 114.843 129.168 115.125 129.171Z" fill="#F0A6B3"/>
<path d="M116.892 97.2726C117.103 97.2731 117.31 97.2117 117.485 97.0963C117.661 96.9809 117.798 96.8166 117.879 96.6243C117.96 96.4319 117.982 96.2202 117.941 96.0158C117.9 95.8114 117.799 95.6236 117.65 95.4762C117.501 95.3287 117.311 95.2282 117.104 95.1874C116.897 95.1466 116.682 95.1673 116.487 95.2469C116.292 95.3265 116.125 95.4615 116.008 95.6347C115.891 95.8079 115.828 96.0115 115.828 96.2198C115.832 96.4976 115.945 96.763 116.144 96.9596C116.342 97.1563 116.611 97.2686 116.892 97.2726Z" fill="#F0A6B3"/>
<path d="M127.02 91.4001C127.231 91.4005 127.438 91.3391 127.614 91.2236C127.789 91.1081 127.926 90.9437 128.007 90.7512C128.088 90.5587 128.11 90.3469 128.069 90.1424C128.028 89.938 127.926 89.7502 127.777 89.6028C127.627 89.4554 127.437 89.3551 127.23 89.3146C127.023 89.274 126.808 89.295 126.613 89.375C126.418 89.455 126.252 89.5903 126.135 89.7638C126.018 89.9372 125.956 90.1411 125.956 90.3495C125.958 90.6274 126.071 90.8933 126.27 91.0898C126.469 91.2863 126.739 91.3977 127.02 91.4001Z" fill="#F0A6B3"/>
<path d="M143.521 102.58C143.731 102.579 143.937 102.517 144.111 102.402C144.286 102.286 144.422 102.122 144.502 101.93C144.582 101.738 144.603 101.526 144.562 101.323C144.52 101.119 144.419 100.932 144.27 100.785C144.121 100.639 143.931 100.539 143.725 100.499C143.519 100.458 143.305 100.479 143.111 100.559C142.916 100.638 142.75 100.773 142.633 100.946C142.516 101.118 142.454 101.321 142.454 101.529C142.457 101.807 142.57 102.073 142.77 102.27C142.969 102.466 143.239 102.577 143.521 102.58Z" fill="#F0A6B3"/>
<g opacity="0.51">
<path d="M113.883 108.049C113.412 104.81 115.214 101.148 118.087 99.5184C118.153 99.4796 118.232 99.4659 118.307 99.48C118.383 99.4941 118.451 99.5348 118.499 99.5947C118.546 99.6546 118.57 99.7295 118.566 99.8055C118.561 99.8815 118.529 99.9533 118.475 100.008C116.325 102.206 114.938 105.022 114.513 108.049C114.504 108.125 114.466 108.195 114.408 108.246C114.35 108.297 114.275 108.325 114.198 108.325C114.12 108.325 114.045 108.297 113.987 108.246C113.929 108.195 113.892 108.125 113.883 108.049Z" fill="white"/>
</g>
<g opacity="0.51">
<path d="M126.972 93.7288C127.652 93.0677 128.501 92.6013 129.428 92.3794C130.355 92.1574 131.326 92.1882 132.236 92.4685C132.303 92.4902 132.36 92.5328 132.399 92.5897C132.438 92.6467 132.458 92.7148 132.454 92.7836C132.45 92.8524 132.423 92.918 132.378 92.9703C132.332 93.0225 132.27 93.0585 132.202 93.0727C130.54 93.4109 128.916 93.7964 127.283 94.2496C127.216 94.2675 127.145 94.2631 127.08 94.2372C127.016 94.2113 126.962 94.1652 126.927 94.106C126.891 94.0469 126.877 93.9779 126.885 93.9098C126.893 93.8416 126.924 93.778 126.972 93.7288Z" fill="white"/>
</g>
<g opacity="0.51">
<path d="M120.197 120.971C121.946 120.399 124.193 120.971 125.449 122.304C125.497 122.354 125.527 122.418 125.535 122.486C125.542 122.555 125.526 122.624 125.49 122.683C125.454 122.741 125.399 122.787 125.333 122.811C125.268 122.836 125.197 122.839 125.13 122.82C123.504 122.346 121.885 121.934 120.227 121.578C120.159 121.562 120.098 121.525 120.054 121.472C120.009 121.42 119.983 121.354 119.98 121.285C119.977 121.217 119.996 121.149 120.035 121.092C120.074 121.036 120.131 120.993 120.197 120.971Z" fill="white"/>
</g>
<path d="M238.84 50.7836C232.779 56.0636 228.791 63.8189 228.348 74.1443C227.682 89.948 241.475 104.654 257.103 106.78C270.56 108.61 284.662 101.741 291.922 90.4057C300.034 77.7379 295.718 60.8272 285.674 50.211C274.132 38.0121 251.074 40.1268 238.84 50.7836Z" fill="#F0A6B3"/>
<path d="M240.418 52.382C234.766 57.3057 231.041 64.538 230.634 74.1668C230.013 88.9041 242.875 102.62 257.45 104.602C270.01 106.309 283.153 99.9014 289.922 89.3302C297.485 77.5192 293.461 61.747 284.094 51.8477C273.331 40.4717 251.827 42.4444 240.418 52.382Z" fill="#FED1E6"/>
<path d="M260.974 55.9244C257.845 54.8896 253.894 55.3225 251.953 57.9534C249.352 61.4704 251.22 66.5947 250.457 70.5468C249.855 73.676 247.728 76.3002 245.445 78.5501C244.479 79.5015 243.421 80.5002 243.161 81.8191C242.556 84.7972 245.511 89.0897 248.484 89.6848C251.019 90.1921 253.445 89.1415 255.685 88.0932C257.957 86.9907 260.5 86.5467 263.018 86.8127C266.619 87.1508 269.677 89.6623 271.959 92.2639C274.471 95.1294 268.496 96.0559 266.626 96.6489C262.107 98.1684 256.943 98.9664 252.481 96.836C249.019 95.1835 247.05 91.3667 244.154 88.9093C242.355 87.3808 240.302 86.0912 238.769 84.2832C237.399 82.6577 236.321 80.3717 235.515 78.4058C233.295 72.9951 233.818 66.0063 238.34 62.2369C241.537 59.5699 245.648 58.4043 249.261 56.4497C253.186 54.3215 257.071 52.0174 261.184 50.2026C265.137 48.4554 269.62 48.3291 273.516 50.4506C276.122 51.8664 278.51 54.4906 279.561 57.241C279.757 57.7528 280.379 59.1888 280.102 59.7074C279.826 60.2259 278.3 60.4784 277.743 60.652C275.85 61.2359 273.861 61.6688 271.874 61.423C267.752 60.9135 264.845 57.2049 260.974 55.9244Z" fill="#783898"/>
<path d="M264.039 68.0119C264.271 68.0119 264.498 67.9439 264.691 67.8165C264.884 67.689 265.034 67.5079 265.123 67.296C265.212 67.0842 265.235 66.8511 265.19 66.6262C265.144 66.4014 265.032 66.1949 264.868 66.0329C264.703 65.871 264.494 65.7608 264.266 65.7163C264.038 65.6719 263.802 65.6951 263.588 65.7832C263.373 65.8712 263.19 66.0201 263.061 66.211C262.933 66.4018 262.864 66.6261 262.865 66.8554C262.868 67.1614 262.993 67.4539 263.213 67.6701C263.432 67.8863 263.729 68.009 264.039 68.0119Z" fill="#F0A6B3"/>
<path d="M255.186 79.3654C255.419 79.3654 255.646 79.2974 255.839 79.17C256.032 79.0425 256.182 78.8614 256.271 78.6496C256.36 78.4377 256.383 78.2046 256.338 77.9797C256.292 77.7549 256.18 77.5484 256.016 77.3865C255.851 77.2245 255.642 77.1143 255.414 77.0698C255.186 77.0254 254.95 77.0487 254.736 77.1367C254.521 77.2248 254.338 77.3736 254.209 77.5645C254.081 77.7554 254.012 77.9796 254.013 78.2089C254.016 78.5149 254.141 78.8074 254.361 79.0236C254.58 79.2398 254.876 79.3625 255.186 79.3654Z" fill="#F0A6B3"/>
<path d="M271.296 81.113C271.528 81.113 271.755 81.045 271.948 80.9175C272.141 80.7901 272.292 80.609 272.381 80.3971C272.469 80.1853 272.492 79.9521 272.447 79.7273C272.402 79.5025 272.289 79.296 272.125 79.134C271.961 78.972 271.751 78.8619 271.523 78.8174C271.296 78.7729 271.06 78.7962 270.845 78.8843C270.631 78.9723 270.447 79.1212 270.319 79.3121C270.19 79.5029 270.122 79.7272 270.122 79.9565C270.126 80.2623 270.251 80.5544 270.471 80.7705C270.69 80.9866 270.986 81.1095 271.296 81.113Z" fill="#F0A6B3"/>
<path d="M281.917 71.5021C282.149 71.5026 282.377 71.435 282.57 71.3079C282.763 71.1809 282.914 71.0001 283.003 70.7884C283.092 70.5767 283.116 70.3436 283.071 70.1187C283.026 69.8937 282.914 69.6871 282.75 69.5248C282.586 69.3625 282.377 69.2519 282.149 69.207C281.922 69.1621 281.685 69.1849 281.471 69.2726C281.256 69.3602 281.073 69.5087 280.944 69.6993C280.815 69.8899 280.746 70.1141 280.746 70.3434C280.749 70.6492 280.874 70.9416 281.093 71.1581C281.311 71.3746 281.607 71.498 281.917 71.5021Z" fill="#F0A6B3"/>
<path d="M285.459 59.445C285.692 59.445 285.919 59.377 286.112 59.2497C286.305 59.1224 286.455 58.9414 286.544 58.7297C286.633 58.5179 286.656 58.2849 286.611 58.0602C286.565 57.8354 286.454 57.6289 286.289 57.4668C286.125 57.3048 285.916 57.1944 285.688 57.1497C285.461 57.105 285.225 57.1279 285.01 57.2156C284.796 57.3034 284.612 57.4519 284.483 57.6424C284.354 57.833 284.286 58.057 284.286 58.2862C284.289 58.5925 284.414 58.8852 284.633 59.1017C284.853 59.3183 285.149 59.4415 285.459 59.445Z" fill="#F0A6B3"/>
<path d="M290.593 77.093C290.825 77.093 291.053 77.0249 291.246 76.8975C291.439 76.7701 291.589 76.589 291.678 76.3771C291.767 76.1652 291.79 75.9321 291.744 75.7073C291.699 75.4824 291.587 75.276 291.422 75.114C291.258 74.952 291.049 74.8418 290.821 74.7974C290.593 74.7529 290.357 74.7762 290.142 74.8643C289.928 74.9523 289.745 75.1012 289.616 75.292C289.487 75.4829 289.419 75.7072 289.419 75.9364C289.423 76.2425 289.548 76.5349 289.767 76.7511C289.987 76.9673 290.283 77.09 290.593 77.093Z" fill="#F0A6B3"/>
<path d="M284.927 89.6774C285.16 89.6783 285.388 89.6109 285.581 89.4837C285.775 89.3565 285.926 89.1753 286.016 88.9631C286.105 88.7509 286.128 88.5173 286.083 88.292C286.037 88.0667 285.925 87.8598 285.76 87.6977C285.595 87.5355 285.385 87.4254 285.157 87.3814C284.928 87.3373 284.692 87.3613 284.477 87.4502C284.263 87.5392 284.08 87.6891 283.952 87.881C283.823 88.0728 283.756 88.2979 283.758 88.5277C283.761 88.8335 283.886 89.1259 284.105 89.3424C284.324 89.5589 284.62 89.6824 284.929 89.6865L284.927 89.6774Z" fill="#F0A6B3"/>
<path d="M273.598 99.8137C273.83 99.8137 274.057 99.7457 274.25 99.6182C274.443 99.4908 274.594 99.3097 274.682 99.0978C274.771 98.8859 274.794 98.6528 274.749 98.428C274.703 98.2031 274.591 97.9967 274.427 97.8347C274.262 97.6727 274.053 97.5625 273.825 97.5181C273.597 97.4736 273.361 97.4969 273.147 97.5849C272.932 97.673 272.749 97.8219 272.621 98.0127C272.492 98.2036 272.423 98.4279 272.424 98.6571C272.427 98.9632 272.552 99.2556 272.772 99.4718C272.991 99.688 273.288 99.8107 273.598 99.8137Z" fill="#F0A6B3"/>
<path d="M252.699 101.037C252.932 101.038 253.159 100.97 253.352 100.843C253.545 100.716 253.696 100.535 253.785 100.324C253.875 100.112 253.898 99.8788 253.853 99.6538C253.808 99.4289 253.697 99.2222 253.532 99.0599C253.368 98.8976 253.159 98.7871 252.931 98.7422C252.704 98.6973 252.468 98.7201 252.253 98.8077C252.038 98.8954 251.855 99.0439 251.726 99.2345C251.597 99.4251 251.528 99.6492 251.528 99.8785C251.531 100.184 251.656 100.477 251.875 100.693C252.094 100.91 252.39 101.033 252.699 101.037Z" fill="#F0A6B3"/>
<path d="M242.261 91.0754C242.493 91.0758 242.72 91.0082 242.914 90.8812C243.107 90.7541 243.258 90.5733 243.347 90.3616C243.436 90.1499 243.46 89.9168 243.415 89.6919C243.37 89.467 243.258 89.2603 243.094 89.098C242.93 88.9357 242.721 88.8251 242.493 88.7802C242.265 88.7353 242.029 88.7582 241.814 88.8458C241.6 88.9334 241.416 89.082 241.287 89.2726C241.158 89.4632 241.089 89.6873 241.089 89.9166C241.093 90.2224 241.217 90.5148 241.436 90.7313C241.655 90.9478 241.951 91.0713 242.261 91.0754Z" fill="#F0A6B3"/>
<path d="M244.209 55.9465C244.441 55.9469 244.668 55.8793 244.862 55.7521C245.055 55.625 245.206 55.444 245.295 55.2322C245.384 55.0204 245.408 54.7872 245.362 54.5622C245.317 54.3372 245.205 54.1305 245.041 53.9683C244.877 53.8061 244.667 53.6957 244.439 53.6511C244.211 53.6064 243.975 53.6296 243.761 53.7176C243.546 53.8055 243.363 53.9544 243.234 54.1453C243.105 54.3362 243.037 54.5606 243.037 54.7899C243.041 55.0954 243.166 55.3872 243.385 55.6032C243.604 55.8192 243.899 55.9424 244.209 55.9465Z" fill="#F0A6B3"/>
<path d="M255.362 49.4807C255.594 49.4807 255.821 49.4127 256.014 49.2854C256.207 49.158 256.358 48.9771 256.447 48.7653C256.536 48.5536 256.559 48.3206 256.514 48.0958C256.468 47.871 256.356 47.6645 256.192 47.5025C256.028 47.3404 255.819 47.2301 255.591 47.1854C255.364 47.1406 255.128 47.1636 254.913 47.2513C254.699 47.339 254.515 47.4875 254.386 47.6781C254.257 47.8687 254.188 48.0927 254.188 48.3219C254.192 48.6281 254.317 48.9208 254.536 49.1374C254.756 49.3539 255.052 49.4771 255.362 49.4807Z" fill="#F0A6B3"/>
<path d="M255.716 60.6647C255.949 60.6652 256.176 60.5976 256.369 60.4704C256.563 60.3432 256.714 60.1623 256.803 59.9505C256.892 59.7386 256.915 59.5054 256.87 59.2804C256.825 59.0555 256.713 58.8488 256.549 58.6866C256.384 58.5244 256.175 58.414 255.947 58.3693C255.719 58.3247 255.483 58.3478 255.268 58.4358C255.054 58.5238 254.871 58.6727 254.742 58.8636C254.613 59.0545 254.544 59.2788 254.545 59.5082C254.549 59.8137 254.674 60.1055 254.893 60.3215C255.111 60.5375 255.407 60.6607 255.716 60.6647Z" fill="#F0A6B3"/>
<g opacity="0.51">
<path d="M237.467 73.9033C236.949 70.3367 238.933 66.3035 242.096 64.509C242.169 64.4689 242.255 64.4559 242.337 64.4722C242.418 64.4885 242.492 64.533 242.543 64.5979C242.595 64.6627 242.622 64.7436 242.619 64.8261C242.615 64.9085 242.582 64.9871 242.526 65.0478C240.159 67.4697 238.631 70.5701 238.162 73.9033C238.152 73.9874 238.111 74.065 238.047 74.1214C237.983 74.1777 237.9 74.2088 237.814 74.2088C237.729 74.2088 237.646 74.1777 237.582 74.1214C237.518 74.065 237.477 73.9874 237.467 73.9033Z" fill="white"/>
</g>
<g opacity="0.51">
<path d="M261.704 52.044C263.104 50.5921 265.587 49.997 267.503 50.6575C267.581 50.6769 267.651 50.7228 267.699 50.7872C267.747 50.8516 267.771 50.9306 267.767 51.0106C267.763 51.0906 267.73 51.1666 267.675 51.2256C267.62 51.2846 267.546 51.3229 267.466 51.3339C265.639 51.7058 263.846 52.1319 262.047 52.6302C261.97 52.6559 261.887 52.6546 261.811 52.6264C261.736 52.5983 261.672 52.5451 261.632 52.476C261.591 52.4068 261.576 52.3259 261.59 52.2472C261.603 52.1684 261.643 52.0966 261.704 52.044Z" fill="white"/>
</g>
<g opacity="0.51">
<path d="M252.321 91.1544C253.72 89.7025 256.203 89.1051 258.119 89.7679C258.198 89.7873 258.267 89.8331 258.315 89.8975C258.363 89.9619 258.387 90.0409 258.383 90.1209C258.379 90.2009 258.346 90.2769 258.292 90.3359C258.237 90.3949 258.163 90.4332 258.082 90.4442C256.255 90.8162 254.463 91.24 252.663 91.7405C252.586 91.7662 252.503 91.7649 252.428 91.7368C252.352 91.7087 252.288 91.6555 252.248 91.5863C252.208 91.5171 252.193 91.4363 252.206 91.3575C252.219 91.2788 252.26 91.207 252.321 91.1544Z" fill="white"/>
</g>
<path d="M104.651 138.502C106.935 135.414 106.156 131.477 102.16 130.228C99.1041 129.272 93.7419 130.857 92.2575 133.747C90.7731 136.638 92.7622 140.581 95.9114 141.62C99.0607 142.659 102.694 141.142 104.651 138.502Z" fill="#E8BB89"/>
<path d="M107.881 160.066C112.275 159.633 117.306 153.907 115.189 149.38C113.072 144.853 105.369 148.478 104.259 152.085C103.953 153.189 103.928 154.351 104.186 155.467C104.599 157.48 105.858 159.543 107.881 160.066Z" fill="#E8BB89"/>
<path d="M96.9877 156.412C97.5632 155.266 97.7094 153.99 97.1065 152.741C95.565 149.549 89.7986 149.506 87.218 151.096C85.4162 152.209 84.0209 154.252 84.3474 156.326C84.8042 159.369 88.6111 160.866 91.6827 160.343C93.6444 160.01 95.976 158.416 96.9877 156.412Z" fill="#E8BB89"/>
<g opacity="0.51">
<path d="M95.7636 132.756C96.3679 132.096 97.1424 131.611 98.0043 131.351C98.8662 131.092 99.7833 131.069 100.658 131.284C100.721 131.302 100.776 131.339 100.816 131.391C100.855 131.442 100.877 131.505 100.877 131.57C100.877 131.635 100.855 131.698 100.816 131.75C100.776 131.801 100.721 131.839 100.658 131.856C99.1093 132.265 97.5997 132.715 96.0902 133.232C96.0275 133.253 95.9595 133.253 95.8966 133.233C95.8337 133.212 95.7795 133.171 95.7423 133.117C95.7052 133.063 95.6871 132.998 95.6909 132.933C95.6948 132.868 95.7204 132.806 95.7636 132.756Z" fill="white"/>
</g>
<g opacity="0.51">
<path d="M86.5004 152.902C87.1047 152.242 87.8791 151.757 88.7411 151.497C89.603 151.238 90.52 151.215 91.3944 151.43C91.4575 151.448 91.5131 151.485 91.5527 151.537C91.5922 151.588 91.6136 151.651 91.6136 151.716C91.6136 151.781 91.5922 151.844 91.5527 151.896C91.5131 151.947 91.4575 151.985 91.3944 152.002C89.846 152.408 88.3365 152.861 86.827 153.378C86.7643 153.399 86.6963 153.399 86.6334 153.379C86.5706 153.358 86.5163 153.317 86.4791 153.263C86.4419 153.209 86.4239 153.144 86.4278 153.079C86.4316 153.014 86.4571 152.952 86.5004 152.902Z" fill="white"/>
</g>
<g opacity="0.51">
<path d="M107.419 150.75C108.023 150.09 108.798 149.604 109.66 149.345C110.522 149.086 111.439 149.063 112.313 149.278C112.377 149.295 112.433 149.332 112.473 149.384C112.513 149.435 112.535 149.498 112.535 149.563C112.535 149.628 112.513 149.691 112.473 149.743C112.433 149.794 112.377 149.832 112.313 149.848C110.765 150.256 109.255 150.71 107.746 151.224C107.683 151.246 107.615 151.248 107.551 151.227C107.488 151.207 107.433 151.167 107.396 151.113C107.358 151.058 107.34 150.993 107.344 150.927C107.349 150.862 107.375 150.799 107.419 150.75Z" fill="white"/>
</g>
<path d="M198.587 170.529C198.587 179.334 195.54 187.875 189.951 194.738C184.361 201.6 176.564 206.371 167.853 208.26C159.141 210.15 150.036 209.045 142.048 205.129C134.059 201.212 127.665 194.719 123.926 186.725C120.186 178.73 119.325 169.715 121.485 161.172C123.646 152.628 128.698 145.07 135.804 139.749C142.911 134.427 151.646 131.662 160.562 131.911C169.478 132.161 178.04 135.41 184.83 141.12C189.143 144.746 192.607 149.254 194.982 154.332C197.357 159.41 198.588 164.936 198.587 170.529Z" fill="#D10000"/>
<path d="M195.78 167.921C195.779 175.182 193.705 182.295 189.796 188.445C185.887 194.595 180.302 199.533 173.681 202.694C167.059 205.854 159.67 207.108 152.359 206.313C145.049 205.517 138.113 202.704 132.348 198.196C131.985 197.914 131.631 197.626 131.282 197.33C124.306 190.19 120.38 180.675 120.317 170.755C120.254 160.835 124.059 151.272 130.944 144.046C137.829 136.821 147.265 132.486 157.299 131.942C167.332 131.397 177.193 134.683 184.839 141.12C184.981 141.267 185.122 141.411 185.259 141.571C192.031 148.715 195.793 158.137 195.78 167.921Z" fill="#FF4133"/>
<path d="M195.781 167.92C195.779 175.181 193.705 182.294 189.796 188.444C185.888 194.594 180.302 199.533 173.681 202.693C167.06 205.853 159.67 207.108 152.36 206.312C145.049 205.517 138.114 202.704 132.349 198.195C125.609 191.072 121.847 181.697 121.816 171.949C121.785 162.202 125.487 152.804 132.181 145.638C138.875 138.473 148.065 134.071 157.909 133.314C167.753 132.558 177.523 135.503 185.26 141.559C192.035 148.706 195.797 158.132 195.781 167.92Z" fill="#FF010A"/>
<path d="M183.892 170.529C183.893 176.453 181.686 182.17 177.691 186.591C173.696 191.012 168.193 193.828 162.231 194.5C161.309 194.603 160.382 194.654 159.454 194.654C152.973 194.654 146.758 192.112 142.175 187.588C137.593 183.064 135.018 176.929 135.018 170.531C135.018 164.133 137.593 157.997 142.175 153.474C146.758 148.95 152.973 146.408 159.454 146.408C160.382 146.409 161.309 146.46 162.231 146.562C168.192 147.234 173.695 150.049 177.689 154.469C181.684 158.889 183.892 164.605 183.892 170.529Z" fill="#D10000"/>
<path d="M181.251 170.529C181.251 175.813 179.282 180.912 175.719 184.855C172.156 188.797 167.249 191.309 161.931 191.91C161.108 192 160.281 192.045 159.453 192.046C153.673 192.046 148.129 189.779 144.041 185.744C139.954 181.709 137.658 176.236 137.658 170.529C137.658 164.823 139.954 159.35 144.041 155.315C148.129 151.28 153.673 149.013 159.453 149.013C160.281 149.013 161.109 149.059 161.931 149.15C167.248 149.752 172.155 152.263 175.718 156.205C179.281 160.148 181.25 165.246 181.251 170.529Z" fill="#A80000"/>
<path d="M161.932 191.908C172.601 191.908 181.249 182.336 181.249 170.529C181.249 158.722 172.601 149.15 161.932 149.15C151.263 149.15 142.614 158.722 142.614 170.529C142.614 182.336 151.263 191.908 161.932 191.908Z" fill="#BC0904"/>
<g opacity="0.5">
<path d="M126.123 173.081C124.079 159.983 129.697 145.706 142.408 141.133C143.452 140.757 144.148 142.189 143.21 142.779C137.062 146.639 132.154 151.858 129.903 159.167C128.514 163.676 128.076 168.3 127.971 172.955C127.948 174.071 126.294 174.184 126.123 173.081Z" fill="white"/>
</g>
</svg>
