<svg width="30" height="26" viewBox="0 0 30 26" fill="none" xmlns="http://www.w3.org/2000/svg">
<path d="M29.1926 13.9054L18.1665 24.7904C17.9237 25.0333 17.6017 25.1836 17.2574 25.2147C16.9132 25.2457 16.5689 25.1555 16.2855 24.96C16.0022 24.7645 15.798 24.4763 15.7093 24.1465C15.6205 23.8167 15.6528 23.4665 15.8005 23.1579L20.3364 13.4796C20.4235 13.2878 20.4685 13.08 20.4685 12.8699C20.4685 12.6597 20.4235 12.4519 20.3364 12.2601L15.8005 2.58177C15.6528 2.27321 15.6205 1.92301 15.7093 1.59319C15.798 1.26337 16.0022 0.975192 16.2855 0.779695C16.5689 0.584198 16.9132 0.493988 17.2574 0.525041C17.6017 0.556093 17.9237 0.706406 18.1665 0.94936L29.1926 11.8343C29.332 11.9694 29.4426 12.1306 29.5181 12.3084C29.5937 12.4862 29.6326 12.677 29.6326 12.8699C29.6326 13.0627 29.5937 13.2535 29.5181 13.4313C29.4426 13.6091 29.332 13.7703 29.1926 13.9054Z" fill="#F1F1F1"/>
<path d="M13.5325 13.9054L2.50633 24.7904C2.26356 25.0333 1.94153 25.1836 1.59727 25.2147C1.25301 25.2457 0.908718 25.1555 0.625365 24.96C0.342013 24.7645 0.137875 24.4763 0.0490993 24.1465C-0.0396762 23.8167 -0.00736231 23.4665 0.140318 23.1579L4.67626 13.4796C4.76672 13.2887 4.8136 13.0806 4.8136 12.8699C4.8136 12.6591 4.76672 12.451 4.67626 12.2601L0.140318 2.58177C-0.00736231 2.27321 -0.0396762 1.92301 0.0490993 1.59319C0.137875 1.26337 0.342013 0.975192 0.625365 0.779695C0.908718 0.584198 1.25301 0.493988 1.59727 0.525041C1.94153 0.556093 2.26356 0.706406 2.50633 0.94936L13.5325 11.8601C13.8059 12.132 13.9593 12.4996 13.9593 12.8828C13.9593 13.2659 13.8059 13.6335 13.5325 13.9054Z" fill="#F1F1F1"/>
</svg>
