<svg width="232" height="83" viewBox="0 0 232 83" fill="none" xmlns="http://www.w3.org/2000/svg">
<g clip-path="url(#clip0_885_5142)">
<path d="M34.8762 66.0117H16.9288V67.2563H34.8762V66.0117Z" fill="#2483C5"/>
<path d="M16.9288 63.9639V62.0303H34.7346L34.8096 63.9639H16.9288Z" fill="#2483C5"/>
<path d="M16.9288 59.9528V57.2969H34.6125L34.6653 59.9528H16.9288Z" fill="#2483C5"/>
<path d="M16.9288 55.2099V51.3594H34.4294L34.5154 55.2099H16.9288Z" fill="#2483C5"/>
<path d="M16.9288 49.3372V43.3809H67.8985L68.2732 49.3372H37.4294L33.9132 43.3836L34.3406 49.3372H16.9288Z" fill="#2483C5"/>
<path d="M16.9288 41.3255V33.9551H47.3674L51.8772 41.3255L51.4526 33.9551H68.2732V41.3255H16.9288Z" fill="#2483C5"/>
<path d="M16.9288 31.8846V17.5049L37.5182 17.566L46.0409 31.8846H16.9288Z" fill="#2483C5"/>
<path d="M68.2731 17.5049H51.4525V31.8846H68.2731V17.5049Z" fill="#2483C5"/>
<path d="M68.2731 51.3594V55.2071H41.3618L38.8114 51.3594H68.2731Z" fill="#2483C5"/>
<path d="M68.2731 57.2969V59.9528H44.4368L42.6912 57.2969H68.2731Z" fill="#2483C5"/>
<path d="M68.2732 62.0303V63.9639H47.076L45.8105 62.0303H68.2732Z" fill="#2483C5"/>
<path d="M68.2732 66.0117V67.2591H49.2657L48.4387 66.0117H68.2732Z" fill="#2483C5"/>
<path d="M90.6331 66.0117H73.0687V67.2563H90.6331V66.0117Z" fill="#2483C5"/>
<path d="M90.6331 62.0303H73.0687V63.9611H90.6331V62.0303Z" fill="#2483C5"/>
<path d="M90.6331 57.2969H73.0687V59.9528H90.6331V57.2969Z" fill="#2483C5"/>
<path d="M90.6331 51.3594H73.0687V55.2043H90.6331V51.3594Z" fill="#2483C5"/>
<path d="M90.6331 43.3809H73.0687V49.3372H90.6331V43.3809Z" fill="#2483C5"/>
<path d="M90.6331 33.9551H73.0687V41.3255H90.6331V33.9551Z" fill="#2483C5"/>
<path d="M90.6331 17.5049H73.0687V31.8846H90.6331V17.5049Z" fill="#2483C5"/>
<path d="M120.828 16.6553H130.147V31.8851H96.2058C100.407 22.945 109.865 16.6553 120.825 16.6553" fill="#2483C5"/>
<path d="M115.08 33.9551C113.004 35.6886 111.628 38.3473 111.578 41.3255H93.8829C94.005 38.7668 94.5157 36.2887 95.3538 33.9551H115.08Z" fill="#2483C5"/>
<path d="M111.733 43.3809C112.172 45.8173 113.473 47.9065 115.23 49.3372H94.9263C94.3602 47.4481 94.005 45.4422 93.9272 43.3809H111.733Z" fill="#2483C5"/>
<path d="M130.149 51.3594V55.2099H97.5545C96.8247 54.0014 96.1503 52.729 95.6285 51.3594H130.149Z" fill="#2483C5"/>
<path d="M130.149 57.2969V59.9528H101.293C100.443 59.1305 99.697 58.2276 98.9698 57.2969H130.147H130.149Z" fill="#2483C5"/>
<path d="M130.149 62.0303V63.9639H106.374C105.406 63.3471 104.484 62.7331 103.604 62.0303H130.149Z" fill="#2483C5"/>
<path d="M130.149 66.0117V67.0841H114.25C114.25 67.0841 113.72 67.2674 110.565 66.0117H130.149Z" fill="#2483C5"/>
<path d="M139.199 31.2178H141.547L145.802 38.6299V31.2178H147.889V41.847H145.649L141.286 34.3043V41.847H139.199V31.2178Z" fill="#2483C5"/>
<path d="M152.812 37.0659C153.2 37.0159 153.472 36.9576 153.639 36.8854C153.939 36.7603 154.086 36.5659 154.086 36.3019C154.086 35.9797 153.972 35.7574 153.744 35.6352C153.514 35.5129 153.181 35.449 152.737 35.449C152.243 35.449 151.891 35.5685 151.685 35.8102C151.538 35.9908 151.441 36.2297 151.391 36.5325H149.39C149.434 35.8435 149.629 35.2796 149.976 34.8379C150.525 34.1461 151.469 33.7988 152.809 33.7988C153.681 33.7988 154.452 33.9711 155.129 34.31C155.806 34.6517 156.142 35.2935 156.142 36.2408V39.8469C156.142 40.0969 156.148 40.3997 156.159 40.7553C156.173 41.0248 156.214 41.2054 156.284 41.3054C156.35 41.3998 156.453 41.4804 156.589 41.5415V41.8443H154.336C154.272 41.686 154.227 41.536 154.205 41.3971C154.183 41.2582 154.163 41.0998 154.147 40.922C153.858 41.2304 153.528 41.4915 153.153 41.7082C152.704 41.9638 152.199 42.0888 151.63 42.0888C150.908 42.0888 150.311 41.886 149.842 41.4804C149.371 41.0748 149.135 40.4969 149.135 39.7524C149.135 38.7856 149.515 38.0855 150.27 37.6549C150.686 37.4188 151.294 37.2493 152.101 37.1493L152.812 37.0632V37.0659ZM154.077 38.0244C153.944 38.1077 153.811 38.1716 153.675 38.2216C153.542 38.2716 153.356 38.3189 153.12 38.3633L152.648 38.4494C152.207 38.5272 151.888 38.6217 151.696 38.73C151.369 38.919 151.208 39.2079 151.208 39.6024C151.208 39.9524 151.308 40.208 151.508 40.3636C151.707 40.5219 151.949 40.597 152.235 40.597C152.687 40.597 153.106 40.4664 153.484 40.208C153.867 39.9469 154.064 39.4746 154.077 38.7884V38.0244Z" fill="#2483C5"/>
<path d="M156.991 35.5213V34.06H158.096V31.8652H160.147V34.06H161.432V35.5213H160.147V39.6746C160.147 39.9969 160.186 40.1997 160.272 40.2775C160.352 40.358 160.605 40.3969 161.026 40.3969C161.09 40.3969 161.157 40.3969 161.226 40.3942C161.296 40.3942 161.365 40.3886 161.434 40.383V41.9194L160.452 41.9555C159.472 41.9888 158.804 41.8221 158.446 41.4526C158.212 41.2165 158.099 40.8553 158.099 40.3636V35.5241H156.994L156.991 35.5213Z" fill="#2483C5"/>
<path d="M165.001 33.049H162.897V31.1543H165.001V33.049ZM162.897 33.988H165.001V41.8474H162.897V33.988Z" fill="#2483C5"/>
<path d="M173.213 40.8863C172.544 41.7031 171.528 42.1115 170.168 42.1115C168.808 42.1115 167.79 41.7031 167.121 40.8863C166.452 40.0668 166.119 39.0805 166.119 37.9276C166.119 36.7746 166.455 35.8106 167.121 34.9827C167.79 34.1521 168.806 33.7354 170.168 33.7354C171.531 33.7354 172.544 34.1493 173.213 34.9827C173.879 35.8134 174.214 36.7941 174.214 37.9276C174.214 39.0611 173.879 40.0695 173.213 40.8863ZM171.556 39.75C171.878 39.3222 172.041 38.7166 172.041 37.9276C172.041 37.1386 171.878 36.5357 171.556 36.1107C171.231 35.6856 170.765 35.4717 170.16 35.4717C169.555 35.4717 169.089 35.6856 168.758 36.1107C168.434 36.5357 168.27 37.1414 168.27 37.9276C168.27 38.7138 168.434 39.3222 168.758 39.75C169.086 40.1779 169.552 40.389 170.16 40.389C170.768 40.389 171.231 40.1751 171.556 39.75Z" fill="#2483C5"/>
<path d="M181.938 34.438C182.457 34.863 182.718 35.5687 182.718 36.5549V41.8501H180.592V37.0689C180.592 36.6549 180.539 36.3382 180.428 36.116C180.225 35.7131 179.84 35.5103 179.271 35.5103C178.574 35.5103 178.097 35.8076 177.836 36.3965C177.703 36.7105 177.633 37.1105 177.633 37.5939V41.8501H175.56V34.0046H177.567V35.1492C177.833 34.7463 178.083 34.4546 178.319 34.2768C178.743 33.9601 179.282 33.8018 179.934 33.8018C180.747 33.8018 181.416 34.0129 181.935 34.4407" fill="#2483C5"/>
<path d="M187.635 37.0659C188.021 37.0159 188.296 36.9576 188.462 36.8854C188.762 36.7603 188.909 36.5659 188.909 36.3019C188.909 35.9797 188.795 35.7574 188.568 35.6352C188.338 35.5129 188.005 35.449 187.56 35.449C187.064 35.449 186.714 35.5685 186.506 35.8102C186.359 35.9908 186.262 36.2297 186.212 36.5325H184.211C184.255 35.8435 184.449 35.2796 184.796 34.8379C185.349 34.1461 186.292 33.7988 187.63 33.7988C188.501 33.7988 189.276 33.9711 189.95 34.31C190.627 34.6517 190.966 35.2935 190.966 36.2408V39.8469C190.966 40.0969 190.971 40.3997 190.98 40.7553C190.993 41.0248 191.035 41.2054 191.102 41.3054C191.168 41.3998 191.271 41.4804 191.407 41.5415V41.8443H189.153C189.09 41.686 189.048 41.536 189.023 41.3971C188.998 41.2582 188.981 41.0998 188.965 40.922C188.679 41.2304 188.346 41.4915 187.971 41.7082C187.522 41.9638 187.017 42.0888 186.45 42.0888C185.729 42.0888 185.129 41.886 184.66 41.4804C184.189 41.0748 183.955 40.4969 183.955 39.7524C183.955 38.7856 184.333 38.0855 185.091 37.6549C185.507 37.4188 186.115 37.2493 186.922 37.1493L187.633 37.0632L187.635 37.0659ZM188.901 38.0244C188.768 38.1077 188.634 38.1716 188.498 38.2216C188.365 38.2716 188.179 38.3189 187.943 38.3633L187.472 38.4494C187.03 38.5272 186.711 38.6217 186.52 38.73C186.195 38.919 186.031 39.2079 186.031 39.6024C186.031 39.9524 186.128 40.208 186.328 40.3636C186.528 40.5219 186.77 40.597 187.055 40.597C187.508 40.597 187.927 40.4664 188.307 40.208C188.687 39.9469 188.887 39.4746 188.901 38.7884V38.0244Z" fill="#2483C5"/>
<path d="M194.743 31.2178H192.67V41.847H194.743V31.2178Z" fill="#2483C5"/>
<path d="M141.278 43.6865H139.055V54.3129H141.278V43.6865Z" fill="#2483C5"/>
<path d="M149.448 46.9066C149.967 47.3316 150.225 48.0373 150.225 49.0235V54.3159H148.102V49.5375C148.102 49.1235 148.047 48.804 147.936 48.5846C147.733 48.1817 147.348 47.9789 146.781 47.9789C146.082 47.9789 145.605 48.2762 145.344 48.8679C145.211 49.1791 145.141 49.5791 145.141 50.0625V54.3159H143.071V46.4704H145.077V47.615C145.344 47.2122 145.594 46.9232 145.832 46.7426C146.257 46.4259 146.795 46.2676 147.445 46.2676C148.261 46.2676 148.929 46.4787 149.448 46.9066Z" fill="#2483C5"/>
<path d="M155.282 43.5891C155.39 43.5974 155.534 43.6085 155.717 43.6196V45.2921C155.601 45.2782 155.407 45.2671 155.135 45.2588C154.86 45.2532 154.671 45.3115 154.566 45.4393C154.463 45.5671 154.41 45.706 154.41 45.8616V46.5228H155.77V47.973H154.41V54.31H152.354V47.973H151.188V46.5228H152.321V46.02C152.321 45.1782 152.465 44.5976 152.751 44.2808C153.051 43.8086 153.778 43.5752 154.924 43.5752C155.054 43.5752 155.174 43.5752 155.279 43.5863" fill="#2483C5"/>
<path d="M163.422 53.3541C162.753 54.1736 161.737 54.582 160.374 54.582C159.012 54.582 157.996 54.1736 157.327 53.3541C156.658 52.5373 156.323 51.5511 156.323 50.3981C156.323 49.2452 156.658 48.2812 157.327 47.4505C157.996 46.6198 159.012 46.2031 160.374 46.2031C161.737 46.2031 162.75 46.6198 163.422 47.4505C164.09 48.2812 164.423 49.2619 164.423 50.3981C164.423 51.5344 164.088 52.5373 163.422 53.3541ZM161.765 52.2178C162.089 51.7928 162.25 51.1843 162.25 50.3981C162.25 49.6119 162.087 49.0035 161.765 48.5784C161.437 48.1534 160.974 47.9395 160.369 47.9395C159.764 47.9395 159.298 48.1534 158.967 48.5784C158.64 49.0035 158.476 49.6091 158.476 50.3981C158.476 51.1871 158.64 51.7928 158.967 52.2178C159.295 52.6457 159.761 52.8596 160.369 52.8596C160.977 52.8596 161.44 52.6457 161.765 52.2178Z" fill="#2483C5"/>
<path d="M170.163 46.2705C170.188 46.2733 170.249 46.2788 170.34 46.2816V48.3875C170.21 48.3736 170.093 48.3625 169.991 48.3597C169.888 48.3569 169.805 48.3513 169.744 48.3513C168.908 48.3513 168.35 48.6208 168.065 49.1598C167.904 49.4654 167.826 49.9293 167.826 50.56V54.316H165.739V46.4566H167.718V47.829C168.037 47.304 168.317 46.9456 168.553 46.7539C168.941 46.4316 169.447 46.2705 170.068 46.2705C170.107 46.2705 170.14 46.2705 170.165 46.2705" fill="#2483C5"/>
<path d="M181.294 46.4867C181.63 46.62 181.941 46.8562 182.215 47.1923C182.437 47.4674 182.587 47.8007 182.665 48.2036C182.715 48.4675 182.737 48.8537 182.737 49.3621L182.723 54.3155H180.6V49.3121C180.6 49.0148 180.553 48.7675 180.456 48.5759C180.27 48.2091 179.931 48.0286 179.437 48.0286C178.866 48.0286 178.472 48.2619 178.252 48.7342C178.139 48.9842 178.086 49.2843 178.086 49.6343V54.3127H175.999V49.6343C175.999 49.1676 175.952 48.8287 175.852 48.6175C175.68 48.2369 175.336 48.048 174.828 48.048C174.237 48.048 173.84 48.2369 173.637 48.6175C173.523 48.8342 173.471 49.1565 173.471 49.5843V54.3155H171.37V46.47H173.382V47.6146C173.64 47.2062 173.881 46.9145 174.109 46.7423C174.511 46.4339 175.033 46.2811 175.671 46.2811C176.31 46.2811 176.768 46.4117 177.142 46.6756C177.442 46.9228 177.672 47.2368 177.825 47.6202C178.094 47.159 178.433 46.8201 178.835 46.6034C179.26 46.3894 179.737 46.2783 180.259 46.2783C180.608 46.2783 180.953 46.345 181.294 46.4811" fill="#2483C5"/>
<path d="M187.635 49.5345C188.021 49.4845 188.296 49.4262 188.462 49.3539C188.762 49.2289 188.909 49.0345 188.909 48.7705C188.909 48.4483 188.795 48.226 188.568 48.1038C188.338 47.9815 188.005 47.9204 187.56 47.9204C187.064 47.9204 186.714 48.0399 186.506 48.2788C186.359 48.4566 186.262 48.6955 186.212 48.9983H184.211C184.255 48.3121 184.449 47.7454 184.796 47.3037C185.349 46.6119 186.292 46.2646 187.63 46.2646C188.501 46.2646 189.276 46.4341 189.95 46.7758C190.627 47.1175 190.966 47.7621 190.966 48.7094V52.3155C190.966 52.5655 190.971 52.8683 190.98 53.2211C190.993 53.4934 191.035 53.674 191.102 53.7712C191.168 53.8684 191.271 53.9462 191.407 54.0101V54.3102H189.153C189.09 54.1518 189.048 54.0046 189.023 53.8629C188.998 53.724 188.981 53.5656 188.965 53.3878C188.679 53.6962 188.346 53.9573 187.971 54.1713C187.522 54.4269 187.017 54.5546 186.45 54.5546C185.729 54.5546 185.129 54.3518 184.66 53.9462C184.189 53.5378 183.955 52.9655 183.955 52.2182C183.955 51.2514 184.333 50.5541 185.091 50.1207C185.507 49.8846 186.115 49.7179 186.922 49.6151L187.633 49.529L187.635 49.5345ZM188.901 50.493C188.768 50.5763 188.634 50.6402 188.498 50.693C188.365 50.743 188.179 50.7903 187.943 50.8347L187.472 50.9208C187.03 50.9986 186.711 51.0931 186.52 51.2042C186.195 51.3903 186.031 51.682 186.031 52.0765C186.031 52.4266 186.128 52.6794 186.328 52.835C186.528 52.9905 186.77 53.0683 187.055 53.0683C187.508 53.0683 187.927 52.9405 188.307 52.6794C188.687 52.4182 188.887 51.946 188.901 51.2598V50.4958V50.493Z" fill="#2483C5"/>
<path d="M191.815 47.993V46.5289H192.919V44.3369H194.97V46.5289H196.255V47.993H194.97V52.1463C194.97 52.4686 195.009 52.6686 195.092 52.7492C195.173 52.8297 195.428 52.8686 195.847 52.8686C195.911 52.8686 195.978 52.8686 196.047 52.8658C196.116 52.8658 196.186 52.8603 196.252 52.8547V54.391L195.273 54.4272C194.29 54.4605 193.624 54.291 193.266 53.9215C193.033 53.6854 192.917 53.3215 192.917 52.8325V47.993H191.812H191.815Z" fill="#2483C5"/>
<path d="M199.824 45.5176H197.72V43.6201H199.824V45.5176ZM197.72 46.4538H199.824V54.3132H197.72V46.4538Z" fill="#2483C5"/>
<path d="M206.165 49.2763C206.127 48.9846 206.027 48.7179 205.866 48.4818C205.633 48.1623 205.272 48.0067 204.781 48.0067C204.081 48.0067 203.601 48.3512 203.343 49.0374C203.207 49.4013 203.14 49.8875 203.14 50.4876C203.14 51.0877 203.207 51.5266 203.343 51.8794C203.59 52.5323 204.056 52.8601 204.742 52.8601C205.227 52.8601 205.572 52.7296 205.774 52.4712C205.979 52.21 206.104 51.8739 206.146 51.4627H208.263C208.214 52.085 207.989 52.6768 207.578 53.2352C206.929 54.1353 205.963 54.5826 204.689 54.5826C203.415 54.5826 202.474 54.2075 201.875 53.4574C201.273 52.7073 200.97 51.735 200.97 50.5404C200.97 49.1902 201.303 48.1428 201.967 47.3927C202.63 46.6426 203.548 46.2676 204.717 46.2676C205.713 46.2676 206.526 46.4871 207.159 46.9316C207.792 47.3733 208.166 48.1539 208.283 49.2763H206.16H206.165Z" fill="#2483C5"/>
<path d="M211.164 51.8072C211.208 52.1711 211.302 52.4323 211.449 52.5851C211.705 52.8601 212.182 52.9962 212.882 52.9962C213.289 52.9962 213.617 52.9351 213.856 52.8157C214.097 52.6962 214.216 52.5156 214.216 52.2767C214.216 52.0378 214.119 51.8683 213.925 51.7489C213.734 51.6266 213.009 51.421 211.758 51.1293C210.858 50.9071 210.223 50.632 209.854 50.3014C209.485 49.9736 209.301 49.5013 209.301 48.8874C209.301 48.1623 209.59 47.5372 210.165 47.0149C210.739 46.4926 211.549 46.2314 212.596 46.2314C213.586 46.2314 214.394 46.4287 215.016 46.8204C215.64 47.2149 215.998 47.89 216.09 48.8485H214.019C213.992 48.5845 213.917 48.3762 213.795 48.2234C213.567 47.9456 213.176 47.8067 212.626 47.8067C212.177 47.8067 211.855 47.8761 211.663 48.015C211.469 48.1567 211.375 48.3178 211.375 48.5068C211.375 48.7429 211.477 48.9124 211.68 49.0179C211.885 49.1291 212.607 49.318 213.845 49.5875C214.669 49.7791 215.288 50.0708 215.701 50.4598C216.109 50.8543 216.312 51.3488 216.312 51.9378C216.312 52.7184 216.018 53.3518 215.435 53.8464C214.849 54.3381 213.947 54.5853 212.721 54.5853C211.494 54.5853 210.55 54.3242 209.959 53.8019C209.365 53.2796 209.068 52.6156 209.068 51.8072H211.166H211.164Z" fill="#2483C5"/>
<path d="M140.262 57.7185C141.123 56.8462 142.222 56.4072 143.557 56.4072C145.341 56.4072 146.645 56.9934 147.47 58.1686C147.925 58.827 148.172 59.4882 148.205 60.1522H145.965C145.821 59.6438 145.641 59.2604 145.416 58.9992C145.016 58.5381 144.425 58.3047 143.643 58.3047C142.86 58.3047 142.216 58.6297 141.755 59.2826C141.295 59.9355 141.064 60.855 141.064 62.0497C141.064 63.2443 141.309 64.1333 141.794 64.7278C142.28 65.3223 142.899 65.6196 143.645 65.6196C144.392 65.6196 145 65.364 145.402 64.8556C145.624 64.5805 145.81 64.1694 145.957 63.6221H148.183C147.991 64.7806 147.5 65.7224 146.715 66.4475C145.924 67.1753 144.914 67.5365 143.681 67.5365C142.158 67.5365 140.959 67.0448 140.087 66.0669C139.216 65.0806 138.778 63.7304 138.778 62.0135C138.778 60.1605 139.274 58.7298 140.268 57.7241" fill="#2483C5"/>
<path d="M154.838 59.5357C155.39 59.7801 155.848 60.1691 156.206 60.6969C156.531 61.1637 156.742 61.7054 156.839 62.3221C156.894 62.6833 156.916 63.2028 156.908 63.8835H151.136C151.169 64.6725 151.444 65.2225 151.963 65.542C152.279 65.7393 152.659 65.8365 153.106 65.8365C153.578 65.8365 153.961 65.717 154.258 65.4781C154.419 65.3476 154.563 65.167 154.682 64.9364H156.797C156.742 65.4031 156.483 65.8782 156.028 66.356C155.318 67.12 154.324 67.5034 153.048 67.5034C151.993 67.5034 151.061 67.1811 150.256 66.5366C149.451 65.8921 149.046 64.8419 149.046 63.389C149.046 62.0277 149.409 60.9831 150.137 60.258C150.866 59.5301 151.81 59.1689 152.973 59.1689C153.664 59.1689 154.283 59.294 154.838 59.5384M151.738 61.3137C151.444 61.6137 151.261 62.0193 151.186 62.5305H154.755C154.716 61.986 154.533 61.572 154.202 61.2915C153.872 61.0081 153.461 60.8664 152.973 60.8664C152.44 60.8664 152.029 61.0164 151.738 61.3165" fill="#2483C5"/>
<path d="M164.196 59.8275C164.715 60.2553 164.976 60.9582 164.976 61.9444V67.2368H162.853V62.4556C162.853 62.0416 162.797 61.7249 162.686 61.5027C162.484 61.0971 162.098 60.8943 161.532 60.8943C160.835 60.8943 160.355 61.1887 160.094 61.7833C159.958 62.0972 159.891 62.4945 159.891 62.9806V67.234H157.818V59.3885H159.825V60.5359C160.091 60.133 160.344 59.8413 160.577 59.6635C161.002 59.3441 161.54 59.1885 162.192 59.1885C163.008 59.1885 163.674 59.3996 164.193 59.8247" fill="#2483C5"/>
<path d="M165.936 60.9139V59.4498H167.04V57.2578H169.091V59.4498H170.376V60.9139H169.091V65.0672C169.091 65.3895 169.133 65.5895 169.213 65.67C169.297 65.7506 169.546 65.7895 169.968 65.7895C170.032 65.7895 170.099 65.7895 170.171 65.7867C170.24 65.784 170.31 65.7784 170.376 65.7756V67.3119L169.394 67.348C168.414 67.3814 167.745 67.2147 167.387 66.8424C167.154 66.6091 167.038 66.2423 167.038 65.7534V60.9139H165.933H165.936Z" fill="#2483C5"/>
<path d="M175.963 59.1943C175.988 59.1943 176.049 59.1999 176.14 59.2027V61.3113C176.01 61.2946 175.893 61.2863 175.791 61.2835C175.688 61.2779 175.608 61.2752 175.544 61.2752C174.711 61.2752 174.151 61.5474 173.865 62.0836C173.704 62.3864 173.623 62.8504 173.623 63.4838V67.2399H171.539V59.3805H173.515V60.7501C173.834 60.225 174.112 59.8694 174.353 59.6777C174.742 59.3555 175.244 59.1943 175.866 59.1943C175.904 59.1943 175.938 59.1943 175.963 59.1971" fill="#2483C5"/>
<path d="M182.371 59.5357C182.923 59.7801 183.378 60.1691 183.739 60.6969C184.064 61.1637 184.275 61.7054 184.372 62.3221C184.427 62.6833 184.449 63.2028 184.441 63.8835H178.669C178.702 64.6725 178.977 65.2225 179.496 65.542C179.812 65.7393 180.195 65.8365 180.639 65.8365C181.111 65.8365 181.497 65.717 181.788 65.4781C181.949 65.3476 182.09 65.167 182.215 64.9364H184.33C184.277 65.4031 184.019 65.8782 183.564 66.356C182.854 67.12 181.86 67.5034 180.584 67.5034C179.529 67.5034 178.599 67.1811 177.792 66.5366C176.984 65.8921 176.582 64.8419 176.582 63.389C176.582 62.0277 176.948 60.9831 177.675 60.258C178.402 59.5301 179.349 59.1689 180.509 59.1689C181.2 59.1689 181.821 59.294 182.374 59.5384M179.274 61.3137C178.979 61.6137 178.799 62.0193 178.721 62.5305H182.29C182.251 61.986 182.068 61.572 181.738 61.2915C181.408 61.0081 180.997 60.8664 180.509 60.8664C179.979 60.8664 179.565 61.0164 179.274 61.3165" fill="#2483C5"/>
<path d="M185.612 27.6011C185.39 27.2621 184.821 26.4537 183.664 24.8146C182.371 22.9977 181.841 22.1531 181.633 21.7642L183.059 20.7891C183.212 21.1308 183.317 21.3364 183.389 21.4391C183.55 21.7003 183.745 21.8448 183.964 21.8642C183.98 21.8642 184 21.8642 184.016 21.8642C184.202 21.8642 184.344 21.767 184.402 21.5919C184.422 21.5086 184.43 21.4197 184.43 21.3252V19.1444H182.404V17.5386H187.136L186.919 17.2414C186.85 17.1469 186.803 17.0747 186.775 17.033C186.511 16.5635 186.392 16.0634 186.414 15.5356C186.453 14.7771 186.747 14.1882 187.319 13.7381C187.896 13.2853 188.682 13.0547 189.653 13.0547C190.699 13.0547 192.214 13.6075 193.244 14.841C194.165 15.944 194.651 17.183 194.729 17.3886V27.5455H192.695V19.1444H190.735V25.0091V27.5455H188.704V23.2449H187.835L186.978 21.7336L188.704 21.7503V19.1416H186.445V21.5447C186.445 21.9309 186.32 22.2893 186.07 22.6087C185.806 22.9755 185.446 23.2116 184.963 23.3394L184.688 23.4116L184.871 23.6394C185.074 23.8867 185.343 24.2201 185.676 24.6507C186.134 25.1563 186.628 25.7536 187.152 26.4343L185.607 27.5955L185.612 27.6011ZM189.442 14.5882C189.331 14.5882 189.223 14.5966 189.117 14.6132C188.743 14.6688 188.44 14.8521 188.26 15.1272C188.118 15.3411 188.041 15.6245 188.046 15.919C188.057 16.6079 188.371 17.0802 188.998 17.3553C189.387 17.5275 189.731 17.5442 189.745 17.5442H191.87C192.433 17.5442 192.714 17.4821 192.714 17.358V17.3303L192.706 17.3053C192.345 16.0218 190.916 14.591 189.445 14.591" fill="#2483C5"/>
<path d="M185.612 27.6011C185.39 27.2621 184.821 26.4537 183.664 24.8146C182.371 22.9977 181.841 22.1531 181.633 21.7642L183.059 20.7891C183.212 21.1308 183.317 21.3364 183.389 21.4391C183.55 21.7003 183.745 21.8448 183.964 21.8642C183.98 21.8642 184 21.8642 184.016 21.8642C184.202 21.8642 184.344 21.767 184.402 21.5919C184.422 21.5086 184.43 21.4197 184.43 21.3252V19.1444H182.404V17.5386H187.136L186.919 17.2414C186.85 17.1469 186.803 17.0747 186.775 17.033C186.511 16.5635 186.392 16.0634 186.414 15.5356C186.453 14.7771 186.747 14.1882 187.319 13.7381C187.896 13.2853 188.682 13.0547 189.653 13.0547C190.699 13.0547 192.214 13.6075 193.244 14.841C194.165 15.944 194.651 17.183 194.729 17.3886V27.5455H192.695V19.1444H190.735V25.0091V27.5455H188.704V23.2449H187.835L186.978 21.7336L188.704 21.7503V19.1416H186.445V21.5447C186.445 21.9309 186.32 22.2893 186.07 22.6087C185.806 22.9755 185.446 23.2116 184.963 23.3394L184.688 23.4116L184.871 23.6394C185.074 23.8867 185.343 24.2201 185.676 24.6507C186.134 25.1563 186.628 25.7536 187.152 26.4343L185.607 27.5955L185.612 27.6011ZM189.442 14.5882C189.331 14.5882 189.223 14.5966 189.117 14.6132C188.743 14.6688 188.44 14.8521 188.26 15.1272C188.118 15.3411 188.041 15.6245 188.046 15.919C188.057 16.6079 188.371 17.0802 188.998 17.3553C189.387 17.5275 189.731 17.5442 189.745 17.5442H191.87C192.433 17.5442 192.714 17.4821 192.714 17.358V17.3303L192.706 17.3053C192.345 16.0218 190.916 14.591 189.445 14.591L189.442 14.5882Z" fill="#2483C5"/>
<path d="M176.246 28.3039C175.991 28.0956 175.702 27.8344 175.399 27.5371L175.352 27.4899H175.286C175.247 27.4899 175.18 27.4955 175.1 27.4983C175.077 27.4983 174.991 27.5094 174.991 27.5094H174.706C174.2 27.4983 173.756 27.3482 173.39 27.0704C173.04 26.8065 172.879 26.4815 172.891 26.0731C172.899 25.7314 173.015 25.4646 173.243 25.2535C173.479 25.0313 173.787 24.9257 174.181 24.9257C174.375 24.9257 174.57 24.9618 174.761 25.0368C175.211 25.2063 175.635 25.5702 176.029 26.1258C176.049 26.1536 176.104 26.2148 176.21 26.2148C176.254 26.2148 176.335 26.2064 176.515 26.1342C176.534 26.1286 176.559 26.1175 176.596 26.1036C176.84 25.9981 177.048 25.8425 177.214 25.6397C177.511 25.2674 177.625 24.7784 177.522 24.3339C177.506 24.2562 177.481 24.1756 177.417 24.1034C177.375 24.0533 177.295 23.9867 177.162 23.9867C177.12 23.9867 177.078 23.9922 177.026 24.0061C176.867 24.045 176.72 24.1061 176.579 24.1673C176.473 24.2117 176.365 24.2589 176.254 24.2923C176.096 24.3423 175.927 24.3645 175.749 24.3645C175.48 24.3645 175.194 24.3062 174.928 24.195C174.539 24.0339 174.17 23.7589 173.829 23.3783C173.146 22.617 172.816 21.9642 172.816 21.3863C172.816 21.0641 172.941 20.7974 173.201 20.5723C173.44 20.364 173.709 20.2612 174.031 20.2612H176.884V19.1499H171.098V27.551H169.066V19.1499H167.168V27.551H165.134V23.695L164.901 23.7866C164.809 23.8228 164.712 23.8422 164.604 23.8422C164.526 23.8422 164.443 23.8339 164.354 23.8144L164.129 23.7672L164.149 24.0089C164.221 25.0035 163.982 25.7675 163.435 26.2786C162.933 26.7398 162.203 26.9732 161.262 26.9732C160.48 26.9732 159.703 26.6342 158.948 25.9619C158.068 25.1785 157.341 24.1006 156.889 22.906C157.383 22.7004 157.877 22.492 158.371 22.2864C158.471 22.4809 158.568 22.6782 158.659 22.8726C158.834 23.2366 159.012 23.6116 159.239 23.9617C159.556 24.4562 160.1 25.084 160.902 25.2702C161.021 25.298 161.14 25.3119 161.257 25.3119C161.545 25.3119 161.792 25.2257 161.976 25.0674C162.375 24.709 162.406 24.0145 162.209 23.5755C161.956 23.0115 161.354 22.8699 161.018 22.8337C161.002 22.8337 160.977 22.8337 160.943 22.8337C160.849 22.8337 160.677 22.8393 160.51 22.8449C160.388 22.8504 160.272 22.856 160.191 22.856C160.086 22.6282 159.833 22.0697 159.689 21.7558C159.955 21.6836 160.36 21.5363 160.624 21.4391C160.979 21.3058 161.226 21.1307 161.376 20.8974C161.493 20.7168 161.554 20.4918 161.554 20.2501C161.557 20.0473 161.512 19.8722 161.415 19.7333C161.279 19.5333 161.029 19.4166 160.746 19.4166C160.377 19.4194 159.997 19.5722 159.658 19.8417C159.531 19.9445 159.239 20.1945 159.048 20.4445C158.623 19.475 158.418 19.0082 158.296 18.786C158.343 18.7387 158.407 18.6804 158.473 18.6304C159.187 18.0998 159.969 17.8303 160.793 17.8303C161.565 17.8303 162.212 18.0498 162.714 18.4832C163.213 18.9138 163.458 19.4416 163.458 20.1028C163.458 20.714 163.286 21.1974 162.928 21.5808L162.744 21.7753L162.983 21.8781C163.08 21.9197 163.194 21.9892 163.313 22.0642C163.571 22.2225 163.866 22.4031 164.146 22.4031C164.163 22.4031 164.179 22.4031 164.196 22.4031C164.204 22.4031 165.134 22.2948 165.134 21.9836V17.5414C166.072 17.5414 167.923 17.5414 168.486 17.5414H174.101V17.5358C174.176 17.5358 174.398 17.5358 174.398 17.5358C174.9 17.533 175.405 17.5303 175.91 17.5303C176.24 17.5303 176.573 17.5303 176.906 17.533H177.323L177.028 17.2191C176.715 16.8802 176.19 16.3023 176.113 16.1829C175.902 15.855 175.78 15.3883 175.807 15.0188C175.868 14.1576 176.487 13.363 177.284 13.1297C177.625 13.0324 177.95 12.9824 178.25 12.9824C178.566 12.9824 178.843 13.0352 179.074 13.1436C179.673 13.4214 179.729 13.6019 179.623 14.5854C179.62 14.5854 179.557 14.5604 179.557 14.5604C179.429 14.5132 179.312 14.4771 179.199 14.4437C178.941 14.3687 178.705 14.327 178.474 14.3243C178.227 14.3243 178.033 14.3687 177.878 14.4576C177.595 14.6132 177.4 14.9077 177.35 15.2605C177.298 15.6272 177.409 15.9912 177.642 16.2356C177.7 16.2968 177.775 16.3912 177.847 16.4829C177.925 16.5801 178.005 16.6801 178.064 16.744C178.222 16.9163 178.361 17.0441 178.502 17.1774C178.588 17.2552 178.674 17.3386 178.768 17.4302V19.3333L178.763 21.5891C178.022 21.5891 174.822 21.578 174.822 21.578L174.98 21.8586C175.011 21.9114 175.269 22.3698 175.369 22.4948L175.43 22.5698C175.602 22.7837 175.799 23.0254 176.102 23.1143C176.176 23.1366 176.254 23.1477 176.337 23.1477C176.568 23.1477 176.787 23.0643 176.998 22.9838L177.109 22.9421C177.503 22.8004 177.914 22.7282 178.33 22.7282C178.655 22.7282 178.896 22.7782 179.085 22.8865C179.562 23.1588 179.618 23.795 179.615 24.3201C179.604 25.4674 179.046 26.3203 177.908 26.9287C177.822 26.9787 177.761 27.0149 177.692 27.0454L177.392 27.1871L177.67 27.3705C178.044 27.6205 179.36 28.3623 179.487 28.4345L179.451 28.4817C179.421 28.5178 178.796 29.2318 178.327 29.7624L176.249 28.3067L176.246 28.3039Z" fill="#2483C5"/>
<path d="M176.246 28.3039C175.991 28.0956 175.702 27.8344 175.399 27.5371L175.352 27.4899H175.286C175.247 27.4899 175.18 27.4955 175.1 27.4983C175.077 27.4983 174.991 27.5094 174.991 27.5094H174.706C174.2 27.4983 173.756 27.3482 173.39 27.0704C173.04 26.8065 172.879 26.4815 172.891 26.0731C172.899 25.7314 173.015 25.4646 173.243 25.2535C173.479 25.0313 173.787 24.9257 174.181 24.9257C174.375 24.9257 174.57 24.9618 174.761 25.0368C175.211 25.2063 175.635 25.5702 176.029 26.1258C176.049 26.1536 176.104 26.2148 176.21 26.2148C176.254 26.2148 176.335 26.2064 176.515 26.1342C176.534 26.1286 176.559 26.1175 176.596 26.1036C176.84 25.9981 177.048 25.8425 177.214 25.6397C177.511 25.2674 177.625 24.7784 177.522 24.3339C177.506 24.2562 177.481 24.1756 177.417 24.1034C177.375 24.0533 177.295 23.9867 177.162 23.9867C177.12 23.9867 177.078 23.9922 177.026 24.0061C176.867 24.045 176.72 24.1061 176.579 24.1673C176.473 24.2117 176.365 24.2589 176.254 24.2923C176.096 24.3423 175.927 24.3645 175.749 24.3645C175.48 24.3645 175.194 24.3062 174.928 24.195C174.539 24.0339 174.17 23.7589 173.829 23.3783C173.146 22.617 172.816 21.9642 172.816 21.3863C172.816 21.0641 172.941 20.7974 173.201 20.5723C173.44 20.364 173.709 20.2612 174.031 20.2612H176.884V19.1499H171.098V27.551H169.066V19.1499H167.168V27.551H165.134V23.695L164.901 23.7866C164.809 23.8228 164.712 23.8422 164.604 23.8422C164.526 23.8422 164.443 23.8339 164.354 23.8144L164.129 23.7672L164.149 24.0089C164.221 25.0035 163.982 25.7675 163.435 26.2786C162.933 26.7398 162.203 26.9732 161.262 26.9732C160.48 26.9732 159.703 26.6342 158.948 25.9619C158.068 25.1785 157.341 24.1006 156.889 22.906C157.383 22.7004 157.877 22.492 158.371 22.2864C158.471 22.4809 158.568 22.6782 158.659 22.8726C158.834 23.2366 159.012 23.6116 159.239 23.9617C159.556 24.4562 160.1 25.084 160.902 25.2702C161.021 25.298 161.14 25.3119 161.257 25.3119C161.545 25.3119 161.792 25.2257 161.976 25.0674C162.375 24.709 162.406 24.0145 162.209 23.5755C161.956 23.0115 161.354 22.8699 161.018 22.8337C161.002 22.8337 160.977 22.8337 160.943 22.8337C160.849 22.8337 160.677 22.8393 160.51 22.8449C160.388 22.8504 160.272 22.856 160.191 22.856C160.086 22.6282 159.833 22.0697 159.689 21.7558C159.955 21.6836 160.36 21.5363 160.624 21.4391C160.979 21.3058 161.226 21.1307 161.376 20.8974C161.493 20.7168 161.554 20.4918 161.554 20.2501C161.557 20.0473 161.512 19.8722 161.415 19.7333C161.279 19.5333 161.029 19.4166 160.746 19.4166C160.377 19.4194 159.997 19.5722 159.658 19.8417C159.531 19.9445 159.239 20.1945 159.048 20.4445C158.623 19.475 158.418 19.0082 158.296 18.786C158.343 18.7387 158.407 18.6804 158.473 18.6304C159.187 18.0998 159.969 17.8303 160.793 17.8303C161.565 17.8303 162.212 18.0498 162.714 18.4832C163.213 18.9138 163.458 19.4416 163.458 20.1028C163.458 20.714 163.286 21.1974 162.928 21.5808L162.744 21.7753L162.983 21.8781C163.08 21.9197 163.194 21.9892 163.313 22.0642C163.571 22.2225 163.866 22.4031 164.146 22.4031C164.163 22.4031 164.179 22.4031 164.196 22.4031C164.204 22.4031 165.134 22.2948 165.134 21.9836V17.5414C166.072 17.5414 167.923 17.5414 168.486 17.5414H174.101V17.5358C174.176 17.5358 174.398 17.5358 174.398 17.5358C174.9 17.533 175.405 17.5303 175.91 17.5303C176.24 17.5303 176.573 17.5303 176.906 17.533H177.323L177.028 17.2191C176.715 16.8802 176.19 16.3023 176.113 16.1829C175.902 15.855 175.78 15.3883 175.807 15.0188C175.868 14.1576 176.487 13.363 177.284 13.1297C177.625 13.0324 177.95 12.9824 178.25 12.9824C178.566 12.9824 178.843 13.0352 179.074 13.1436C179.673 13.4214 179.729 13.6019 179.623 14.5854C179.62 14.5854 179.557 14.5604 179.557 14.5604C179.429 14.5132 179.312 14.4771 179.199 14.4437C178.941 14.3687 178.705 14.327 178.474 14.3243C178.227 14.3243 178.033 14.3687 177.878 14.4576C177.595 14.6132 177.4 14.9077 177.35 15.2605C177.298 15.6272 177.409 15.9912 177.642 16.2356C177.7 16.2968 177.775 16.3912 177.847 16.4829C177.925 16.5801 178.005 16.6801 178.064 16.744C178.222 16.9163 178.361 17.0441 178.502 17.1774C178.588 17.2552 178.674 17.3386 178.768 17.4302V19.3333L178.763 21.5891C178.022 21.5891 174.822 21.578 174.822 21.578L174.98 21.8586C175.011 21.9114 175.269 22.3698 175.369 22.4948L175.43 22.5698C175.602 22.7837 175.799 23.0254 176.102 23.1143C176.176 23.1366 176.254 23.1477 176.337 23.1477C176.568 23.1477 176.787 23.0643 176.998 22.9838L177.109 22.9421C177.503 22.8004 177.914 22.7282 178.33 22.7282C178.655 22.7282 178.896 22.7782 179.085 22.8865C179.562 23.1588 179.618 23.795 179.615 24.3201C179.604 25.4674 179.046 26.3203 177.908 26.9287C177.822 26.9787 177.761 27.0149 177.692 27.0454L177.392 27.1871L177.67 27.3705C178.044 27.6205 179.36 28.3623 179.487 28.4345L179.451 28.4817C179.421 28.5178 178.796 29.2318 178.327 29.7624L176.249 28.3067L176.246 28.3039Z" fill="#2483C5"/>
<path d="M144.267 29.6843C144.206 29.6843 144.15 29.6788 144.095 29.6649C143.817 29.5954 143.637 29.3231 143.462 29.0564C143.426 29.0009 143.39 28.9453 143.354 28.8953L143.121 28.5619C143.182 28.5675 143.246 28.5703 143.31 28.5703C143.448 28.5703 143.57 28.5536 143.681 28.5175C143.795 28.4758 143.881 28.423 143.942 28.3508C144.037 28.2397 144.07 28.0924 144.028 27.9646C143.989 27.8341 143.89 27.7591 143.817 27.7035L143.781 27.6757C143.651 27.5729 143.526 27.4673 143.398 27.3618L139.374 24.0419V17.5466L145.746 17.541H154.655C154.655 18.5606 154.655 27.5424 154.655 27.5424H152.62V22.7695H150.156V23.8196C150.156 23.9641 150.12 24.1058 150.048 24.2475C149.942 24.4864 149.773 24.592 149.515 24.592H149.476C149.323 24.5864 148.949 24.428 148.097 23.4168C147.206 22.3694 147.109 22.0083 147.109 21.8999C147.109 21.336 147.372 21.0859 147.969 21.0859H152.62V19.144H145.779V22.4528C145.779 22.8751 145.624 23.214 145.299 23.489C144.919 23.8224 144.489 23.9891 143.984 24.0002L142.43 22.7028C143.196 22.6806 143.446 22.6056 143.565 22.5472C143.704 22.4695 143.765 22.3333 143.74 22.1666V19.144H141.389V23.5946C141.389 23.5946 142.222 24.2919 142.535 24.5558C142.535 24.5558 144.017 25.7921 144.539 26.2283C144.792 26.4422 145.044 26.6533 145.302 26.8673C145.705 27.2034 145.904 27.5396 145.952 27.9507C145.988 28.2841 145.915 28.5925 145.738 28.8425C145.613 29.0148 145.455 29.162 145.255 29.2954C144.866 29.551 144.531 29.6788 144.259 29.6788" fill="#2483C5"/>
<path d="M144.267 29.6843C144.206 29.6843 144.15 29.6788 144.095 29.6649C143.817 29.5954 143.637 29.3231 143.462 29.0564C143.426 29.0009 143.39 28.9453 143.354 28.8953L143.121 28.5619C143.182 28.5675 143.246 28.5703 143.31 28.5703C143.448 28.5703 143.57 28.5536 143.681 28.5175C143.795 28.4758 143.881 28.423 143.942 28.3508C144.037 28.2397 144.07 28.0924 144.028 27.9646C143.989 27.8341 143.89 27.7591 143.817 27.7035L143.781 27.6757C143.651 27.5729 143.526 27.4673 143.398 27.3618L139.374 24.0419V17.5466L145.746 17.541H154.655C154.655 18.5606 154.655 27.5424 154.655 27.5424H152.62V22.7695H150.156V23.8196C150.156 23.9641 150.12 24.1058 150.048 24.2475C149.942 24.4864 149.773 24.592 149.515 24.592H149.476C149.323 24.5864 148.949 24.428 148.097 23.4168C147.206 22.3694 147.109 22.0083 147.109 21.8999C147.109 21.336 147.372 21.0859 147.969 21.0859H152.62V19.144H145.779V22.4528C145.779 22.8751 145.624 23.214 145.299 23.489C144.919 23.8224 144.489 23.9891 143.984 24.0002L142.43 22.7028C143.196 22.6806 143.446 22.6056 143.565 22.5472C143.704 22.4695 143.765 22.3333 143.74 22.1666V19.144H141.389V23.5946C141.389 23.5946 142.222 24.2919 142.535 24.5558C142.535 24.5558 144.017 25.7921 144.539 26.2283C144.792 26.4422 145.044 26.6533 145.302 26.8673C145.705 27.2034 145.904 27.5396 145.952 27.9507C145.988 28.2841 145.915 28.5925 145.738 28.8425C145.613 29.0148 145.455 29.162 145.255 29.2954C144.866 29.551 144.531 29.6788 144.259 29.6788L144.267 29.6843Z" fill="#2483C5"/>
<path d="M165.783 19.1469H163.943V17.5439H168.492" fill="#2483C5"/>
<path d="M165.783 19.1469H163.943V17.5439H168.492" fill="#2483C5"/>
<path d="M151.263 17.5439H155.812V19.1469H153.972" fill="#2483C5"/>
<path d="M151.263 17.5439H155.812V19.1469H153.972" fill="#2483C5"/>
<path d="M175.258 17.5439H179.804V19.1469H177.966" fill="#2483C5"/>
<path d="M175.258 17.5439H179.804V19.1469H177.966" fill="#2483C5"/>
</g>
<defs>
<clipPath id="clip0_885_5142">
<rect width="232" height="83" fill="white"/>
</clipPath>
</defs>
</svg>
