<svg width="232" height="83" xmlns="http://www.w3.org/2000/svg" viewBox="0 0 365.89 100"><defs><style>.cls-1{fill:#fff;}</style></defs><g id="Layer_2" data-name="Layer 2"><g id="Layer_1-2" data-name="Layer 1"><rect class="cls-1" y="97.21" width="32.94" height="2.28"/><polygon class="cls-1" points="0 93.46 0 89.91 32.67 89.91 32.81 93.46 0 93.46"/><polygon class="cls-1" points="0 86.1 0 81.23 32.45 81.23 32.55 86.1 0 86.1"/><polygon class="cls-1" points="0 77.41 0 70.35 32.12 70.35 32.27 77.41 0 77.41"/><polygon class="cls-1" points="0 66.65 0 55.73 93.54 55.73 94.22 66.65 37.62 66.65 31.17 55.73 31.95 66.65 0 66.65"/><polygon class="cls-1" points="0 51.95 0 38.44 55.86 38.44 64.13 51.95 63.36 38.44 94.22 38.44 94.22 51.95 0 51.95"/><polygon class="cls-1" points="0 34.65 0 8.29 37.78 8.4 53.42 34.65 0 34.65"/><rect class="cls-1" x="63.36" y="8.29" width="30.87" height="26.36"/><polygon class="cls-1" points="94.22 70.35 94.22 77.41 44.84 77.41 40.15 70.35 94.22 70.35"/><polygon class="cls-1" points="94.22 81.23 94.22 86.1 50.48 86.1 47.28 81.23 94.22 81.23"/><polygon class="cls-1" points="94.22 89.91 94.22 93.46 55.32 93.46 53 89.91 94.22 89.91"/><polygon class="cls-1" points="94.22 97.21 94.22 99.5 59.34 99.5 57.82 97.21 94.22 97.21"/><rect class="cls-1" x="103.02" y="97.21" width="32.23" height="2.28"/><rect class="cls-1" x="103.02" y="89.91" width="32.23" height="3.54"/><rect class="cls-1" x="103.02" y="81.23" width="32.23" height="4.87"/><rect class="cls-1" x="103.02" y="70.35" width="32.23" height="7.05"/><rect class="cls-1" x="103.02" y="55.73" width="32.23" height="10.92"/><rect class="cls-1" x="103.02" y="38.44" width="32.23" height="13.51"/><rect class="cls-1" x="103.02" y="8.29" width="32.23" height="26.36"/><path class="cls-1" d="M190.67,6.73h17.1V34.65H145.49c7.71-16.39,25.06-27.92,45.18-27.92"/><path class="cls-1" d="M180.12,38.44A18,18,0,0,0,173.69,52H141.22a46.61,46.61,0,0,1,2.7-13.51Z"/><path class="cls-1" d="M174,55.73a18.26,18.26,0,0,0,6.42,10.92H143.14a43.7,43.7,0,0,1-1.84-10.92Z"/><path class="cls-1" d="M207.77,70.35v7.06H148a44.35,44.35,0,0,1-3.54-7.06Z"/><path class="cls-1" d="M207.77,81.23V86.1h-53a45.84,45.84,0,0,1-4.26-4.87Z"/><path class="cls-1" d="M207.77,89.91v3.55H164.14a59.7,59.7,0,0,1-5.08-3.55Z"/><path class="cls-1" d="M207.77,97.21v2H178.59s-1,.33-6.76-2Z"/><polygon class="cls-1" points="224.38 33.43 228.69 33.43 236.5 47.02 236.5 33.43 240.33 33.43 240.33 52.91 236.22 52.91 228.21 39.09 228.21 52.91 224.38 52.91 224.38 33.43"/><path class="cls-1" d="M249.36,44.15a6.19,6.19,0,0,0,1.52-.33,1.13,1.13,0,0,0,.82-1.07,1.25,1.25,0,0,0-.63-1.22,3.93,3.93,0,0,0-1.85-.34,2.45,2.45,0,0,0-1.93.66,2.71,2.71,0,0,0-.54,1.32h-3.67a5.55,5.55,0,0,1,1.07-3.11q1.51-1.91,5.2-1.9a9.27,9.27,0,0,1,4.26.94,3.57,3.57,0,0,1,1.86,3.54v6.61c0,.46,0,1,0,1.67a2.17,2.17,0,0,0,.23,1,1.34,1.34,0,0,0,.56.44v.55h-4.13a4.21,4.21,0,0,1-.25-.82c0-.25-.07-.54-.1-.87A7.82,7.82,0,0,1,250,52.66a5.51,5.51,0,0,1-2.79.7,4.86,4.86,0,0,1-3.28-1.11,4,4,0,0,1-1.3-3.17,4.11,4.11,0,0,1,2.09-3.85,9.29,9.29,0,0,1,3.36-.92Zm2.33,1.76a4.19,4.19,0,0,1-.74.36,6.73,6.73,0,0,1-1,.26l-.87.16a5.72,5.72,0,0,0-1.74.51,1.71,1.71,0,0,0-.9,1.6,1.67,1.67,0,0,0,.55,1.4,2.12,2.12,0,0,0,1.33.43,3.94,3.94,0,0,0,2.29-.72,3,3,0,0,0,1.1-2.6Z"/><path class="cls-1" d="M257,41.32V38.64h2v-4h3.76v4h2.36v2.68h-2.36v7.61a1.74,1.74,0,0,0,.23,1.11,2.56,2.56,0,0,0,1.39.22h.36l.38,0v2.82l-1.8.06c-1.79.06-3-.24-3.68-.92a2.75,2.75,0,0,1-.64-2V41.32Z"/><path class="cls-1" d="M271.73,36.78h-3.86V33.31h3.86Zm-3.86,1.73h3.86v14.4h-3.86Z"/><path class="cls-1" d="M286.8,51.15a8.07,8.07,0,0,1-11.18,0,8.87,8.87,0,0,1,0-10.82,8,8,0,0,1,11.18,0,8.87,8.87,0,0,1,0,10.82m-3-2.08a5.48,5.48,0,0,0,.89-3.34,5.39,5.39,0,0,0-.89-3.33,3,3,0,0,0-2.56-1.17,3.07,3.07,0,0,0-2.58,1.17,5.39,5.39,0,0,0-.89,3.33,5.48,5.48,0,0,0,.89,3.34,3.07,3.07,0,0,0,2.58,1.17,3,3,0,0,0,2.56-1.17"/><path class="cls-1" d="M302.81,39.33a4.72,4.72,0,0,1,1.44,3.88v9.7h-3.9V44.15A3.92,3.92,0,0,0,300,42.4a2.14,2.14,0,0,0-2.12-1.11,2.63,2.63,0,0,0-2.63,1.63,5.49,5.49,0,0,0-.37,2.19v7.8h-3.81V38.53h3.69v2.1a6.22,6.22,0,0,1,1.38-1.6,4.83,4.83,0,0,1,3-.87,5.59,5.59,0,0,1,3.67,1.17"/><path class="cls-1" d="M313.27,44.15a6.09,6.09,0,0,0,1.51-.33,1.13,1.13,0,0,0,.82-1.07,1.26,1.26,0,0,0-.62-1.22,4,4,0,0,0-1.85-.34,2.42,2.42,0,0,0-1.93.66,2.71,2.71,0,0,0-.54,1.32H307a5.47,5.47,0,0,1,1.07-3.11q1.51-1.91,5.2-1.9a9.27,9.27,0,0,1,4.26.94,3.59,3.59,0,0,1,1.86,3.54v6.61c0,.46,0,1,0,1.67a2.07,2.07,0,0,0,.22,1,1.45,1.45,0,0,0,.57.44v.55h-4.14a3.57,3.57,0,0,1-.24-.82,8.55,8.55,0,0,1-.11-.87,8,8,0,0,1-1.82,1.44,5.53,5.53,0,0,1-2.79.7,4.89,4.89,0,0,1-3.29-1.11,4,4,0,0,1-1.29-3.17,4.1,4.1,0,0,1,2.08-3.85,9.35,9.35,0,0,1,3.36-.92Zm2.32,1.76a3.88,3.88,0,0,1-.74.36,6.15,6.15,0,0,1-1,.26l-.86.16a5.8,5.8,0,0,0-1.75.51,1.73,1.73,0,0,0-.9,1.6,1.67,1.67,0,0,0,.55,1.4,2.14,2.14,0,0,0,1.33.43,4,4,0,0,0,2.3-.72,3,3,0,0,0,1.09-2.6Z"/><rect class="cls-1" x="322.51" y="33.43" width="3.8" height="19.49"/><rect class="cls-1" x="224.12" y="56.29" width="4.08" height="19.48"/><path class="cls-1" d="M243.19,62.19a4.75,4.75,0,0,1,1.43,3.88v9.7h-3.9V67a4,4,0,0,0-.3-1.75,2.16,2.16,0,0,0-2.12-1.11,2.62,2.62,0,0,0-2.64,1.63,5.49,5.49,0,0,0-.37,2.19v7.8h-3.8V61.39h3.68v2.1a6.63,6.63,0,0,1,1.38-1.6,4.83,4.83,0,0,1,3-.87,5.62,5.62,0,0,1,3.68,1.17"/><path class="cls-1" d="M253.9,56.11l.8,0v3.07c-.22,0-.57,0-1.08-.06a1.26,1.26,0,0,0-1,.33,1.23,1.23,0,0,0-.28.78v1.21h2.49v2.66H252.3V75.77h-3.78V64.15h-2.13V61.49h2.07v-.92a4.88,4.88,0,0,1,.79-3.19q.83-1.29,4-1.29c.24,0,.46,0,.66,0"/><path class="cls-1" d="M268.83,74a8.07,8.07,0,0,1-11.18,0,8.89,8.89,0,0,1,0-10.83,8,8,0,0,1,11.18,0,8.89,8.89,0,0,1,0,10.83m-3-2.09a5.37,5.37,0,0,0,.89-3.33,5.38,5.38,0,0,0-.89-3.34,3.4,3.4,0,0,0-5.13,0,6.63,6.63,0,0,0,0,6.67,3.38,3.38,0,0,0,5.13,0"/><path class="cls-1" d="M281.2,61a2,2,0,0,0,.33,0V64.9l-.64-.05h-.45a3.17,3.17,0,0,0-3.09,1.48,5.77,5.77,0,0,0-.44,2.56v6.89h-3.83V61.36h3.63v2.51a8.1,8.1,0,0,1,1.54-2A4.18,4.18,0,0,1,281,61h.18"/><path class="cls-1" d="M301.63,61.42a4.22,4.22,0,0,1,2.52,3.14,12.73,12.73,0,0,1,.13,2.13l0,9.08h-3.9V66.6a3,3,0,0,0-.27-1.35,1.91,1.91,0,0,0-1.87-1,2.18,2.18,0,0,0-2.17,1.3,4,4,0,0,0-.31,1.65v8.58h-3.83V67.19a4.73,4.73,0,0,0-.26-1.86,1.87,1.87,0,0,0-1.88-1,2.24,2.24,0,0,0-2.19,1,3.87,3.87,0,0,0-.31,1.77v8.67h-3.85V61.39h3.69v2.1a6.24,6.24,0,0,1,1.34-1.6,5.29,5.29,0,0,1,5.56-.12,4.22,4.22,0,0,1,1.25,1.73,4.88,4.88,0,0,1,1.86-1.86,5.64,5.64,0,0,1,2.61-.6,5.11,5.11,0,0,1,1.9.38"/><path class="cls-1" d="M313.27,67a5.58,5.58,0,0,0,1.51-.34,1.12,1.12,0,0,0,.82-1.07,1.26,1.26,0,0,0-.62-1.22,4.11,4.11,0,0,0-1.85-.33,2.38,2.38,0,0,0-1.93.66,2.66,2.66,0,0,0-.54,1.32H307a5.45,5.45,0,0,1,1.07-3.11q1.51-1.91,5.2-1.9a9.4,9.4,0,0,1,4.26.93,3.6,3.6,0,0,1,1.86,3.55v6.61c0,.46,0,1,0,1.66a2.09,2.09,0,0,0,.22,1,1.45,1.45,0,0,0,.57.44v.55h-4.14a3.57,3.57,0,0,1-.24-.82c-.05-.26-.08-.55-.11-.87a8.26,8.26,0,0,1-1.82,1.44,5.64,5.64,0,0,1-2.79.7,4.84,4.84,0,0,1-3.29-1.12,4,4,0,0,1-1.29-3.16,4.08,4.08,0,0,1,2.08-3.85,9.54,9.54,0,0,1,3.36-.93Zm2.32,1.75a4.65,4.65,0,0,1-.74.37,6.15,6.15,0,0,1-1,.26l-.86.15a6.05,6.05,0,0,0-1.75.52,1.72,1.72,0,0,0-.9,1.6,1.64,1.64,0,0,0,.55,1.39,2.08,2.08,0,0,0,1.33.43,4,4,0,0,0,2.3-.71,3,3,0,0,0,1.09-2.61Z"/><path class="cls-1" d="M320.94,64.18V61.49h2v-4h3.77v4h2.35v2.69h-2.35v7.61c0,.59.07,1,.22,1.1a2.48,2.48,0,0,0,1.39.22h.37l.37,0V75.9l-1.79.07q-2.7.09-3.69-.93a2.76,2.76,0,0,1-.64-2V64.18Z"/><path class="cls-1" d="M335.64,59.64h-3.86V56.16h3.86Zm-3.86,1.72h3.86V75.77h-3.86Z"/><path class="cls-1" d="M347.27,66.53a3.16,3.16,0,0,0-.55-1.45,2.28,2.28,0,0,0-2-.88,2.62,2.62,0,0,0-2.63,1.89,7.77,7.77,0,0,0-.38,2.66,7.14,7.14,0,0,0,.38,2.55,2.54,2.54,0,0,0,2.57,1.8,2.28,2.28,0,0,0,1.89-.71,3.43,3.43,0,0,0,.68-1.85h3.89a6.3,6.3,0,0,1-1.26,3.25,6.11,6.11,0,0,1-5.3,2.47,6.23,6.23,0,0,1-5.16-2.06,8.26,8.26,0,0,1-1.66-5.35,8.39,8.39,0,0,1,1.83-5.77,6.37,6.37,0,0,1,5-2.06,7.7,7.7,0,0,1,4.49,1.21c1.16.81,1.84,2.25,2.06,4.3Z"/><path class="cls-1" d="M356.45,71.17A2.48,2.48,0,0,0,357,72.6a3.58,3.58,0,0,0,2.63.75,4.06,4.06,0,0,0,1.79-.33,1.06,1.06,0,0,0,.66-1,1.07,1.07,0,0,0-.54-1,21.37,21.37,0,0,0-4-1.13,8.55,8.55,0,0,1-3.5-1.52,3.31,3.31,0,0,1-1-2.59,4.49,4.49,0,0,1,1.59-3.44A6.42,6.42,0,0,1,359.08,61,8.22,8.22,0,0,1,363.52,62a4.62,4.62,0,0,1,2,3.72h-3.8a2.18,2.18,0,0,0-.41-1.15,2.65,2.65,0,0,0-2.15-.77,3.16,3.16,0,0,0-1.77.38,1.12,1.12,0,0,0-.53.91,1,1,0,0,0,.56.93,24.34,24.34,0,0,0,4,1,7.19,7.19,0,0,1,3.4,1.6,3.59,3.59,0,0,1,1.12,2.71,4.38,4.38,0,0,1-1.61,3.5,7.64,7.64,0,0,1-5,1.35q-3.44,0-5.07-1.44a4.63,4.63,0,0,1-1.64-3.65Z"/><path class="cls-1" d="M226.33,82a8.15,8.15,0,0,1,6-2.41q4.92,0,7.18,3.23a6.93,6.93,0,0,1,1.35,3.63h-4.11a5.68,5.68,0,0,0-1-2.11,4.08,4.08,0,0,0-3.26-1.27,4,4,0,0,0-3.46,1.79,8.65,8.65,0,0,0-1.27,5.07,7.57,7.57,0,0,0,1.34,4.91,4.19,4.19,0,0,0,3.4,1.63,3.84,3.84,0,0,0,3.22-1.4,6,6,0,0,0,1-2.26h4.08a8.67,8.67,0,0,1-2.7,5.18,7.86,7.86,0,0,1-5.56,2,8.38,8.38,0,0,1-6.6-2.7,10.8,10.8,0,0,1-2.4-7.43q0-5.1,2.73-7.86"/><path class="cls-1" d="M253.08,85.34a5.91,5.91,0,0,1,2.51,2.13,7.05,7.05,0,0,1,1.16,3,19.55,19.55,0,0,1,.13,2.86h-10.6a3.45,3.45,0,0,0,1.52,3,3.93,3.93,0,0,0,2.1.54,3.17,3.17,0,0,0,2.11-.66,3.06,3.06,0,0,0,.78-1h3.89a4.69,4.69,0,0,1-1.41,2.6A7.09,7.09,0,0,1,249.8,100a8.05,8.05,0,0,1-5.13-1.77c-1.47-1.19-2.22-3.11-2.22-5.77a7.77,7.77,0,0,1,2-5.75,7,7,0,0,1,5.2-2,8.38,8.38,0,0,1,3.42.67m-5.69,3.25a3.92,3.92,0,0,0-1,2.24h6.55a3.17,3.17,0,0,0-1-2.28,3.36,3.36,0,0,0-2.26-.78,3.06,3.06,0,0,0-2.27.82"/><path class="cls-1" d="M270.25,85.87a4.75,4.75,0,0,1,1.43,3.89v9.7h-3.89V90.69a4,4,0,0,0-.31-1.74,2.15,2.15,0,0,0-2.12-1.11,2.62,2.62,0,0,0-2.63,1.62,5.58,5.58,0,0,0-.37,2.2v7.8h-3.81V85.07h3.68v2.11a6.25,6.25,0,0,1,1.39-1.6,4.81,4.81,0,0,1,3-.87,5.64,5.64,0,0,1,3.67,1.16"/><path class="cls-1" d="M273.45,87.87V85.18h2v-4h3.76v4h2.36v2.69h-2.36v7.61a1.68,1.68,0,0,0,.23,1.1,2.44,2.44,0,0,0,1.38.22h.37l.38,0v2.82l-1.8.07c-1.8.06-3-.25-3.68-.93a2.72,2.72,0,0,1-.64-2V87.87Z"/><path class="cls-1" d="M291.85,84.71l.33,0v3.86c-.24,0-.46,0-.65,0l-.45,0A3.15,3.15,0,0,0,288,90a5.71,5.71,0,0,0-.44,2.56v6.89h-3.83V85.05h3.63v2.51a7.91,7.91,0,0,1,1.54-2,4.18,4.18,0,0,1,2.77-.88h.18"/><path class="cls-1" d="M303.61,85.34a5.91,5.91,0,0,1,2.51,2.13,7.05,7.05,0,0,1,1.16,3,18.47,18.47,0,0,1,.12,2.86H296.81a3.45,3.45,0,0,0,1.52,3,3.9,3.9,0,0,0,2.1.54,3.17,3.17,0,0,0,2.11-.66,3.06,3.06,0,0,0,.78-1h3.88a4.67,4.67,0,0,1-1.4,2.6,7.09,7.09,0,0,1-5.47,2.11,8.05,8.05,0,0,1-5.13-1.77Q293,96.39,293,92.41a7.77,7.77,0,0,1,2-5.75,7,7,0,0,1,5.2-2,8.38,8.38,0,0,1,3.42.67m-5.69,3.25a3.92,3.92,0,0,0-1,2.24h6.55a3.14,3.14,0,0,0-1-2.28,3.31,3.31,0,0,0-2.25-.78,3.06,3.06,0,0,0-2.27.82"/><path class="cls-1" d="M309.56,26.8c-.41-.63-1.45-2.11-3.58-5.11a63.44,63.44,0,0,1-3.72-5.59l2.61-1.79a9.54,9.54,0,0,0,.61,1.19,1.4,1.4,0,0,0,1,.78h.1a.69.69,0,0,0,.7-.5,1.88,1.88,0,0,0,.06-.49v-4h-3.72V8.36h8.69l-.4-.55c-.13-.17-.22-.3-.27-.38A5.08,5.08,0,0,1,311,4.69a4.25,4.25,0,0,1,1.66-3.3A6.8,6.8,0,0,1,317,.14a9.15,9.15,0,0,1,6.59,3.27,17.44,17.44,0,0,1,2.72,4.68V26.7h-3.73V11.3H319V26.7h-3.73V18.82h-1.59l-1.57-2.77,3.16,0V11.3h-4.14v4.41a3.1,3.1,0,0,1-.69,1.95,3.51,3.51,0,0,1-2,1.34l-.5.13.34.42c.37.45.86,1.06,1.47,1.85.84.93,1.75,2,2.71,3.27Zm7-23.86A3.83,3.83,0,0,0,316,3a2.22,2.22,0,0,0-1.58.94A2.56,2.56,0,0,0,314,5.38,2.68,2.68,0,0,0,315.77,8a4,4,0,0,0,1.37.35H321c1.55,0,1.55,0,1.55-.34V8l0,0c-.66-2.36-3.28-5-6-5"/><path class="cls-1" d="M309.56,26.8c-.41-.63-1.45-2.11-3.58-5.11a63.44,63.44,0,0,1-3.72-5.59l2.61-1.79a9.54,9.54,0,0,0,.61,1.19,1.4,1.4,0,0,0,1,.78h.1a.69.69,0,0,0,.7-.5,1.88,1.88,0,0,0,.06-.49v-4h-3.72V8.36h8.69l-.4-.55c-.13-.17-.22-.3-.27-.38A5.08,5.08,0,0,1,311,4.69a4.25,4.25,0,0,1,1.66-3.3A6.8,6.8,0,0,1,317,.14a9.15,9.15,0,0,1,6.59,3.27,17.44,17.44,0,0,1,2.72,4.68V26.7h-3.73V11.3H319V26.7h-3.73V18.82h-1.59l-1.57-2.77,3.16,0V11.3h-4.14v4.41a3.1,3.1,0,0,1-.69,1.95,3.51,3.51,0,0,1-2,1.34l-.5.13.34.42c.37.45.86,1.06,1.47,1.85.84.93,1.75,2,2.71,3.27Zm7-23.86A3.83,3.83,0,0,0,316,3a2.22,2.22,0,0,0-1.58.94A2.56,2.56,0,0,0,314,5.38,2.68,2.68,0,0,0,315.77,8a4,4,0,0,0,1.37.35H321c1.55,0,1.55,0,1.55-.34V8l0,0C321.91,5.56,319.29,2.94,316.59,2.94Z"/><path class="cls-1" d="M292.37,28.09c-.47-.39-1-.86-1.56-1.41l-.08-.09h-.13l-.34,0-.2,0h-.52a4.06,4.06,0,0,1-2.42-.8A2.12,2.12,0,0,1,286.2,24a2,2,0,0,1,.65-1.5,2.38,2.38,0,0,1,1.72-.61,2.87,2.87,0,0,1,1.07.21,5.31,5.31,0,0,1,2.33,2,.35.35,0,0,0,.33.16,1.5,1.5,0,0,0,.56-.14l.15-.06a3,3,0,0,0,1.13-.85,2.82,2.82,0,0,0,.57-2.39,1,1,0,0,0-.2-.43.58.58,0,0,0-.47-.21.85.85,0,0,0-.25,0,5.17,5.17,0,0,0-.81.29c-.2.08-.4.17-.6.23a3.12,3.12,0,0,1-.93.13,4,4,0,0,1-1.5-.3,5.9,5.9,0,0,1-2-1.5,5.87,5.87,0,0,1-1.86-3.66,1.89,1.89,0,0,1,.7-1.49,2.25,2.25,0,0,1,1.53-.57h5.23v-2H282.92V26.7h-3.73V11.3H275.7V26.7H272V19.64l-.43.17a1.57,1.57,0,0,1-.54.1,1.88,1.88,0,0,1-.46-.06l-.41-.09,0,.45a4.91,4.91,0,0,1-1.3,4.16,5.76,5.76,0,0,1-4,1.27,6.41,6.41,0,0,1-4.25-1.85,14.43,14.43,0,0,1-3.78-5.6l2.72-1.14c.18.35.36.72.53,1.08a19.09,19.09,0,0,0,1.06,2,5.2,5.2,0,0,0,3.05,2.4,3,3,0,0,0,.65.08,2,2,0,0,0,1.32-.45,2.54,2.54,0,0,0,.43-2.74,2.61,2.61,0,0,0-2.19-1.36h-.14l-.79,0-.59,0c-.19-.42-.65-1.44-.92-2,.49-.13,1.24-.4,1.72-.58a2.66,2.66,0,0,0,1.38-1,2.2,2.2,0,0,0,.32-1.19,1.63,1.63,0,0,0-.25-1,1.49,1.49,0,0,0-1.23-.58,3.36,3.36,0,0,0-2,.78,8,8,0,0,0-1.12,1.1c-.78-1.77-1.16-2.63-1.37-3a2.31,2.31,0,0,1,.32-.29A7,7,0,0,1,264,8.88a5.24,5.24,0,0,1,3.52,1.19,3.72,3.72,0,0,1,1.37,3,3.76,3.76,0,0,1-1,2.71l-.33.36.44.19c.18.08.38.21.61.34a3.13,3.13,0,0,0,1.53.63h.09s1.72-.19,1.72-.76V8.35h22.37l-.54-.58c-.58-.62-1.54-1.68-1.68-1.9a3.81,3.81,0,0,1-.56-2.13A4,4,0,0,1,294.27.27,6.46,6.46,0,0,1,296,0a3.71,3.71,0,0,1,1.52.29c1.1.51,1.2.84,1,2.65l-.12,0c-.24-.09-.45-.16-.66-.22a5,5,0,0,0-1.33-.22,2.07,2.07,0,0,0-1.09.25,1.94,1.94,0,0,0-1,1.47A2.14,2.14,0,0,0,294.92,6a4.91,4.91,0,0,1,.38.45c.15.18.29.36.4.48.29.32.54.55.81.8l.48.46v7.62h-7.23l.29.51c0,.09.53.94.71,1.17l.12.14a2.54,2.54,0,0,0,1.23,1,1.54,1.54,0,0,0,.43.06,3.42,3.42,0,0,0,1.22-.3l.2-.08a6.6,6.6,0,0,1,2.24-.39,2.67,2.67,0,0,1,1.38.29c.88.5,1,1.66,1,2.63a5.22,5.22,0,0,1-3.13,4.78l-.39.22-.55.25.51.34c.69.46,3.1,1.82,3.33,1.95l-.06.09-2.07,2.35Z"/><path class="cls-1" d="M292.37,28.09c-.47-.39-1-.86-1.56-1.41l-.08-.09h-.13l-.34,0-.2,0h-.52a4.06,4.06,0,0,1-2.42-.8A2.12,2.12,0,0,1,286.2,24a2,2,0,0,1,.65-1.5,2.38,2.38,0,0,1,1.72-.61,2.87,2.87,0,0,1,1.07.21,5.31,5.31,0,0,1,2.33,2,.35.35,0,0,0,.33.16,1.5,1.5,0,0,0,.56-.14l.15-.06a3,3,0,0,0,1.13-.85,2.82,2.82,0,0,0,.57-2.39,1,1,0,0,0-.2-.43.58.58,0,0,0-.47-.21.85.85,0,0,0-.25,0,5.17,5.17,0,0,0-.81.29c-.2.08-.4.17-.6.23a3.12,3.12,0,0,1-.93.13,4,4,0,0,1-1.5-.3,5.9,5.9,0,0,1-2-1.5,5.87,5.87,0,0,1-1.86-3.66,1.89,1.89,0,0,1,.7-1.49,2.25,2.25,0,0,1,1.53-.57h5.23v-2H282.92V26.7h-3.73V11.3H275.7V26.7H272V19.64l-.43.17a1.57,1.57,0,0,1-.54.1,1.88,1.88,0,0,1-.46-.06l-.41-.09,0,.45a4.91,4.91,0,0,1-1.3,4.16,5.76,5.76,0,0,1-4,1.27,6.41,6.41,0,0,1-4.25-1.85,14.43,14.43,0,0,1-3.78-5.6l2.72-1.14c.18.35.36.72.53,1.08a19.09,19.09,0,0,0,1.06,2,5.2,5.2,0,0,0,3.05,2.4,3,3,0,0,0,.65.08,2,2,0,0,0,1.32-.45,2.54,2.54,0,0,0,.43-2.74,2.61,2.61,0,0,0-2.19-1.36h-.14l-.79,0-.59,0c-.19-.42-.65-1.44-.92-2,.49-.13,1.24-.4,1.72-.58a2.66,2.66,0,0,0,1.38-1,2.2,2.2,0,0,0,.32-1.19,1.63,1.63,0,0,0-.25-1,1.49,1.49,0,0,0-1.23-.58,3.36,3.36,0,0,0-2,.78,8,8,0,0,0-1.12,1.1c-.78-1.77-1.16-2.63-1.37-3a2.31,2.31,0,0,1,.32-.29A7,7,0,0,1,264,8.88a5.24,5.24,0,0,1,3.52,1.19,3.72,3.72,0,0,1,1.37,3,3.76,3.76,0,0,1-1,2.71l-.33.36.44.19c.18.08.38.21.61.34a3.13,3.13,0,0,0,1.53.63h.09s1.72-.19,1.72-.76V8.35h22.37l-.54-.58c-.58-.62-1.54-1.68-1.68-1.9a3.81,3.81,0,0,1-.56-2.13A4,4,0,0,1,294.27.27,6.46,6.46,0,0,1,296,0a3.71,3.71,0,0,1,1.52.29c1.1.51,1.2.84,1,2.65l-.12,0c-.24-.09-.45-.16-.66-.22a5,5,0,0,0-1.33-.22,2.07,2.07,0,0,0-1.09.25,1.94,1.94,0,0,0-1,1.47A2.14,2.14,0,0,0,294.92,6a4.91,4.91,0,0,1,.38.45c.15.18.29.36.4.48.29.32.54.55.81.8l.48.46v7.62h-7.23l.29.51c0,.09.53.94.71,1.17l.12.14a2.54,2.54,0,0,0,1.23,1,1.54,1.54,0,0,0,.43.06,3.42,3.42,0,0,0,1.22-.3l.2-.08a6.6,6.6,0,0,1,2.24-.39,2.67,2.67,0,0,1,1.38.29c.88.5,1,1.66,1,2.63a5.22,5.22,0,0,1-3.13,4.78l-.39.22-.55.25.51.34c.69.46,3.1,1.82,3.33,1.95l-.06.09-2.07,2.35Z"/><path class="cls-1" d="M233.68,30.62a1.06,1.06,0,0,1-.31,0c-.51-.12-.84-.63-1.16-1.11l-.2-.3-.43-.61.35,0a2.07,2.07,0,0,0,.68-.1,1.11,1.11,0,0,0,.48-.31.74.74,0,0,0,.15-.71.92.92,0,0,0-.38-.47l-.07,0-.7-.58-7.39-6.08V8.37h28.05V26.69H249V17.94h-4.53v1.93a1.59,1.59,0,0,1-.2.78,1,1,0,0,1-1,.64h-.07c-.28,0-1-.29-2.53-2.15s-1.81-2.58-1.81-2.78c0-1,.49-1.49,1.58-1.49H249V11.3H236.46v6.07a2.33,2.33,0,0,1-.88,1.89,3.62,3.62,0,0,1-2.41.94l-2.85-2.38a5.37,5.37,0,0,0,2.08-.28.65.65,0,0,0,.32-.7V11.3h-4.32v8.16l2.11,1.76,3.67,3.07,1.4,1.17a2.91,2.91,0,0,1,1.19,2,2.29,2.29,0,0,1-.39,1.63,3.19,3.19,0,0,1-.88.83,3.55,3.55,0,0,1-1.83.71"/><path class="cls-1" d="M233.68,30.62a1.06,1.06,0,0,1-.31,0c-.51-.12-.84-.63-1.16-1.11l-.2-.3-.43-.61.35,0a2.07,2.07,0,0,0,.68-.1,1.11,1.11,0,0,0,.48-.31.74.74,0,0,0,.15-.71.92.92,0,0,0-.38-.47l-.07,0-.7-.58-7.39-6.08V8.37h28.05V26.69H249V17.94h-4.53v1.93a1.59,1.59,0,0,1-.2.78,1,1,0,0,1-1,.64h-.07c-.28,0-1-.29-2.53-2.15s-1.81-2.58-1.81-2.78c0-1,.49-1.49,1.58-1.49H249V11.3H236.46v6.07a2.33,2.33,0,0,1-.88,1.89,3.62,3.62,0,0,1-2.41.94l-2.85-2.38a5.37,5.37,0,0,0,2.08-.28.65.65,0,0,0,.32-.7V11.3h-4.32v8.16l2.11,1.76,3.67,3.07,1.4,1.17a2.91,2.91,0,0,1,1.19,2,2.29,2.29,0,0,1-.39,1.63,3.19,3.19,0,0,1-.88.83A3.55,3.55,0,0,1,233.68,30.62Z"/><polyline class="cls-1" points="273.17 11.3 269.79 11.3 269.79 8.36 278.14 8.36"/><polyline class="cls-1" points="273.17 11.3 269.79 11.3 269.79 8.36 278.14 8.36"/><polyline class="cls-1" points="246.52 8.36 254.87 8.36 254.87 11.3 251.49 11.3"/><polyline class="cls-1" points="246.52 8.36 254.87 8.36 254.87 11.3 251.49 11.3"/><polyline class="cls-1" points="290.55 8.36 298.9 8.36 298.9 11.3 295.52 11.3"/><polyline class="cls-1" points="290.55 8.36 298.9 8.36 298.9 11.3 295.52 11.3"/></g></g></svg>