<svg width="374" height="352" viewBox="0 0 374 352" fill="none" xmlns="http://www.w3.org/2000/svg">
<g clip-path="url(#clip0_701_209)">
<path d="M232.99 136.509C259.707 196.042 252.026 253.817 188.112 286.23C137.709 311.666 73.1985 279.706 46.3861 220.145C19.6696 160.612 39.7657 93.558 91.2645 70.4241C142.859 47.3183 206.302 76.8804 232.99 136.509Z" fill="#991740"/>
<path d="M196.151 279.389C247.653 256.292 268.006 189.853 241.609 130.993C215.212 72.1327 152.063 43.1411 100.56 66.2382C49.0577 89.3352 28.7053 155.775 55.102 214.635C81.4986 273.495 144.648 302.486 196.151 279.389Z" fill="#FF1C4F"/>
<path d="M189.072 263.603C232.965 243.919 250.318 187.314 227.831 137.172C205.344 87.0297 151.533 62.3391 107.639 82.0236C63.7464 101.708 46.3933 158.314 68.8801 208.455C91.367 258.597 145.179 283.288 189.072 263.603Z" fill="white"/>
<path d="M182.606 249.187C219.545 232.621 234.155 184.999 215.239 142.819C196.323 100.639 151.044 79.875 114.105 96.4407C77.1664 113.006 62.5562 160.629 81.4723 202.809C100.388 244.988 145.668 265.752 182.606 249.187Z" fill="#FF1C4F"/>
<path d="M175.854 234.131C205.486 220.842 217.195 182.617 202.008 148.752C186.821 114.888 150.488 98.2075 120.857 111.496C91.2253 124.785 79.5157 163.01 94.7028 196.875C109.89 230.74 146.223 247.42 175.854 234.131Z" fill="white"/>
<path d="M169.061 218.984C191.386 208.973 200.213 180.185 188.778 154.686C177.342 129.187 149.974 116.631 127.65 126.643C105.325 136.655 96.4979 165.442 107.933 190.942C119.369 216.441 146.737 228.996 169.061 218.984Z" fill="#FF1C4F"/>
<path d="M162.146 203.564C177.012 196.897 182.89 177.725 175.273 160.742C167.657 143.759 149.432 135.397 134.566 142.064C119.699 148.731 113.822 167.902 121.438 184.885C129.054 201.868 147.28 210.231 162.146 203.564Z" fill="white"/>
<path d="M154.33 186.136C160.78 183.243 163.335 174.934 160.035 167.576C156.736 160.219 148.832 156.599 142.381 159.492C135.931 162.385 133.377 170.694 136.676 178.052C139.976 185.409 147.88 189.029 154.33 186.136Z" fill="#FF1C4F"/>
<path d="M282.377 101.396C282.377 101.396 304.535 66.7326 310.292 68.4222C315.953 70.0837 314.607 83.5495 314.607 83.5495L282.377 101.396Z" fill="#FFA523"/>
<path d="M283.027 102.733C283.027 102.733 324.167 102.821 325.857 97.0643C327.518 91.4031 315.46 85.2589 315.46 85.2589L283.027 102.733Z" fill="#FFA523"/>
<path d="M315.397 84.4067L148.333 172.839" stroke="#004A67" stroke-width="2.0972" stroke-miterlimit="10"/>
<path d="M299.999 164.929C299.999 164.929 334.799 142.939 339.277 146.859C343.754 150.778 336.803 162.391 336.803 162.391L299.999 164.929Z" fill="#0070C0"/>
<path d="M300.084 166.414C300.084 166.414 337.363 183.92 341.282 179.442C345.202 174.965 336.844 164.383 336.844 164.383L300.084 166.414Z" fill="#0070C0"/>
<path d="M337.097 163.519L148.333 172.84" stroke="#004A67" stroke-width="2.0972" stroke-miterlimit="10"/>
<path d="M281.423 245.978C281.423 245.978 322.608 245.559 324.271 251.258C326.029 256.985 314.007 263.149 314.007 263.149L281.423 245.978Z" fill="#61CECB"/>
<path d="M280.741 247.237C280.741 247.237 303.227 281.767 308.954 280.009C314.681 278.25 313.088 264.859 313.088 264.859L280.741 247.237Z" fill="#61CECB"/>
<path d="M313.793 264.233L148.333 172.84" stroke="#004A67" stroke-width="2.0972" stroke-miterlimit="10"/>
</g>
<defs>

</defs>
</svg>
