<svg width="338" height="100" viewBox="0 0 338 100" fill="none" xmlns="http://www.w3.org/2000/svg">
<g clip-path="url(#clip0_933_60)">
<path d="M325 100H12.5C9.18804 99.9894 6.01477 98.6691 3.67285 96.3272C1.33093 93.9853 0.0105477 90.812 0 87.5V12.5C0.0105477 9.18804 1.33093 6.01474 3.67285 3.67282C6.01477 1.3309 9.18804 0.0105477 12.5 0H325C328.313 0.00792217 331.488 1.32743 333.83 3.66992C336.173 6.01241 337.492 9.18723 337.5 12.5V87.5C337.492 90.8128 336.173 93.9876 333.83 96.3301C331.488 98.6726 328.313 99.9921 325 100Z" fill="black"/>
<path d="M325 2C327.785 2 330.456 3.10625 332.425 5.07538C334.394 7.04451 335.5 9.71523 335.5 12.5V87.5C335.5 90.2848 334.394 92.9555 332.425 94.9246C330.456 96.8938 327.785 98 325 98H12.5C9.71523 98 7.04457 96.8938 5.07544 94.9246C3.10631 92.9555 2 90.2848 2 87.5V12.5C2 9.71523 3.10631 7.04451 5.07544 5.07538C7.04457 3.10625 9.71523 2 12.5 2H325ZM325 0H12.5C9.18804 0.0105477 6.01477 1.3309 3.67285 3.67282C1.33093 6.01474 0.0105477 9.18804 0 12.5V87.5C0.0105477 90.812 1.33093 93.9853 3.67285 96.3272C6.01477 98.6691 9.18804 99.9894 12.5 100H325C328.313 99.9921 331.488 98.6726 333.83 96.3301C336.173 93.9876 337.492 90.8128 337.5 87.5V12.5C337.492 9.18723 336.173 6.01241 333.83 3.66992C331.488 1.32743 328.313 0.00792217 325 0Z" fill="#A6A6A6"/>
<path d="M118.55 25.5999C118.599 26.5171 118.458 27.4345 118.136 28.2948C117.814 29.1551 117.319 29.9398 116.68 30.5999C115.972 31.3367 115.115 31.9154 114.167 32.298C113.22 32.6806 112.201 32.8585 111.18 32.8199C110.154 32.8417 109.133 32.6533 108.182 32.2664C107.231 31.8794 106.37 31.3021 105.65 30.5699C104.916 29.8434 104.337 28.9747 103.95 28.0169C103.564 27.0592 103.376 26.0325 103.4 24.9999C103.376 23.9672 103.564 22.9406 103.95 21.9828C104.337 21.0251 104.916 20.1563 105.65 19.4299C106.368 18.6932 107.229 18.1109 108.179 17.7189C109.13 17.3268 110.152 17.1332 111.18 17.1499C112.247 17.1461 113.305 17.3429 114.3 17.7299C115.221 18.0791 116.044 18.6451 116.7 19.3799L115.33 20.7499C114.851 20.1701 114.231 19.7226 113.53 19.4499C112.775 19.1396 111.966 18.9865 111.15 18.9999C110.379 18.9867 109.614 19.1307 108.9 19.4229C108.187 19.7152 107.54 20.1497 107 20.6999C106.444 21.2659 106.008 21.9387 105.72 22.6778C105.431 23.4169 105.295 24.2068 105.32 24.9999C105.294 25.793 105.43 26.5831 105.719 27.3223C106.007 28.0614 106.443 28.7342 107 29.2999C107.538 29.8534 108.184 30.2901 108.898 30.5826C109.612 30.8751 110.378 31.0172 111.15 30.9999C112.5 31.0456 113.821 30.6016 114.87 29.7499C115.372 29.3181 115.784 28.7908 116.081 28.1985C116.378 27.6062 116.555 26.9609 116.6 26.2999H111.15V24.4999H118.42C118.485 24.8637 118.528 25.231 118.55 25.5999ZM130.08 17.4999V19.3499H123.25V24.0999H129.4V25.8999H123.25V30.6499H130.08V32.4999H121.33V17.4999H130.08ZM138.2 19.3499V32.4999H136.28V19.3499H132.08V17.4999H142.38V19.3499H138.2ZM151.78 32.4999H149.85V17.4999H151.78V32.4999ZM160.33 19.3499V32.4999H158.4V19.3499H154.2V17.4999H164.5V19.3499H160.33ZM186.23 24.9999C186.254 26.0309 186.07 27.0561 185.686 28.0136C185.303 28.971 184.729 29.8407 184 30.5699C183.286 31.3017 182.43 31.8791 181.484 32.2661C180.538 32.6532 179.522 32.8417 178.5 32.8199C177.478 32.8405 176.463 32.6515 175.517 32.2645C174.571 31.8775 173.714 31.3008 173 30.5699C172.274 29.8388 171.703 28.9686 171.321 28.0114C170.94 27.0543 170.756 26.03 170.78 24.9999C170.756 23.9698 170.94 22.9455 171.321 21.9883C171.703 21.0312 172.274 20.1609 173 19.4299C173.71 18.6906 174.565 18.1064 175.511 17.714C176.458 17.3216 177.475 17.1295 178.5 17.1499C179.525 17.1265 180.543 17.3172 181.49 17.7098C182.437 18.1024 183.292 18.6882 184 19.4299C184.73 20.1584 185.305 21.0279 185.688 21.9855C186.071 22.9431 186.256 23.9687 186.23 24.9999ZM172.78 24.9999C172.754 25.7879 172.884 26.5733 173.162 27.3111C173.44 28.0489 173.861 28.7247 174.4 29.2999C174.928 29.8515 175.566 30.2875 176.272 30.5801C176.977 30.8727 177.736 31.0157 178.5 30.9999C179.261 31.0184 180.018 30.8767 180.721 30.5838C181.424 30.2909 182.057 29.8535 182.58 29.2999C183.13 28.7307 183.559 28.0566 183.843 27.3178C184.126 26.579 184.258 25.7907 184.23 24.9999C184.259 24.2089 184.128 23.4203 183.844 22.6813C183.561 21.9423 183.131 21.2684 182.58 20.6999C182.055 20.1493 181.421 19.7138 180.719 19.4211C180.016 19.1285 179.261 18.985 178.5 18.9999C177.736 18.9841 176.977 19.127 176.272 19.4196C175.566 19.7123 174.928 20.1482 174.4 20.6999C173.861 21.275 173.44 21.9508 173.162 22.6887C172.884 23.4265 172.754 24.2118 172.78 24.9999ZM190.85 32.4999H188.93V17.4999H191.28L198.58 29.1799H198.65L198.58 26.2799V17.4999H200.5V32.4999H198.5L190.87 20.2799H190.8L190.87 23.1799V32.4999H190.85Z" fill="white"/>
<path d="M178.5 33.0798C177.444 33.0982 176.396 32.9011 175.42 32.5004C174.443 32.0998 173.558 31.5041 172.82 30.7498C172.072 29.9942 171.483 29.0956 171.09 28.1078C170.697 27.1199 170.506 26.0629 170.53 24.9998C170.506 23.9367 170.697 22.8798 171.09 21.8919C171.483 20.904 172.072 20.0054 172.82 19.2498C173.554 18.4886 174.438 17.8869 175.415 17.4826C176.392 17.0783 177.442 16.8798 178.5 16.8998C179.557 16.881 180.607 17.08 181.584 17.4843C182.561 17.8886 183.445 18.4895 184.18 19.2498C184.932 20.0023 185.523 20.9003 185.917 21.8889C186.311 22.8776 186.499 23.9361 186.47 24.9998C186.494 26.0629 186.303 27.1199 185.91 28.1078C185.516 29.0956 184.928 29.9942 184.18 30.7498C183.441 31.5041 182.557 32.0998 181.58 32.5004C180.603 32.9011 179.555 33.0982 178.5 33.0798ZM178.5 17.3998C177.509 17.3796 176.525 17.5646 175.61 17.9433C174.694 18.3219 173.867 18.8859 173.18 19.5998C172.477 20.3089 171.924 21.1526 171.554 22.0805C171.185 23.0084 171.006 24.0014 171.03 24.9998C171.006 25.9983 171.185 26.9912 171.554 27.9191C171.924 28.847 172.477 29.6907 173.18 30.3998C173.869 31.1101 174.697 31.6704 175.612 32.0456C176.528 32.4207 177.511 32.6026 178.5 32.5798C179.489 32.6026 180.472 32.4207 181.388 32.0456C182.303 31.6704 183.131 31.1101 183.82 30.3998C184.523 29.6907 185.076 28.847 185.446 27.9191C185.815 26.9912 185.993 25.9983 185.97 24.9998C185.999 24.0007 185.823 23.0062 185.453 22.0776C185.083 21.149 184.528 20.3058 183.82 19.5998C183.136 18.8825 182.309 18.3162 181.393 17.9373C180.476 17.5584 179.491 17.3753 178.5 17.3998ZM111.15 33.0798C110.091 33.0992 109.04 32.9025 108.06 32.5019C107.08 32.1013 106.192 31.5051 105.45 30.7498C104.696 29.9981 104.103 29.1005 103.707 28.1119C103.312 27.1232 103.122 26.0643 103.15 24.9998C103.125 23.9339 103.318 22.8741 103.717 21.8854C104.115 20.8966 104.712 19.9998 105.47 19.2498C106.21 18.4913 107.098 17.8918 108.078 17.4877C109.058 17.0837 110.11 16.8836 111.17 16.8998C112.27 16.898 113.362 17.0979 114.39 17.4898C115.343 17.8663 116.198 18.4544 116.89 19.2098L117.04 19.3798L115.31 21.1198L115.13 20.9098C114.677 20.3616 114.092 19.9382 113.43 19.6798C112.72 19.3718 111.953 19.2185 111.18 19.2298C110.438 19.2121 109.7 19.3467 109.012 19.6254C108.324 19.904 107.701 20.3207 107.18 20.8498C106.646 21.3933 106.229 22.0398 105.954 22.7499C105.679 23.46 105.552 24.2188 105.58 24.9798C105.553 25.7393 105.68 26.4963 105.955 27.2046C106.231 27.913 106.647 28.5579 107.18 29.0998C107.699 29.6322 108.322 30.0517 109.01 30.3322C109.698 30.6127 110.437 30.748 111.18 30.7298C112.475 30.7721 113.743 30.3461 114.75 29.5298C115.65 28.7735 116.223 27.6987 116.35 26.5298H110.93V24.2398H118.68V24.5298C118.733 24.8875 118.763 25.2482 118.77 25.6098C118.807 26.564 118.649 27.5158 118.306 28.4066C117.962 29.2974 117.439 30.1085 116.77 30.7898C116.044 31.541 115.169 32.1326 114.201 32.5269C113.234 32.9212 112.194 33.1095 111.15 33.0798ZM111.15 17.3998C110.157 17.3846 109.171 17.5718 108.253 17.9501C107.335 18.3283 106.504 18.8897 105.81 19.5998C105.098 20.3039 104.537 21.1461 104.162 22.0747C103.787 23.0033 103.606 23.9987 103.63 24.9998C103.606 26.0009 103.787 26.9963 104.162 27.9249C104.537 28.8535 105.098 29.6957 105.81 30.3998C106.505 31.1068 107.337 31.6648 108.255 32.0396C109.174 32.4144 110.158 32.5982 111.15 32.5798C112.138 32.6176 113.123 32.4456 114.04 32.075C114.957 31.7044 115.785 31.1437 116.47 30.4298C117.086 29.7912 117.564 29.0331 117.875 28.2024C118.187 27.3716 118.324 26.4859 118.28 25.5998C118.275 25.3086 118.252 25.0181 118.21 24.7298H111.4V25.9998H116.88V26.2798C116.835 26.9736 116.652 27.6514 116.342 28.2731C116.031 28.8949 115.598 29.448 115.07 29.8998C113.973 30.7904 112.592 31.2555 111.18 31.2098C110.376 31.2235 109.579 31.0726 108.836 30.7665C108.093 30.4604 107.42 30.0055 106.86 29.4298C106.295 28.8416 105.854 28.147 105.56 27.3865C105.266 26.626 105.127 25.8147 105.15 24.9998C105.126 24.1739 105.269 23.3516 105.57 22.582C105.87 21.8123 106.323 21.111 106.9 20.5198C107.461 19.9455 108.134 19.4921 108.877 19.1877C109.62 18.8833 110.417 18.7343 111.22 18.7498C112.062 18.7354 112.898 18.9025 113.67 19.2398C114.321 19.4965 114.908 19.8924 115.39 20.3998L116.39 19.3998C115.782 18.7868 115.053 18.3067 114.25 17.9898C113.263 17.5993 112.211 17.3991 111.15 17.3998ZM200.73 32.7498H198.34L191.05 21.0598V23.1698V32.7498H188.59V17.2498H191.33L198.33 28.3898V26.2798V17.2798H200.75L200.73 32.7498ZM198.62 32.2498H200.23V17.7498H198.81V26.2698L198.89 29.4198H198.42L191.12 17.7498H189.12V32.2498H190.58V23.1698L190.49 20.0198H190.96L198.62 32.2498ZM160.56 32.7498H158.15V19.5998H153.95V17.2498H164.75V19.5998H160.58L160.56 32.7498ZM158.63 32.2498H160.06V19.0998H164.23V17.7498H154.43V19.0998H158.63V32.2498ZM152 32.7498H149.58V17.2498H152V32.7498ZM150.08 32.2498H151.5V17.7498H150.15L150.08 32.2498ZM138.43 32.7498H136V19.5998H131.81V17.2498H142.61V19.5998H138.43V32.7498ZM136.5 32.2498H137.93V19.0998H142.15V17.7498H132.35V19.0998H136.54L136.5 32.2498ZM130.31 32.7498H121.06V17.2498H130.31V19.5998H123.48V23.8498H129.63V26.1498H123.48V30.3998H130.31V32.7498ZM121.56 32.2498H129.81V30.8998H122.98V25.6498H129.15V24.3498H123V19.0998H129.83V17.7498H121.58L121.56 32.2498ZM178.48 31.2498C177.682 31.2651 176.89 31.1149 176.153 30.8085C175.417 30.5021 174.752 30.0463 174.2 29.4698C173.638 28.8723 173.2 28.17 172.91 27.403C172.62 26.636 172.484 25.8194 172.51 24.9998C172.484 24.1802 172.62 23.3636 172.91 22.5966C173.2 21.8296 173.638 21.1273 174.2 20.5298C174.752 19.9533 175.417 19.4975 176.153 19.1911C176.89 18.8848 177.682 18.7345 178.48 18.7498C179.273 18.7362 180.06 18.8874 180.792 19.1938C181.523 19.5002 182.183 19.9551 182.73 20.5298C183.303 21.1206 183.751 21.8211 184.046 22.5893C184.342 23.3574 184.479 24.1773 184.45 24.9998C184.479 25.8223 184.342 26.6422 184.046 27.4104C183.751 28.1785 183.303 28.879 182.73 29.4698C182.189 30.0464 181.533 30.5029 180.804 30.8095C180.075 31.1162 179.29 31.2662 178.5 31.2498H178.48ZM178.48 19.2498C177.75 19.2354 177.025 19.3718 176.351 19.6506C175.676 19.9293 175.067 20.3444 174.56 20.8698C173.517 21.9868 172.959 23.4722 173.01 24.9998C172.959 26.5274 173.517 28.0128 174.56 29.1298C175.067 29.6552 175.676 30.0703 176.351 30.3491C177.025 30.6278 177.75 30.7643 178.48 30.7498C179.206 30.7681 179.927 30.6332 180.597 30.3541C181.268 30.075 181.872 29.6578 182.37 29.1298C182.9 28.5851 183.314 27.9378 183.586 27.2277C183.857 26.5176 183.981 25.7595 183.95 24.9998C183.98 24.2411 183.857 23.4841 183.587 22.7744C183.317 22.0646 182.907 21.4168 182.38 20.8698C181.881 20.3455 181.278 19.9308 180.61 19.6519C179.942 19.373 179.224 19.2361 178.5 19.2498H178.48Z" fill="white"/>
<path d="M170.35 54.3801C168.946 54.3545 167.551 54.6114 166.248 55.1354C164.945 55.6594 163.761 56.4399 162.766 57.4305C161.771 58.4211 160.985 59.6017 160.454 60.902C159.924 62.2024 159.661 63.596 159.68 65.0001C159.662 66.4039 159.927 67.7969 160.457 69.0966C160.988 70.3963 161.774 71.5763 162.769 72.5666C163.764 73.557 164.948 74.3375 166.25 74.862C167.552 75.3865 168.946 75.6443 170.35 75.6201C171.754 75.6443 173.149 75.3865 174.451 74.8621C175.754 74.3378 176.939 73.5574 177.934 72.5672C178.93 71.577 179.717 70.3971 180.249 69.0973C180.781 67.7976 181.046 66.4043 181.03 65.0001C181.049 63.5951 180.785 62.2007 180.255 60.8997C179.724 59.5986 178.937 58.4176 177.94 57.4269C176.944 56.4361 175.759 55.6558 174.455 55.1324C173.151 54.609 171.755 54.3532 170.35 54.3801ZM170.35 71.4501C169.529 71.4311 168.72 71.2479 167.972 70.9113C167.223 70.5748 166.549 70.0917 165.99 69.4906C165.43 68.8894 164.997 68.1824 164.716 67.4112C164.434 66.6399 164.31 65.8202 164.35 65.0001C164.308 64.1798 164.432 63.3594 164.713 62.5875C164.994 61.8157 165.427 61.1081 165.986 60.5067C166.546 59.9053 167.22 59.4222 167.97 59.0861C168.719 58.7501 169.529 58.5678 170.35 58.5501C171.172 58.565 171.983 58.7454 172.733 59.0806C173.484 59.4157 174.16 59.8987 174.72 60.5008C175.28 61.1028 175.713 61.8115 175.993 62.5845C176.273 63.3575 176.394 64.1791 176.35 65.0001C176.389 65.8198 176.264 66.639 175.981 67.4097C175.699 68.1803 175.266 68.8867 174.707 69.4876C174.148 70.0885 173.475 70.5716 172.727 70.9086C171.978 71.2456 171.17 71.4297 170.35 71.4501ZM147.05 54.3801C145.646 54.3545 144.251 54.6114 142.948 55.1354C141.645 55.6594 140.461 56.4399 139.466 57.4305C138.471 58.4211 137.685 59.6017 137.154 60.902C136.624 62.2024 136.361 63.596 136.38 65.0001C136.362 66.4039 136.627 67.7969 137.157 69.0966C137.688 70.3963 138.474 71.5763 139.469 72.5666C140.464 73.557 141.648 74.3375 142.95 74.862C144.252 75.3865 145.646 75.6443 147.05 75.6201C148.454 75.6443 149.849 75.3865 151.151 74.8621C152.454 74.3378 153.638 73.5574 154.634 72.5672C155.63 71.577 156.417 70.3971 156.949 69.0973C157.481 67.7976 157.746 66.4043 157.73 65.0001C157.749 63.5951 157.485 62.2007 156.954 60.8997C156.424 59.5986 155.637 58.4176 154.64 57.4269C153.644 56.4361 152.459 55.6558 151.155 55.1324C149.851 54.609 148.455 54.3532 147.05 54.3801ZM147.05 71.4501C146.229 71.4311 145.42 71.2479 144.672 70.9113C143.923 70.5748 143.249 70.0917 142.69 69.4906C142.13 68.8894 141.697 68.1824 141.416 67.4112C141.134 66.6399 141.01 65.8202 141.05 65.0001C141.008 64.1798 141.132 63.3594 141.413 62.5875C141.694 61.8157 142.127 61.1081 142.686 60.5067C143.246 59.9053 143.92 59.4222 144.67 59.0861C145.419 58.7501 146.229 58.5678 147.05 58.5501C147.872 58.565 148.683 58.7454 149.433 59.0806C150.184 59.4157 150.86 59.8987 151.42 60.5008C151.98 61.1028 152.413 61.8115 152.693 62.5845C152.973 63.3575 153.094 64.1791 153.05 65.0001C153.092 65.8205 152.968 66.6409 152.687 67.4127C152.406 68.1845 151.973 68.8921 151.413 69.4935C150.854 70.095 150.179 70.578 149.43 70.9141C148.68 71.2502 147.871 71.4325 147.05 71.4501ZM119.35 57.6501V62.1501H130.15C129.991 64.2641 129.129 66.264 127.7 67.8301C126.622 68.9326 125.324 69.7961 123.891 70.3646C122.457 70.9331 120.921 71.1939 119.38 71.1301C117.811 71.1316 116.257 70.8211 114.809 70.2167C113.36 69.6123 112.047 68.726 110.944 67.6095C109.842 66.4929 108.972 65.1682 108.386 63.7125C107.8 62.2569 107.509 60.6992 107.53 59.1301C107.509 57.561 107.8 56.0033 108.386 54.5477C108.972 53.092 109.842 51.7674 110.944 50.6508C112.047 49.5342 113.36 48.6479 114.809 48.0435C116.257 47.4391 117.811 47.1287 119.38 47.1301C122.406 47.0861 125.326 48.2441 127.5 50.3501L130.68 47.1801C129.19 45.7049 127.42 44.5424 125.474 43.761C123.529 42.9796 121.446 42.5951 119.35 42.6301C114.946 42.6271 110.719 44.3594 107.584 47.4516C104.448 50.5438 102.658 54.7469 102.6 59.1501C102.66 63.5534 104.451 67.756 107.586 70.8493C110.72 73.9426 114.946 75.6779 119.35 75.6801C121.49 75.773 123.626 75.408 125.615 74.6096C127.603 73.8112 129.398 72.5976 130.88 71.0501C133.88 68.0501 134.78 63.8801 134.78 60.5001C134.792 59.5541 134.709 58.6092 134.53 57.6801H119.35V57.6501ZM232.63 61.1501C231.75 58.7801 229.05 54.3801 223.53 54.3801C218.01 54.3801 213.53 58.6801 213.53 65.0001C213.499 66.3978 213.75 67.7874 214.268 69.0859C214.786 70.3844 215.561 71.565 216.546 72.5573C217.53 73.5496 218.705 74.3331 220 74.8611C221.294 75.3891 222.682 75.6506 224.08 75.6301C225.829 75.6427 227.554 75.2196 229.099 74.3991C230.644 73.5786 231.961 72.3864 232.93 70.9301L229.31 68.5001C228.774 69.4079 228.009 70.1585 227.09 70.6764C226.172 71.1943 225.134 71.4612 224.08 71.4501C222.997 71.4946 221.926 71.2109 221.007 70.6364C220.088 70.0618 219.364 69.2231 218.93 68.2301L233.16 62.3501L232.63 61.1501ZM218.15 64.7001C218.099 63.9267 218.202 63.1508 218.455 62.418C218.707 61.6852 219.104 61.0102 219.621 60.4327C220.138 59.8551 220.765 59.3867 221.465 59.0548C222.166 58.723 222.926 58.5344 223.7 58.5001C224.514 58.4388 225.328 58.6198 226.04 59.0201C226.752 59.4205 227.329 60.0224 227.7 60.7501L218.15 64.7001ZM206.58 75.0001H211.25V43.7501H206.58V75.0001ZM198.93 56.7501H198.75C198.04 55.9784 197.172 55.3676 196.207 54.9588C195.241 54.55 194.198 54.3527 193.15 54.3801C190.395 54.479 187.787 55.6495 185.882 57.6424C183.977 59.6354 182.925 62.2932 182.95 65.0501C182.935 67.7972 183.993 70.4416 185.898 72.4211C187.802 74.4006 190.404 75.559 193.15 75.6501C194.203 75.6792 195.25 75.4777 196.218 75.0597C197.185 74.6417 198.049 74.0172 198.75 73.2301H198.9V74.7501C198.9 78.8301 196.73 81.0001 193.23 81.0001C192.065 80.9726 190.934 80.5995 189.982 79.9283C189.029 79.257 188.298 78.3179 187.88 77.2301L183.8 78.9301C184.571 80.7939 185.88 82.3857 187.559 83.5024C189.239 84.6192 191.213 85.2102 193.23 85.2001C198.7 85.2001 203.33 81.9801 203.33 74.1301V55.0001H198.9V56.7201L198.93 56.7501ZM193.55 71.4501C192.738 71.4272 191.939 71.2424 191.2 70.9066C190.461 70.5708 189.796 70.0908 189.244 69.4947C188.693 68.8986 188.266 68.1985 187.989 67.4352C187.712 66.672 187.59 65.8611 187.63 65.0501C187.63 61.3001 190.33 58.5801 193.55 58.5801C196.77 58.5801 199.23 61.3201 199.23 65.0501C199.23 68.7801 196.75 71.4501 193.55 71.4501ZM254.55 43.7501H243.35V75.0001H248.03V63.1501H254.55C259.73 63.1501 264.8 59.4001 264.8 53.4501C264.8 47.5001 259.68 43.7501 254.53 43.7501H254.55ZM254.65 58.8001H248.02V48.0701H254.65C256.084 48.0568 257.465 48.6123 258.49 49.6151C259.515 50.6179 260.101 51.9861 260.12 53.4201C260.104 54.8612 259.517 56.2371 258.488 57.2458C257.458 58.2544 256.071 58.8134 254.63 58.8001H254.65ZM283.5 54.3201C280.12 54.3201 276.62 55.8201 275.17 59.1001L279.32 60.8201C279.73 60.0664 280.349 59.4479 281.104 59.0396C281.858 58.6313 282.715 58.4508 283.57 58.5201C285.97 58.5201 288.45 59.9801 288.47 62.5201V62.8501C286.969 62.0577 285.297 61.6456 283.6 61.6501C279.12 61.6501 274.6 64.1001 274.6 68.6501C274.6 72.8301 278.25 75.5301 282.35 75.5301C283.532 75.6078 284.713 75.3656 285.769 74.8289C286.825 74.2922 287.716 73.4808 288.35 72.4801H288.5V74.8801H293V62.8801C292.95 57.4301 288.8 54.3201 283.48 54.3201H283.5ZM282.92 71.4501C281.4 71.4501 279.27 70.6701 279.27 68.8001C279.27 66.4001 281.92 65.4701 284.27 65.4701C285.751 65.4142 287.219 65.7598 288.52 66.4701C288.348 67.8244 287.691 69.0704 286.67 69.977C285.65 70.8835 284.335 71.3892 282.97 71.4001L282.92 71.4501ZM309.35 55.0001L304 68.5501H303.85L298.3 55.0001H293.3L301.62 73.9501L296.87 84.4801H301.75L314.55 55.0001H309.35ZM267.35 75.0001H272.03V43.7501H267.35V75.0001Z" fill="white"/>
<path d="M51.7999 48.5498L25.1499 76.7998C25.3947 77.7119 25.8168 78.5669 26.3921 79.3158C26.9673 80.0648 27.6844 80.6931 28.5026 81.1648C29.3207 81.6365 30.2238 81.9425 31.1602 82.0652C32.0965 82.1879 33.0479 82.1249 33.96 81.8798C34.5877 81.7115 35.1897 81.4592 35.7499 81.1298H35.8199L65.8199 63.8498L51.7999 48.5498Z" fill="#EA4335"/>
<path d="M78.73 43.75L65.8101 36.25L51.23 49.25L65.86 63.87L78.73 56.45C79.5622 56.0005 80.2975 55.3912 80.8938 54.6571C81.4901 53.923 81.9358 53.0784 82.2052 52.1718C82.4746 51.2651 82.5624 50.3142 82.4637 49.3736C82.365 48.4329 82.0817 47.521 81.63 46.69C80.9687 45.4726 79.9728 44.4697 78.76 43.8L78.73 43.75Z" fill="#FBBC04"/>
<path d="M25.15 23.2002C24.9901 23.8041 24.9061 24.4255 24.9 25.0502V75.0002C24.8912 75.6258 24.9754 76.2493 25.15 76.8502L52.6701 49.3302L25.15 23.2002Z" fill="#4285F4"/>
<path d="M51.9999 50L65.7799 36.22L35.8499 18.87C34.204 17.8882 32.2357 17.6 30.3774 18.0688C28.5192 18.5376 26.9231 19.7249 25.9399 21.37C25.6073 21.9333 25.3517 22.5387 25.1799 23.17L51.9999 50Z" fill="#34A853"/>
</g>
<defs>
<clipPath id="clip0_933_60">
<rect width="337.5" height="100" fill="white"/>
</clipPath>
</defs>
</svg>
