<svg width="26" height="24" viewBox="0 0 34 32" fill="none" xmlns="http://www.w3.org/2000/svg">
<g id="Layer_1" clip-path="url(#clip0_885_2602)">
<path id="Vector" d="M0.455217 20.0983C0.43952 20.0198 0.423823 19.9256 0.392428 19.8471C0.361034 19.7058 0.32964 19.5802 0.298246 19.4388C0.266851 19.2504 0.235457 19.062 0.204063 18.8579C0.172669 18.5438 0.125577 18.2298 0.0941828 17.9315C0.0784857 17.7431 0.0470914 17.5546 0.0313943 17.3662C0.0313943 17.1935 0.0156971 17.0365 0 16.8638C0 16.4712 0 16.063 0 15.6704C0 15.4977 0.0156971 15.3407 0.0313943 15.168C0.0627886 14.8382 0.0941828 14.5085 0.125577 14.1788C0.156971 13.959 0.188366 13.7391 0.21976 13.5193C0.282548 13.2053 0.345337 12.8755 0.423823 12.5615C0.423823 12.5144 0.43952 12.483 0.455217 12.4359C0.518006 12.2318 0.580794 12.0119 0.627886 11.8078C0.706371 11.5723 0.784857 11.3368 0.847646 11.1012C0.847646 11.0698 0.863343 11.0541 0.87904 11.0227C0.973223 10.7872 1.06741 10.5517 1.16159 10.3162C1.25577 10.0963 1.34995 9.87652 1.42844 9.6724C1.50693 9.49968 1.60111 9.31126 1.67959 9.13854C1.72669 9.07573 1.75808 8.99723 1.80517 8.93442C1.80517 8.93442 1.80517 8.93442 1.80517 8.91872C1.86796 8.7931 1.94645 8.66749 2.00923 8.54188C2.00923 8.54188 2.00923 8.52618 2.02493 8.51047C2.22899 8.18074 2.43306 7.851 2.63712 7.52127C2.82548 7.25434 3.02955 6.98741 3.21791 6.70478C3.23361 6.68908 3.265 6.65768 3.2807 6.64197C3.90859 5.82549 4.61496 5.08751 5.39982 4.41234C5.60388 4.22392 5.82364 4.0512 6.0277 3.87848C6.10619 3.81568 6.18467 3.75287 6.26316 3.70576C6.46722 3.56445 6.67128 3.42313 6.87535 3.26612C7.06371 3.1405 7.26778 3.01489 7.45614 2.88928C7.45614 2.88928 7.48754 2.87357 7.50323 2.85787C7.59742 2.79507 7.70729 2.74796 7.80148 2.68515C7.80148 2.68515 7.81717 2.66945 7.83287 2.65375C8.16251 2.48103 8.50785 2.29261 8.83749 2.11989C9.18283 1.96288 9.51247 1.82156 9.8578 1.66455C10.0148 1.60174 10.1717 1.53893 10.3444 1.49183C10.3915 1.47613 10.4229 1.46042 10.47 1.44472C10.627 1.39762 10.7682 1.35051 10.9252 1.28771C10.988 1.272 11.0665 1.2563 11.1293 1.2249C11.2862 1.17779 11.4589 1.13069 11.6159 1.08358C11.663 1.08358 11.6944 1.06788 11.7415 1.05218C11.9926 0.989375 12.2281 0.94227 12.4792 0.879463C12.5577 0.863761 12.6519 0.84806 12.7304 0.832358C12.9187 0.800955 13.1071 0.769551 13.2955 0.738148C13.4524 0.722446 13.6094 0.706745 13.7664 0.691043C13.9548 0.675341 14.1431 0.643938 14.3315 0.612535C14.614 0.596833 14.8966 0.581131 15.1634 0.56543H16.325C16.639 0.596833 16.9686 0.612535 17.2825 0.643938C17.3296 0.643938 17.3767 0.65964 17.4238 0.675341C17.7064 0.706745 17.9889 0.738148 18.2715 0.785253C18.4441 0.816656 18.6011 0.84806 18.7738 0.879463C18.8366 0.879463 18.8837 0.895165 18.9464 0.910866C19.1662 0.957971 19.386 1.02078 19.6057 1.06788C19.6999 1.08358 19.7941 1.11499 19.8883 1.13069C20.0609 1.17779 20.2336 1.2249 20.3906 1.28771C20.422 1.28771 20.4534 1.30341 20.4848 1.31911C20.6103 1.36621 20.7359 1.41332 20.8615 1.44472C20.9243 1.46042 21.0028 1.49183 21.0656 1.50753C21.2068 1.55463 21.3324 1.61744 21.4737 1.66455C21.5365 1.68025 21.5993 1.71165 21.6464 1.72735C21.7719 1.77446 21.8818 1.82156 22.0074 1.88437C22.0388 1.88437 22.0545 1.90007 22.0859 1.91577C22.1958 1.96288 22.3056 2.02568 22.4155 2.07279C22.4469 2.07279 22.4783 2.10419 22.5097 2.11989C22.6196 2.167 22.7138 2.22981 22.8236 2.27691C22.855 2.27691 22.8864 2.30831 22.9178 2.32402C22.9806 2.35542 23.0591 2.40252 23.1219 2.43393C23.169 2.44963 23.2004 2.48103 23.2475 2.49673L23.6556 2.73226C23.7341 2.77936 23.8283 2.84217 23.9067 2.88928C23.9538 2.92068 24.0166 2.95208 24.0637 2.98349C24.1265 3.01489 24.1736 3.04629 24.2364 3.0934C24.2364 3.1405 24.2207 3.18761 24.1893 3.21901C24.0951 3.31322 24.0009 3.39173 23.9067 3.47024C23.891 3.47024 23.8753 3.50164 23.8596 3.51734C23.7969 3.56445 23.7498 3.62725 23.687 3.67436C23.6399 3.70576 23.5771 3.75287 23.5457 3.78427C22.9649 4.33383 22.3841 4.88339 21.819 5.43295C21.7248 5.52716 21.6464 5.54286 21.5208 5.48005C20.626 4.9933 19.6842 4.63216 18.6953 4.38093C17.4866 4.0826 16.2465 3.95699 14.9908 4.0355C14.2059 4.0826 13.4367 4.19251 12.6676 4.38093C11.3333 4.72637 10.0933 5.27593 8.94737 6.02961C7.98984 6.65768 7.1422 7.41136 6.38874 8.29065C5.38412 9.45257 4.63066 10.7558 4.11265 12.2004C3.54755 13.8019 3.32779 15.4349 3.43767 17.1307C3.48476 17.8844 3.59464 18.6066 3.78301 19.3446C4.28532 21.3544 5.25854 23.113 6.65559 24.6361C7.75439 25.8294 9.02586 26.7715 10.5014 27.4467C11.9769 28.1376 13.5466 28.5144 15.1791 28.5929C16.1524 28.64 17.1099 28.5615 18.0674 28.3731C20.3592 27.9177 22.3527 26.8971 24.0637 25.327C25.241 24.2278 26.1671 22.956 26.8578 21.4958C27.5485 20.0198 27.9095 18.481 27.988 16.8638C28.0194 16.1258 27.988 15.4035 27.8938 14.6655C27.7055 13.3152 27.313 12.0119 26.7008 10.7872C26.5125 10.4261 26.5125 10.4261 26.7793 10.112C27.1717 9.6567 27.5642 9.18565 27.9566 8.7146C28.2548 8.38486 28.5688 8.03942 28.8827 7.69399C28.9612 7.8196 29.0397 7.91381 29.1025 8.00802C29.1653 8.11793 29.2438 8.22784 29.3066 8.33776C29.3066 8.35346 29.3223 8.36916 29.338 8.38486C29.385 8.44767 29.4164 8.52618 29.4635 8.58898C29.4949 8.63609 29.5106 8.68319 29.542 8.7303C29.6048 8.85591 29.6833 8.98152 29.7461 9.10714C29.8089 9.24845 29.8874 9.37407 29.9501 9.51538C29.9815 9.56249 29.9972 9.59389 30.0129 9.64099C30.06 9.76661 30.1071 9.89222 30.1699 10.0178L30.3583 10.4418C30.4681 10.7401 30.578 11.0384 30.6879 11.3368C30.7193 11.4467 30.7507 11.5566 30.7821 11.6665C30.8292 11.8392 30.892 12.0276 30.9391 12.2004C30.9548 12.2632 30.9705 12.3417 30.9862 12.4045C31.0332 12.5772 31.0646 12.7499 31.1117 12.9069C31.1117 12.954 31.1117 13.0169 31.1274 13.064C31.1588 13.2053 31.2059 13.3309 31.2216 13.4722C31.2844 13.8804 31.3158 14.273 31.3629 14.6812C31.4571 15.6547 31.4728 16.6439 31.3943 17.6174L31.3158 18.3554C31.2687 18.6223 31.2373 18.905 31.1902 19.1719C31.1588 19.3446 31.1274 19.5016 31.096 19.6744C31.0489 19.8785 30.9861 20.0983 30.9391 20.3024C30.9391 20.3338 30.9391 20.3495 30.9234 20.3809C30.8763 20.538 30.8292 20.6793 30.7821 20.8363C30.7664 20.9148 30.735 21.009 30.7193 21.0875C30.6879 21.1817 30.6565 21.2759 30.6251 21.3701C30.578 21.5272 30.5152 21.6685 30.4681 21.8255C30.4211 21.9354 30.3897 22.0296 30.3426 22.1395C30.3426 22.1709 30.3269 22.1866 30.3112 22.218C30.2641 22.3122 30.217 22.4222 30.1856 22.5164C30.1542 22.5792 30.1385 22.6263 30.1071 22.6891C29.9187 23.0816 29.7147 23.4742 29.5263 23.851C29.385 24.0865 29.2595 24.3221 29.1182 24.5576C29.0397 24.6832 28.9612 24.7931 28.8827 24.9187C28.8199 24.9972 28.7729 25.0914 28.7101 25.1699C28.5688 25.3584 28.4432 25.5625 28.3019 25.7509C28.3019 25.7509 28.1764 25.9079 28.1136 25.9707C28.1136 25.9707 28.1136 25.9707 28.0979 25.9864C27.7839 26.3633 27.4543 26.7244 27.1404 27.1012V27.1327C27.1404 27.1327 27.0148 27.2269 26.9677 27.274C26.4183 27.8549 25.8218 28.3731 25.1782 28.8441C24.9585 29.0169 24.723 29.1739 24.4875 29.3466C24.0323 29.6135 23.5928 29.8804 23.1376 30.1631C23.1062 30.1631 23.0905 30.1788 23.0591 30.1945C22.8079 30.3201 22.5725 30.4457 22.3213 30.5713C22.2899 30.5713 22.2742 30.587 22.2428 30.6027C22.1173 30.6655 21.9917 30.7126 21.8661 30.7754C21.5365 30.9011 21.2068 31.0267 20.8772 31.1523C20.8772 31.1523 20.8772 31.1523 20.8615 31.1523C20.626 31.2308 20.4063 31.3093 20.1708 31.3721C19.9511 31.4349 19.7313 31.4977 19.5115 31.5448C19.4801 31.5448 19.4488 31.5605 19.4174 31.5762C19.1034 31.639 18.7738 31.7018 18.4598 31.7803C18.4127 31.7803 18.3657 31.796 18.3029 31.8117C18.1616 31.8274 18.036 31.8432 17.8947 31.8589C17.6279 31.8903 17.361 31.9217 17.0942 31.9531C16.7959 31.9688 16.482 31.9845 16.1838 32.0002C15.9012 32.0002 15.603 32.0002 15.3204 32.0002C15.0379 32.0002 14.7396 31.9845 14.4571 31.9688C14.41 31.9688 14.3629 31.9688 14.3158 31.9531C14.2216 31.9531 14.1274 31.9217 14.0332 31.9217C13.6879 31.8746 13.3269 31.8274 12.9815 31.7803C12.8874 31.7646 12.7932 31.7489 12.699 31.7332C12.4792 31.6861 12.2438 31.639 12.024 31.5762C11.9926 31.5762 11.9612 31.5605 11.9141 31.5448C11.7101 31.482 11.4903 31.4349 11.2862 31.3721C11.2862 31.3721 11.2705 31.3721 11.2548 31.3721C11.0822 31.3093 10.8938 31.2622 10.7211 31.1994C10.6898 31.1994 10.6584 31.1837 10.6113 31.168C10.4229 31.1052 10.2345 31.0267 10.0619 30.9639C9.77932 30.8382 9.51247 30.7283 9.22992 30.6027C9.04155 30.5242 8.85319 30.43 8.66482 30.3515C8.66482 30.3515 8.63343 30.3358 8.61773 30.3201C8.31948 30.1474 8.02124 29.9747 7.72299 29.8176C7.56602 29.7234 7.40905 29.6449 7.25208 29.5507C7.25208 29.5507 7.23638 29.535 7.22068 29.5193C7.1108 29.4408 7.00092 29.3623 6.90674 29.2995C5.63527 28.4516 4.52078 27.4153 3.56325 26.2377C3.32779 25.955 3.10803 25.6567 2.88827 25.3741C2.85688 25.3427 2.84118 25.3113 2.80979 25.2642C2.80979 25.2328 2.77839 25.2013 2.7627 25.1699C2.41736 24.6047 2.08772 24.0394 1.74238 23.4742C1.6325 23.3014 1.55402 23.113 1.45983 22.9403C1.45983 22.9246 1.44414 22.9089 1.42844 22.8932C1.28717 22.5792 1.16159 22.2494 1.02031 21.9354C1.02031 21.9197 1.02031 21.904 1.00462 21.8726C0.941828 21.6999 0.87904 21.5429 0.831948 21.3701C0.831948 21.3387 0.816251 21.323 0.800554 21.2916C0.76916 21.2131 0.753463 21.1346 0.722068 21.0561C0.690674 20.9462 0.65928 20.8363 0.612188 20.7264C0.612188 20.7264 0.612188 20.7107 0.612188 20.695C0.5494 20.4908 0.502308 20.2867 0.43952 20.0826L0.455217 20.0983Z" fill="#006B3D"/>
<path id="Vector_2" d="M30.735 1.06779C30.735 1.06779 30.8135 1.03639 30.8606 1.00498C31.1431 0.87937 31.4257 0.753757 31.7082 0.628143C31.7553 0.612442 31.7867 0.59674 31.8338 0.581038C31.9751 0.533933 32.1164 0.471127 32.2576 0.424022C32.4303 0.361215 32.6187 0.31411 32.7913 0.251303C32.8227 0.251303 32.8384 0.235602 32.8698 0.2199C33.0739 0.157093 33.2937 0.0942867 33.4977 0.0157783C33.6547 0.0157783 33.8117 7.66683e-05 33.9686 -0.015625C34.0314 0.0628833 34.0157 0.12569 33.9529 0.188497C33.843 0.31411 33.7332 0.455425 33.6233 0.581038C33.482 0.706652 33.3564 0.832265 33.2152 0.957879C33.0582 1.09919 32.9012 1.22481 32.7443 1.36612C32.446 1.63305 32.1478 1.91568 31.8495 2.18261C31.7553 2.26112 31.6611 2.35533 31.567 2.43384C31.5042 2.48094 31.4571 2.54375 31.3943 2.59085C31.3943 2.59085 31.253 2.71647 31.1902 2.76357C31.1902 2.76357 31.1745 2.76357 31.1588 2.77927C31.0333 2.88918 30.9077 2.9991 30.7821 3.10901C30.3583 3.51725 29.9345 3.90979 29.5106 4.31804C29.5106 4.31804 29.5106 4.31804 29.4949 4.33374C29.1182 4.72628 28.7415 5.11882 28.3491 5.49566C28.0979 5.76259 27.8467 6.01382 27.6113 6.28075C26.9363 7.05013 26.2456 7.80381 25.5864 8.58889C24.5817 9.78222 23.6242 11.0384 22.7138 12.3102C21.6935 13.739 20.7045 15.1993 19.7784 16.691C18.7581 18.3239 17.8006 20.004 16.9058 21.6998C16.4192 22.6262 15.964 23.5526 15.4774 24.479C15.4146 24.5889 15.3361 24.6831 15.2419 24.7616C15.1949 24.8087 15.085 24.8244 15.0222 24.793C14.8495 24.7145 14.6768 24.6046 14.5827 24.4162C13.8449 22.9402 13.1071 21.4643 12.3694 19.9883C11.8043 18.8578 11.2235 17.7273 10.6427 16.6124C10.4072 16.1571 10.1718 15.686 9.88922 15.2464C9.52818 14.6968 9.01018 14.3828 8.3509 14.3043C8.17823 14.2886 8.02126 14.2886 7.84859 14.2729C7.64453 14.2572 7.64453 14.2415 7.69162 14.0531C7.7858 13.7233 7.94277 13.425 8.13114 13.1424C8.93169 12.0119 10.313 11.5879 11.5845 12.1061C12.5106 12.4829 13.2327 13.111 13.8292 13.8804C14.3001 14.4613 14.6611 15.1051 15.0065 15.7646C15.085 15.9216 15.1792 16.0629 15.2733 16.2356C15.3361 16.1571 15.3675 16.11 15.4146 16.0629C16.0896 15.1522 16.7646 14.2101 17.4552 13.3151C18.4285 12.059 19.4174 10.8185 20.4377 9.5938C21.1755 8.7145 21.9603 7.88231 22.7295 7.05013C23.0591 6.68899 23.4045 6.35925 23.7498 6.02952C23.7969 5.99811 23.8283 5.96671 23.8754 5.93531C24.205 5.62127 24.5346 5.32294 24.88 5.00891C25.0213 4.86759 25.1782 4.74198 25.3195 4.60067C25.3823 4.53786 25.4608 4.47505 25.5236 4.42795C25.7904 4.22383 26.0416 4.004 26.3084 3.79988C26.3869 3.73707 26.4811 3.65857 26.5596 3.59576C26.7322 3.47015 26.9049 3.36023 27.0776 3.23462C27.3601 3.0305 27.627 2.84208 27.9095 2.63796C28.2392 2.43384 28.5845 2.21401 28.9142 2.00989C28.9298 2.00989 28.9455 1.99419 28.9769 1.97849C29.1653 1.86858 29.3537 1.75866 29.542 1.64875C29.5734 1.63305 29.5891 1.61735 29.6205 1.60165C29.7461 1.53884 29.8717 1.46033 29.9973 1.39753C30.1385 1.33472 30.2641 1.25621 30.4054 1.1934C30.531 1.1306 30.6408 1.08349 30.7664 1.02069L30.735 1.06779Z" fill="#006B3D"/>
</g>
<defs>
<clipPath id="clip0_885_2602">
<rect width="34" height="32" fill="white"/>
</clipPath>
</defs>
</svg>
